<svg xmlns="http://www.w3.org/2000/svg" viewBox="0 0 111 111"><g id="Layer_2" data-name="Layer 2"><g id="Layer_1-2" data-name="Layer 1"><circle cx="55.5" cy="55.5" r="53.5" fill="#1071a5" stroke="#fff" stroke-width="4"/><path d="M21,24.1H40.5c1-2.5-2.2-3.2-3.7-3.2-3.3-5.6-9.6-4-11.2,0C21.9,20.2,21,22.7,21,24.1Z" fill="#fff"/><path d="M13.6,45.6h7.3c.4-1.1-.8-1.4-1.4-1.4-1.2-2.5-3.6-1.8-4.2,0A1.3,1.3,0,0,0,13.6,45.6Z" fill="#fff"/><path d="M74.2,34.38H91c.9-2.7-1.9-3.3-3.2-3.3-2.9-5.8-8.2-4.1-9.7,0C75,30.38,74.2,33,74.2,34.38Z" fill="#fff"/><path d="M76.5,50.2H34.6C24.3,50.2,16,59.9,16,71.8v1.6C16,85.3,24.3,95,34.6,95H76.5c10.3,0,18.6-9.7,18.6-21.6V71.8C95.1,59.8,86.8,50.2,76.5,50.2Z" fill="#e2f8fe"/><path d="M39.2,53.1H31.7a1.91,1.91,0,0,0,0,3.8h7.5a1.91,1.91,0,0,0,0-3.8Z" fill="#c3eaf4"/><path d="M55.9,39H53.1c-.3,0-.6.9-.6,2s.3,2,.6,2h2.8c.3,0,.6-.9.6-2S56.3,39,55.9,39Z" fill="#c3eaf4"/><path d="M66.5,54.6H63.7a1.9,1.9,0,0,0,0,3.8h2.8a1.9,1.9,0,0,0,0-3.8Z" fill="#bfedfa"/><path d="M82.5,50.9H79.7a1.9,1.9,0,0,0,0,3.8h2.8a1.9,1.9,0,0,0,0-3.8Z" fill="#c3eaf4"/><path d="M58.9,47.9H54.2a2.24,2.24,0,0,0,0,4.4h4.7a2.24,2.24,0,0,0,0-4.4Z" fill="#bfedfa"/><path d="M75.3,70H70.6a2.24,2.24,0,0,0,0,4.4h4.7a2.24,2.24,0,0,0,0-4.4Z" fill="#bfedfa"/><path d="M34.9,71.1H30.3c-1,0-1.7.5-1.7,1.2s.8,1.2,1.7,1.2h4.6c1,0,1.7-.5,1.7-1.2S35.8,71.1,34.9,71.1Z" fill="#bfedfa"/><path d="M38.2,77.1H35.4c-.6,0-1,.5-1,1.2a1.13,1.13,0,0,0,1,1.2h2.8c.6,0,1-.5,1-1.2A1.06,1.06,0,0,0,38.2,77.1Z" fill="#bfedfa"/><path d="M65.3,47.9H63.7a2.24,2.24,0,0,0,0,4.4h1.6a2,2,0,0,0,1.8-2.2C67,48.9,66.3,47.9,65.3,47.9Z" fill="#c3eaf4"/><path d="M50.3,91.9H41v5.6h9.3Z" fill="#d9463e" stroke="#000" stroke-miterlimit="10" stroke-width="0.4" opacity="0.96" style="isolation:isolate"/><path d="M69.5,91.9H60.2v5.6h9.3Z" fill="#d9463e" stroke="#000" stroke-miterlimit="10" stroke-width="0.4" opacity="0.96" style="isolation:isolate"/><path d="M41.7,90.3H69.5l-3.3-2V85.5H44.3v2.4Z" fill="#d9463e" stroke="#000" stroke-miterlimit="10" stroke-width="0.4"/><path d="M60.2,88H49.6v9.5H60.2Z" fill="#fff8f8" stroke="#000" stroke-miterlimit="10" stroke-width="0.4"/><path d="M60.2,97.5H49.6V91.6c0-1,1.8-3.3,4-3.3h2.7c2.2,0,4,2.2,4,3.3v5.9Z" fill="#fff" stroke="#000" stroke-miterlimit="10" stroke-width="0.4"/><path d="M68.2,75.6h0Z" fill="#fff" stroke="#000" stroke-miterlimit="10" stroke-width="0.6"/><path d="M68.2,59.3h0Z" fill="#fff" stroke="#000" stroke-miterlimit="10" stroke-width="0.6"/><path d="M68.2,74h0Z" fill="#fff" stroke="#000" stroke-miterlimit="10" stroke-width="0.6"/><path d="M68.2,72.4h0Z" fill="#fff" stroke="#000" stroke-miterlimit="10" stroke-width="0.6"/><path d="M65.9,59.3H44v4.8H65.9Z" fill="#d9463e" stroke="#000" stroke-miterlimit="10" stroke-width="0.43" opacity="0.96" style="isolation:isolate"/><path d="M66.8,69.7h0Z" fill="#fff" stroke="#000" stroke-miterlimit="10" stroke-width="0.56"/><path d="M66.2,76.8H43.7v7.9H66.2Z" fill="#d9463e" stroke="#000" stroke-miterlimit="10" stroke-width="0.4" opacity="0.96" style="isolation:isolate"/><path d="M68.2,54.9h0Z" fill="#fff" stroke="#000" stroke-miterlimit="10" stroke-width="0.42"/><path d="M66.2,54.9H43.7v4H66.2Z" fill="#d9463e" stroke="#000" stroke-miterlimit="10" stroke-width="0.4" opacity="0.96" style="isolation:isolate"/><path d="M68.2,53h0Z" fill="#fff" stroke="#000" stroke-miterlimit="10" stroke-width="0.6"/><path d="M66.2,48.6H43.7v4H66.2Z" fill="#d9463e" stroke="#000" stroke-miterlimit="10" stroke-width="0.4" opacity="0.96" style="isolation:isolate"/><path d="M65.5,72.1,44.3,72V69.3H65.5Z" fill="#d9463e" stroke="#000" stroke-miterlimit="10" stroke-width="0.4" opacity="0.96" style="isolation:isolate"/><path d="M66.8,69.3h0Z" fill="#fff" stroke="#000" stroke-miterlimit="10" stroke-width="0.56"/><path d="M66.2,67.3h0Z" fill="#fff" stroke="#000" stroke-miterlimit="10" stroke-width="0.56"/><path d="M68.2,84.8h0Z" fill="#fff" stroke="#000" stroke-miterlimit="10" stroke-width="0.6"/><path d="M61.5,88.4h0Z" fill="#fff" stroke="#000" stroke-miterlimit="10" stroke-width="0.42"/><path d="M68.2,76.8h0Z" fill="#fff" stroke="#000" stroke-miterlimit="10" stroke-width="0.6"/><path d="M68.2,33.5h0Z" fill="#fff" stroke="#000" stroke-miterlimit="10" stroke-width="0.6"/><path d="M68.2,31.9h0Z" fill="#fff" stroke="#000" stroke-miterlimit="10" stroke-width="0.6"/><path d="M68.2,30.3h0Z" fill="#fff" stroke="#000" stroke-miterlimit="10" stroke-width="0.6"/><path d="M68.2,34.7h0Z" fill="#fff" stroke="#000" stroke-miterlimit="10" stroke-width="0.6"/><path d="M66.2,65.7h0Z" fill="#fff" stroke="#000" stroke-miterlimit="10" stroke-width="0.56"/><path d="M68.2,48.6h0Z" fill="#fff" stroke="#000" stroke-miterlimit="10" stroke-width="0.42"/><path d="M64.2,34.7H45.6V48.6H64.2Z" fill="#d9463e" stroke="#000" stroke-miterlimit="10" stroke-width="0.4" opacity="0.96" style="isolation:isolate"/><path d="M67.5,17.6H42.3V29.5H67.5Z" fill="#d9463e" stroke="#000" stroke-miterlimit="10" stroke-width="0.4" opacity="0.96" style="isolation:isolate"/><path d="M61.5,17.6H48.2V29.5H61.5Z" fill="#fff" stroke="#000" stroke-miterlimit="10" stroke-width="0.49"/><path d="M56.2,37.9H53.5v2.4h2.7Z" fill="#fff" stroke="#000" stroke-miterlimit="10" stroke-width="0.49"/><path d="M56.2,60.9H53.5v2.4h2.7Z" fill="#fff" stroke="#000" stroke-miterlimit="10" stroke-width="0.49"/><path d="M56.2,20.4H53.5V22h2.7Z" fill="#d9463e" stroke="#000" stroke-miterlimit="10" stroke-width="0.4" opacity="0.96" style="isolation:isolate"/><path d="M56.2,56.1H53.5v1.6h2.7Z" fill="#fff" stroke="#000" stroke-miterlimit="10" stroke-width="0.49"/><path d="M55.1,17.6H47.6l3.7-2.8L55,12l3.7,2.8,3.7,2.8Z" fill="#d9463e" stroke="#000" stroke-miterlimit="10" stroke-width="0.4" opacity="0.96" style="isolation:isolate"/><path d="M68.1,17.8l-8.9-5.2" fill="none" stroke="#000" stroke-miterlimit="10" stroke-width="0.4"/><path d="M42,17.6l8.9-5.2" fill="none" stroke="#000" stroke-miterlimit="10" stroke-width="0.4"/><path d="M45.6,17.6V29.5" fill="none" stroke="#000" stroke-miterlimit="10" stroke-width="0.39"/><path d="M63.5,17.6V29.5" fill="none" stroke="#000" stroke-miterlimit="10" stroke-width="0.39"/><path d="M44.3,64.1h6.6l-2.8-4.8Z" fill="none" stroke="#000" stroke-miterlimit="10" stroke-width="0.49"/><path d="M58.9,64.1h6.6l-2.8-4.8Z" fill="none" stroke="#000" stroke-miterlimit="10" stroke-width="0.49"/><path d="M54.9,82.7l2.6,2.7,2.6,2.7H49.6l2.6-2.7Z" fill="#d9463e" stroke="#000" stroke-miterlimit="10" stroke-width="0.4" opacity="0.96" style="isolation:isolate"/><path d="M37.6,100.8a1.2,1.2,0,0,1,1-1.2H72c.6,0,1,.5,1,1.2a1.2,1.2,0,0,1-1,1.2H38.6C38,102,37.6,101.5,37.6,100.8Z" fill="#b3b3b3" fill-rule="evenodd"/><path d="M33.8,99.8a1.2,1.2,0,0,1,1-1.2H75.5c.6,0,1,.5,1,1.2a1.2,1.2,0,0,1-1,1.2H34.8C34.2,101,33.8,100.5,33.8,99.8Z" fill="#ccc" fill-rule="evenodd"/><path d="M29,98.9a.82.82,0,0,1,.8-.9H80.6a.88.88,0,0,1,.8.9.82.82,0,0,1-.8.9H29.8A.88.88,0,0,1,29,98.9Z" fill="#364066" fill-rule="evenodd"/></g></g></svg>