<svg xmlns="http://www.w3.org/2000/svg" viewBox="0 0 111 111"><g id="Layer_2" data-name="Layer 2"><g id="Layer_1-2" data-name="Layer 1"><path d="M22.53,53.24H19.59a.43.43,0,0,0-.37.45v.84a.42.42,0,0,0,.37.44h2.94a.42.42,0,0,0,.37-.44v-.84A.43.43,0,0,0,22.53,53.24Z" fill="#97c0c9" opacity="0.7"/><circle cx="55.5" cy="55.5" r="53.5" fill="#b2d1dd" stroke="#fff" stroke-width="4"/><path d="M30.4,86.5a1.35,1.35,0,0,1,1.4-1.3H79.2a1.3,1.3,0,1,1,0,2.6H31.8A1.5,1.5,0,0,1,30.4,86.5Z" fill="#b3b3b3" fill-rule="evenodd"/><path d="M25.15,85.4a1.35,1.35,0,0,1,1.4-1.3h57.9a1.3,1.3,0,1,1,0,2.6H26.55A1.5,1.5,0,0,1,25.15,85.4Z" fill="#ccc" fill-rule="evenodd"/><path d="M37.22,56.81h-3.9a.77.77,0,0,0-.7.8v.6a.77.77,0,0,0,.7.8h3.9a.77.77,0,0,0,.7-.8v-.6A.71.71,0,0,0,37.22,56.81Z" fill="#bde9f4"/><path d="M74.18,45.13h-3c-.3,0-.5.5-.5,1.1V47c0,.6.2,1.1.5,1.1h3c.3,0,.5-.5.5-1.1v-.8C74.78,45.63,74.48,45.13,74.18,45.13Z" fill="#97c0c9" opacity="0.7"/><path d="M57.9,75.31H53.1c-.5,0-.88.63-.88,1.39v1c0,.76.38,1.39.88,1.39h4.8c.5,0,.88-.63.88-1.39v-1C58.78,75.94,58.4,75.31,57.9,75.31Z" fill="#bde9f4"/><path d="M39.72,43.31H34.93c-.51,0-.89.63-.89,1.39v1c0,.76.38,1.39.89,1.39h4.79c.51,0,.88-.63.88-1.39v-1C40.6,43.94,40.23,43.31,39.72,43.31Z" fill="#97c0c9" opacity="0.7"/><path d="M54.47,58h-5.6a.77.77,0,0,0-.7.8v1.5a.77.77,0,0,0,.7.8h5.6a.77.77,0,0,0,.7-.8v-1.5A.77.77,0,0,0,54.47,58Z" fill="#97c0c9" opacity="0.7"/><path d="M67.72,44.4H63.53A.58.58,0,0,0,63,45v1.12a.58.58,0,0,0,.52.6h4.19a.58.58,0,0,0,.52-.6V45A.58.58,0,0,0,67.72,44.4Z" fill="#97c0c9" opacity="0.7"/><path d="M57.1,72H53.9c-.2,0-.4.3-.4.7v1.4c0,.4.2.7.4.7h3.2c.2,0,.4-.3.4-.7v-1.4C57.5,72.41,57.4,72,57.1,72Z" fill="#bde9f4"/><path d="M18.87,32.13h7.3c.4-1.1-.8-1.4-1.4-1.4-1.2-2.5-3.6-1.8-4.2,0A1.3,1.3,0,0,0,18.87,32.13Z" fill="#fff"/><path d="M18.3,84.4a1,1,0,0,1,1.1-.9H91.6a.92.92,0,1,1,0,1.8H19.4A1,1,0,0,1,18.3,84.4Z" fill="#364066" fill-rule="evenodd"/><path d="M77.17,31.13h14.5c.7-2-1.6-2.5-2.8-2.5-2.5-4.3-7.1-3.1-8.3,0C77.87,28.13,77.17,30.13,77.17,31.13Z" fill="#fff"/><path d="M46.27,23.13h19.5c1-2.5-2.2-3.2-3.7-3.2-3.3-5.6-9.6-4-11.2,0C47.17,19.23,46.27,21.73,46.27,23.13Z" fill="#fff"/><circle cx="92.07" cy="66.95" r="0.9" fill="#f0f1f2" opacity="0.6"/><circle cx="75.57" cy="25.25" r="0.6" fill="#f0f1f2" opacity="0.6"/><circle cx="47.57" cy="31.25" r="0.6" fill="#f0f1f2" opacity="0.6"/><circle cx="14.57" cy="42.25" r="0.6" fill="#f0f1f2" opacity="0.6"/><path d="M74.53,39.23H37.94c-9,0-16.2,9.39-16.2,20.92V61.7c0,11.53,7.23,20.93,16.2,20.93H74.53c9,0,16.2-9.4,16.2-20.93V60.15C90.82,48.62,83.5,39.23,74.53,39.23Z" fill="#e2f8fe"/><path d="M41.35,44.37h-5a.66.66,0,0,0-.63.66v1.23a.66.66,0,0,0,.63.66h5a.65.65,0,0,0,.62-.66V45A.66.66,0,0,0,41.35,44.37Z" fill="#97c0c9" opacity="0.7"/><path d="M67.53,60.24H64.59a.43.43,0,0,0-.37.45v.84a.42.42,0,0,0,.37.44h2.94a.42.42,0,0,0,.37-.44v-.84A.43.43,0,0,0,67.53,60.24Z" fill="#97c0c9" opacity="0.7"/><path d="M64.53,65.76H61.59c-.21,0-.37.35-.37.7v1.3c0,.35.16.69.37.69h2.94c.21,0,.37-.34.37-.69v-1.3C64.9,66.11,64.74,65.76,64.53,65.76Z" fill="#97c0c9" opacity="0.7"/><path d="M37.45,55.37H33.27a.58.58,0,0,0-.53.6v1.12a.57.57,0,0,0,.53.59h4.18a.57.57,0,0,0,.52-.59V56A.58.58,0,0,0,37.45,55.37Z" fill="#97c0c9" opacity="0.7"/><path d="M79.45,43.37H75.27a.58.58,0,0,0-.53.6v1.12a.57.57,0,0,0,.53.59h4.18a.57.57,0,0,0,.52-.59V44A.58.58,0,0,0,79.45,43.37Z" fill="#97c0c9" opacity="0.7"/><rect x="26.74" y="67.92" width="10.33" height="5.53" fill="#725d3b"/><rect x="60.74" y="57.27" width="4.9" height="15.48" fill="#725d3b"/><rect x="60.18" y="51.65" width="6.03" height="0.32" fill="#808184"/><rect x="60.18" y="51.31" width="6.03" height="0.14" fill="#d0d2d3"/><rect x="60.18" y="51.46" width="6.03" height="0.19" fill="#bbbdbf"/><rect x="65.66" y="50.11" width="0.55" height="0.48" fill="#e6e7e8"/><rect x="65.66" y="50.8" width="0.55" height="1.17" fill="#e6e7e8"/><rect x="65.71" y="50.6" width="0.44" height="0.2" fill="#58595b"/><rect x="64.1" y="50.11" width="0.55" height="0.48" fill="#e6e7e8"/><rect x="64.1" y="50.8" width="0.55" height="1.17" fill="#e6e7e8"/><rect x="64.15" y="50.6" width="0.44" height="0.2" fill="#58595b"/><rect x="64.97" y="50.73" width="0.36" height="0.32" fill="#e6e7e8"/><rect x="64.97" y="51.19" width="0.36" height="0.78" fill="#e6e7e8"/><rect x="65.01" y="51.06" width="0.3" height="0.13" fill="#58595b"/><rect x="61.74" y="50.11" width="0.55" height="0.48" fill="#e6e7e8"/><rect x="61.74" y="50.8" width="0.55" height="1.17" fill="#e6e7e8"/><rect x="61.79" y="50.6" width="0.45" height="0.2" fill="#58595b"/><rect x="60.18" y="50.11" width="0.55" height="0.48" fill="#e6e7e8"/><rect x="60.18" y="50.8" width="0.55" height="1.17" fill="#e6e7e8"/><rect x="60.23" y="50.6" width="0.45" height="0.2" fill="#58595b"/><rect x="61.05" y="50.73" width="0.36" height="0.32" fill="#e6e7e8"/><rect x="61.05" y="51.19" width="0.36" height="0.78" fill="#e6e7e8"/><rect x="61.08" y="51.06" width="0.3" height="0.13" fill="#58595b"/><rect x="62.46" y="48.13" width="1.47" height="1" fill="#e6e7e8"/><rect x="62.46" y="49.55" width="1.47" height="2.42" fill="#e6e7e8"/><rect x="62.59" y="49.13" width="1.2" height="0.42" fill="#58595b"/><rect x="60.18" y="51.97" width="6.03" height="1.39" fill="#f1f1f2"/><polygon points="63.02 55.05 62.63 55.05 62.5 53.37 62.96 53.37 63.02 55.05" fill="#58595b"/><polygon points="63.41 55.05 63.02 55.05 62.96 53.37 63.42 53.37 63.41 55.05" fill="#f1f1f2"/><polygon points="62.23 55.05 61.84 55.05 61.58 53.37 62.04 53.37 62.23 55.05" fill="#58595b"/><polygon points="62.63 55.05 62.23 55.05 62.04 53.37 62.5 53.37 62.63 55.05" fill="#f1f1f2"/><polygon points="61.45 55.05 61.06 55.05 60.66 53.37 61.12 53.37 61.45 55.05" fill="#58595b"/><polygon points="61.84 55.05 61.45 55.05 61.12 53.37 61.58 53.37 61.84 55.05" fill="#f1f1f2"/><polygon points="65.37 55.05 64.98 55.05 65.27 53.37 65.73 53.37 65.37 55.05" fill="#58595b"/><polygon points="65.76 55.05 65.37 55.05 65.73 53.37 66.19 53.37 65.76 55.05" fill="#f1f1f2"/><polygon points="64.59 55.05 64.19 55.05 64.35 53.37 64.81 53.37 64.59 55.05" fill="#58595b"/><polygon points="64.98 55.05 64.59 55.05 64.81 53.37 65.27 53.37 64.98 55.05" fill="#f1f1f2"/><polygon points="63.8 55.05 63.41 55.05 63.42 53.37 63.88 53.37 63.8 55.05" fill="#58595b"/><polygon points="64.19 55.05 63.8 55.05 63.88 53.37 64.35 53.37 64.19 55.05" fill="#f1f1f2"/><polygon points="61.06 55.05 60.66 55.05 60.19 53.37 60.66 53.37 61.06 55.05" fill="#f1f1f2"/><rect x="60.67" y="55.05" width="5.05" height="0.18" fill="#f1f1f2"/><rect x="60.67" y="56.91" width="5.05" height="0.18" fill="#f1f1f2"/><rect x="60.74" y="57.09" width="4.9" height="0.18" fill="#6d6e70"/><rect x="60.67" y="55.24" width="5.05" height="0.18" fill="#6d6e70"/><rect x="61.23" y="55.42" width="0.56" height="1.49" fill="#6d6e70"/><rect x="61.79" y="55.42" width="0.56" height="1.49" fill="#e6e7e8"/><rect x="62.35" y="55.42" width="0.56" height="1.49" fill="#6d6e70"/><rect x="62.91" y="55.42" width="0.56" height="1.49" fill="#e6e7e8"/><rect x="63.47" y="55.42" width="0.56" height="1.49" fill="#6d6e70"/><rect x="64.03" y="55.42" width="0.56" height="1.49" fill="#e6e7e8"/><rect x="64.6" y="55.42" width="0.56" height="1.49" fill="#6d6e70"/><rect x="65.16" y="55.42" width="0.56" height="1.49" fill="#e6e7e8"/><rect x="60.67" y="55.42" width="0.56" height="1.49" fill="#e6e7e8"/><path d="M63.68,64.53c-.09-.79-.89-.79-1,0v1.52h1Z" fill="#58595b"/><path d="M63.6,64.57c-.07-.72-.74-.72-.82,0V66h.82Z" fill="#f1f1f2"/><rect x="62.6" y="66.2" width="1.19" height="0.13" fill="#58595b"/><path d="M63.92,63.92a1.5,1.5,0,0,0-1.45,0V63.8a1.5,1.5,0,0,1,1.45,0Z" fill="#58595b"/><rect x="65.64" y="68.69" width="0.69" height="4.07" fill="#d0d2d3"/><rect x="43.8" y="74.25" width="22.53" height="9.09" fill="#634f2b"/><rect x="43.8" y="73.93" width="22.53" height="0.31" fill="#58595b"/><rect x="85.42" y="58.52" width="3.81" height="1.53" fill="#e6e7e8"/><rect x="88.23" y="55.92" width="0.99" height="0.68" fill="#e6e7e8"/><rect x="88.23" y="56.88" width="0.99" height="1.64" fill="#e6e7e8"/><rect x="88.32" y="56.6" width="0.81" height="0.28" fill="#58595b"/><rect x="85.42" y="55.92" width="0.99" height="0.68" fill="#e6e7e8"/><rect x="85.42" y="56.88" width="0.99" height="1.64" fill="#e6e7e8"/><rect x="85.51" y="56.6" width="0.81" height="0.28" fill="#58595b"/><rect x="86.99" y="56.79" width="0.66" height="0.45" fill="#e6e7e8"/><rect x="86.99" y="57.43" width="0.66" height="1.09" fill="#e6e7e8"/><rect x="87.05" y="57.24" width="0.54" height="0.19" fill="#58595b"/><rect x="88.14" y="59.04" width="0.27" height="1.02" fill="#58595b"/><rect x="87.66" y="59.04" width="0.27" height="1.02" fill="#58595b"/><rect x="87.19" y="59.04" width="0.27" height="1.02" fill="#58595b"/><rect x="86.71" y="59.04" width="0.27" height="1.02" fill="#58595b"/><rect x="86.23" y="59.04" width="0.27" height="1.02" fill="#58595b"/><rect x="82.69" y="58.52" width="2.73" height="1.53" fill="#d0d2d3"/><rect x="84.71" y="55.92" width="0.71" height="0.68" fill="#d0d2d3"/><rect x="84.71" y="56.88" width="0.71" height="1.64" fill="#d0d2d3"/><rect x="84.77" y="56.6" width="0.58" height="0.28" fill="#404041"/><rect x="82.69" y="55.92" width="0.71" height="0.68" fill="#d0d2d3"/><rect x="82.69" y="56.88" width="0.71" height="1.64" fill="#d0d2d3"/><rect x="82.76" y="56.6" width="0.58" height="0.28" fill="#404041"/><rect x="83.82" y="56.79" width="0.47" height="0.45" fill="#d0d2d3"/><rect x="83.82" y="57.43" width="0.47" height="1.09" fill="#d0d2d3"/><rect x="83.86" y="57.24" width="0.38" height="0.19" fill="#404041"/><rect x="84.64" y="59.04" width="0.19" height="1.02" fill="#404041"/><rect x="84.3" y="59.04" width="0.19" height="1.02" fill="#404041"/><rect x="83.96" y="59.04" width="0.19" height="1.02" fill="#404041"/><rect x="83.62" y="59.04" width="0.19" height="1.02" fill="#404041"/><rect x="83.27" y="59.04" width="0.19" height="1.02" fill="#404041"/><rect x="89.22" y="58.52" width="2.73" height="1.53" fill="#d0d2d3"/><rect x="91.24" y="55.92" width="0.71" height="0.68" fill="#d0d2d3"/><rect x="91.24" y="56.88" width="0.71" height="1.64" fill="#d0d2d3"/><rect x="91.31" y="56.6" width="0.58" height="0.28" fill="#404041"/><rect x="89.22" y="55.92" width="0.71" height="0.68" fill="#d0d2d3"/><rect x="89.22" y="56.88" width="0.71" height="1.64" fill="#d0d2d3"/><rect x="89.29" y="56.6" width="0.58" height="0.28" fill="#404041"/><rect x="90.35" y="56.79" width="0.47" height="0.45" fill="#d0d2d3"/><rect x="90.35" y="57.43" width="0.47" height="1.09" fill="#d0d2d3"/><rect x="90.39" y="57.24" width="0.38" height="0.19" fill="#404041"/><rect x="91.18" y="59.04" width="0.19" height="1.02" fill="#404041"/><rect x="90.83" y="59.04" width="0.19" height="1.02" fill="#404041"/><rect x="90.49" y="59.04" width="0.19" height="1.02" fill="#404041"/><rect x="90.15" y="59.04" width="0.19" height="1.02" fill="#404041"/><rect x="89.81" y="59.04" width="0.19" height="1.02" fill="#404041"/><rect x="85.42" y="60.05" width="3.81" height="0.48" fill="#bbbdbf"/><rect x="85.42" y="60.95" width="3.81" height="0.78" fill="#f1f1f2"/><rect x="85.42" y="61.95" width="3.81" height="0.36" fill="#808184"/><rect x="85.42" y="61.73" width="3.81" height="0.22" fill="#d0d2d3"/><rect x="85.42" y="60.73" width="3.81" height="0.22" fill="#58595b"/><rect x="85.42" y="60.53" width="3.81" height="0.2" fill="#f1f1f2"/><rect x="85.74" y="61.12" width="0.52" height="0.45" fill="#58595b"/><rect x="86.62" y="61.12" width="0.52" height="0.45" fill="#58595b"/><rect x="87.5" y="61.12" width="0.52" height="0.45" fill="#58595b"/><rect x="88.39" y="61.12" width="0.52" height="0.45" fill="#58595b"/><polygon points="85.42 60.53 82.89 60.53 82.69 60.05 85.42 60.05 85.42 60.53" fill="#b1b3b5"/><polygon points="85.42 61.73 83.4 61.73 83.07 60.95 85.42 60.95 85.42 61.73" fill="#e6e7e8"/><polygon points="85.42 62.31 83.64 62.31 83.49 61.95 85.42 61.95 85.42 62.31" fill="#77787b"/><polygon points="85.42 61.73 83.4 61.73 83.49 61.95 85.42 61.95 85.42 61.73" fill="#c5c7c9"/><polygon points="85.42 60.95 83.07 60.95 82.98 60.73 85.42 60.73 85.42 60.95" fill="#4d4d4f"/><polygon points="85.42 60.73 82.98 60.73 82.89 60.53 85.42 60.53 85.42 60.73" fill="#e6e7e8"/><polygon points="83.64 61.12 83.33 61.12 83.51 61.56 83.79 61.56 83.64 61.12" fill="#4d4d4f"/><polygon points="84.17 61.12 83.86 61.12 83.99 61.56 84.27 61.56 84.17 61.12" fill="#4d4d4f"/><polygon points="84.7 61.12 84.39 61.12 84.47 61.56 84.76 61.56 84.7 61.12" fill="#4d4d4f"/><polygon points="85.22 61.12 84.92 61.12 84.96 61.56 85.24 61.56 85.22 61.12" fill="#4d4d4f"/><polygon points="89.22 60.53 91.75 60.53 91.95 60.05 89.22 60.05 89.22 60.53" fill="#b1b3b5"/><polygon points="89.22 61.73 91.24 61.73 91.57 60.95 89.22 60.95 89.22 61.73" fill="#e6e7e8"/><polygon points="89.22 62.31 90.99 62.31 91.15 61.95 89.22 61.95 89.22 62.31" fill="#77787b"/><polygon points="89.22 61.73 91.24 61.73 91.15 61.95 89.22 61.95 89.22 61.73" fill="#c5c7c9"/><polygon points="89.22 60.95 91.57 60.95 91.66 60.73 89.22 60.73 89.22 60.95" fill="#4d4d4f"/><polygon points="89.22 60.73 91.66 60.73 91.75 60.53 89.22 60.53 89.22 60.73" fill="#e6e7e8"/><polygon points="91 61.12 91.31 61.12 91.13 61.56 90.85 61.56 91 61.12" fill="#4d4d4f"/><polygon points="90.47 61.12 90.78 61.12 90.65 61.56 90.37 61.56 90.47 61.12" fill="#4d4d4f"/><polygon points="89.94 61.12 90.25 61.12 90.17 61.56 89.88 61.56 89.94 61.12" fill="#4d4d4f"/><polygon points="89.42 61.12 89.72 61.12 89.68 61.56 89.4 61.56 89.42 61.12" fill="#4d4d4f"/><rect x="85.42" y="62.31" width="3.81" height="10.32" fill="#725d3b"/><rect x="85.42" y="72.63" width="3.81" height="0.19" fill="#bbbdbf"/><rect x="85.42" y="72.82" width="3.81" height="0.19" fill="#6d6e70"/><path d="M88.11,68.81c-.14-1.29-1.44-1.29-1.58,0v2.47h1.58Z" fill="#58595b"/><path d="M88,68.87c-.11-1.17-1.21-1.17-1.32,0v2.26H88Z" fill="#f1f1f2"/><rect x="86.35" y="71.54" width="1.93" height="0.21" fill="#58595b"/><path d="M88.5,67.82a2.42,2.42,0,0,0-2.36,0v-.19a2.42,2.42,0,0,1,2.36,0Z" fill="#58595b"/><path d="M87.82,64.3c-.09-.81-.91-.81-1,0v1.56h1Z" fill="#58595b"/><path d="M87.74,64.34c-.08-.74-.76-.74-.84,0v1.43h.84Z" fill="#f1f1f2"/><rect x="86.71" y="66.02" width="1.22" height="0.13" fill="#58595b"/><path d="M88.06,63.68a1.5,1.5,0,0,0-1.48,0v-.12a1.5,1.5,0,0,1,1.48,0Z" fill="#58595b"/><rect x="83.64" y="62.31" width="1.77" height="10.32" fill="#634f2b"/><rect x="83.64" y="72.63" width="1.77" height="0.19" fill="#b1b3b5"/><rect x="83.64" y="72.82" width="1.77" height="0.19" fill="#626366"/><path d="M84.76,64.3c0-.81-.42-.81-.46,0v1.56h.46Z" fill="#4d4d4f"/><path d="M84.73,64.34c0-.74-.36-.74-.39,0v1.43h.39Z" fill="#e6e7e8"/><rect x="84.25" y="66.02" width="0.57" height="0.13" fill="#4d4d4f"/><path d="M84.88,63.68a.41.41,0,0,0-.7,0v-.12a.41.41,0,0,1,.7,0Z" fill="#4d4d4f"/><rect x="89.22" y="62.31" width="1.77" height="10.32" fill="#634f2b"/><rect x="89.22" y="72.63" width="1.77" height="0.19" fill="#b1b3b5"/><rect x="89.22" y="72.82" width="1.77" height="0.19" fill="#626366"/><path d="M90.34,64.3c0-.81-.42-.81-.46,0v1.56h.46Z" fill="#4d4d4f"/><path d="M90.3,64.34c0-.74-.35-.74-.39,0v1.43h.39Z" fill="#e6e7e8"/><rect x="89.83" y="66.02" width="0.57" height="0.13" fill="#4d4d4f"/><path d="M90.45,63.68a.4.4,0,0,0-.69,0v-.12a.4.4,0,0,1,.69,0Z" fill="#4d4d4f"/><rect x="85.42" y="73.02" width="3.81" height="10.32" fill="#634f2b"/><rect x="85.42" y="83.34" width="3.81" height="0.19" fill="#bbbdbf"/><rect x="85.42" y="83.53" width="3.81" height="0.19" fill="#6d6e70"/><path d="M88.11,79.52c-.14-1.29-1.44-1.29-1.58,0V82h1.58Z" fill="#58595b"/><path d="M88,79.58c-.11-1.17-1.21-1.17-1.32,0v2.26H88Z" fill="#f1f1f2"/><rect x="86.35" y="82.25" width="1.93" height="0.21" fill="#58595b"/><path d="M88.5,78.53a2.42,2.42,0,0,0-2.36,0v-.19a2.42,2.42,0,0,1,2.36,0Z" fill="#58595b"/><path d="M87.82,75c-.09-.81-.91-.81-1,0v1.56h1Z" fill="#58595b"/><path d="M87.74,75.05c-.08-.74-.76-.74-.84,0v1.43h.84Z" fill="#f1f1f2"/><rect x="86.71" y="76.73" width="1.22" height="0.13" fill="#58595b"/><path d="M88.06,74.39a1.5,1.5,0,0,0-1.48,0v-.12a1.5,1.5,0,0,1,1.48,0Z" fill="#58595b"/><rect x="83.64" y="73.02" width="1.77" height="10.32" fill="#4c3b20"/><rect x="83.64" y="83.34" width="1.77" height="0.19" fill="#b1b3b5"/><rect x="83.64" y="83.53" width="1.77" height="0.19" fill="#626366"/><path d="M84.76,75c0-.81-.42-.81-.46,0v1.56h.46Z" fill="#4d4d4f"/><path d="M84.73,75.05c0-.74-.36-.74-.39,0v1.43h.39Z" fill="#e6e7e8"/><rect x="84.25" y="76.73" width="0.57" height="0.13" fill="#4d4d4f"/><path d="M84.88,74.39a.41.41,0,0,0-.7,0v-.12a.41.41,0,0,1,.7,0Z" fill="#4d4d4f"/><rect x="89.22" y="73.02" width="1.77" height="10.32" fill="#4c3b20"/><rect x="89.22" y="83.34" width="1.77" height="0.19" fill="#b1b3b5"/><rect x="89.22" y="83.53" width="1.77" height="0.19" fill="#626366"/><path d="M90.34,75c0-.81-.42-.81-.46,0v1.56h.46Z" fill="#4d4d4f"/><path d="M90.3,75.05c0-.74-.35-.74-.39,0v1.43h.39Z" fill="#e6e7e8"/><rect x="89.83" y="76.73" width="0.57" height="0.13" fill="#4d4d4f"/><path d="M90.45,74.39a.4.4,0,0,0-.69,0v-.12a.4.4,0,0,1,.69,0Z" fill="#4d4d4f"/><rect x="21.58" y="60.39" width="3.52" height="1.42" fill="#e6e7e8"/><rect x="24.18" y="57.98" width="0.92" height="0.63" fill="#e6e7e8"/><rect x="24.18" y="58.87" width="0.92" height="1.52" fill="#e6e7e8"/><rect x="24.27" y="58.6" width="0.75" height="0.26" fill="#58595b"/><rect x="21.58" y="57.98" width="0.92" height="0.63" fill="#e6e7e8"/><rect x="21.58" y="58.87" width="0.92" height="1.52" fill="#e6e7e8"/><rect x="21.66" y="58.6" width="0.75" height="0.26" fill="#58595b"/><rect x="23.03" y="58.78" width="0.61" height="0.42" fill="#e6e7e8"/><rect x="23.03" y="59.38" width="0.61" height="1.01" fill="#e6e7e8"/><rect x="23.09" y="59.2" width="0.5" height="0.17" fill="#58595b"/><rect x="24.1" y="60.86" width="0.25" height="0.94" fill="#58595b"/><rect x="23.66" y="60.86" width="0.25" height="0.94" fill="#58595b"/><rect x="23.21" y="60.86" width="0.25" height="0.94" fill="#58595b"/><rect x="22.77" y="60.86" width="0.25" height="0.94" fill="#58595b"/><rect x="22.33" y="60.86" width="0.25" height="0.94" fill="#58595b"/><rect x="19.05" y="60.39" width="2.52" height="1.42" fill="#d0d2d3"/><rect x="20.92" y="57.98" width="0.66" height="0.63" fill="#d0d2d3"/><rect x="20.92" y="58.87" width="0.66" height="1.52" fill="#d0d2d3"/><rect x="20.98" y="58.6" width="0.54" height="0.26" fill="#404041"/><rect x="19.05" y="57.98" width="0.66" height="0.63" fill="#d0d2d3"/><rect x="19.05" y="58.87" width="0.66" height="1.52" fill="#d0d2d3"/><rect x="19.11" y="58.6" width="0.54" height="0.26" fill="#404041"/><rect x="20.09" y="58.78" width="0.44" height="0.42" fill="#d0d2d3"/><rect x="20.09" y="59.38" width="0.44" height="1.01" fill="#d0d2d3"/><rect x="20.14" y="59.2" width="0.36" height="0.17" fill="#404041"/><rect x="20.86" y="60.86" width="0.18" height="0.94" fill="#404041"/><rect x="20.54" y="60.86" width="0.18" height="0.94" fill="#404041"/><rect x="20.22" y="60.86" width="0.18" height="0.94" fill="#404041"/><rect x="19.91" y="60.86" width="0.18" height="0.94" fill="#404041"/><rect x="19.59" y="60.86" width="0.18" height="0.94" fill="#404041"/><rect x="25.1" y="60.39" width="2.52" height="1.42" fill="#d0d2d3"/><rect x="26.97" y="57.98" width="0.66" height="0.63" fill="#d0d2d3"/><rect x="26.97" y="58.87" width="0.66" height="1.52" fill="#d0d2d3"/><rect x="27.03" y="58.6" width="0.54" height="0.26" fill="#404041"/><rect x="25.1" y="57.98" width="0.66" height="0.63" fill="#d0d2d3"/><rect x="25.1" y="58.87" width="0.66" height="1.52" fill="#d0d2d3"/><rect x="25.16" y="58.6" width="0.54" height="0.26" fill="#404041"/><rect x="26.14" y="58.78" width="0.44" height="0.42" fill="#d0d2d3"/><rect x="26.14" y="59.38" width="0.44" height="1.01" fill="#d0d2d3"/><rect x="26.18" y="59.2" width="0.36" height="0.17" fill="#404041"/><rect x="26.91" y="60.86" width="0.18" height="0.94" fill="#404041"/><rect x="26.59" y="60.86" width="0.18" height="0.94" fill="#404041"/><rect x="26.27" y="60.86" width="0.18" height="0.94" fill="#404041"/><rect x="25.96" y="60.86" width="0.18" height="0.94" fill="#404041"/><rect x="25.64" y="60.86" width="0.18" height="0.94" fill="#404041"/><rect x="21.58" y="61.81" width="3.52" height="0.44" fill="#bbbdbf"/><rect x="21.58" y="62.64" width="3.52" height="0.72" fill="#f1f1f2"/><rect x="21.58" y="63.56" width="3.52" height="0.33" fill="#808184"/><rect x="21.58" y="63.36" width="3.52" height="0.2" fill="#d0d2d3"/><rect x="21.58" y="62.43" width="3.52" height="0.2" fill="#58595b"/><rect x="21.58" y="62.25" width="3.52" height="0.19" fill="#f1f1f2"/><rect x="21.87" y="62.79" width="0.48" height="0.41" fill="#58595b"/><rect x="22.69" y="62.79" width="0.48" height="0.41" fill="#58595b"/><rect x="23.51" y="62.79" width="0.48" height="0.41" fill="#58595b"/><rect x="24.32" y="62.79" width="0.48" height="0.41" fill="#58595b"/><polygon points="21.57 62.25 19.24 62.25 19.05 61.81 21.57 61.81 21.57 62.25" fill="#b1b3b5"/><polygon points="21.57 63.36 19.71 63.36 19.4 62.64 21.57 62.64 21.57 63.36" fill="#e6e7e8"/><polygon points="21.57 63.89 19.93 63.89 19.8 63.56 21.57 63.56 21.57 63.89" fill="#77787b"/><polygon points="21.57 63.36 19.71 63.36 19.8 63.56 21.57 63.56 21.57 63.36" fill="#c5c7c9"/><polygon points="21.57 62.64 19.4 62.64 19.32 62.43 21.57 62.43 21.57 62.64" fill="#4d4d4f"/><polygon points="21.57 62.43 19.32 62.43 19.24 62.25 21.57 62.25 21.57 62.43" fill="#e6e7e8"/><polygon points="19.93 62.79 19.65 62.79 19.81 63.2 20.07 63.2 19.93 62.79" fill="#4d4d4f"/><polygon points="20.42 62.79 20.14 62.79 20.25 63.2 20.52 63.2 20.42 62.79" fill="#4d4d4f"/><polygon points="20.91 62.79 20.62 62.79 20.7 63.2 20.96 63.2 20.91 62.79" fill="#4d4d4f"/><polygon points="21.4 62.79 21.11 62.79 21.15 63.2 21.41 63.2 21.4 62.79" fill="#4d4d4f"/><polygon points="25.1 62.25 27.44 62.25 27.62 61.81 25.1 61.81 25.1 62.25" fill="#b1b3b5"/><polygon points="25.1 63.36 26.97 63.36 27.27 62.64 25.1 62.64 25.1 63.36" fill="#e6e7e8"/><polygon points="25.1 63.89 26.74 63.89 26.88 63.56 25.1 63.56 25.1 63.89" fill="#77787b"/><polygon points="25.1 63.36 26.97 63.36 26.88 63.56 25.1 63.56 25.1 63.36" fill="#c5c7c9"/><polygon points="25.1 62.64 27.27 62.64 27.36 62.43 25.1 62.43 25.1 62.64" fill="#4d4d4f"/><polygon points="25.1 62.43 27.36 62.43 27.44 62.25 25.1 62.25 25.1 62.43" fill="#e6e7e8"/><polygon points="26.74 62.79 27.03 62.79 26.87 63.2 26.61 63.2 26.74 62.79" fill="#4d4d4f"/><polygon points="26.25 62.79 26.54 62.79 26.42 63.2 26.16 63.2 26.25 62.79" fill="#4d4d4f"/><polygon points="25.77 62.79 26.05 62.79 25.97 63.2 25.71 63.2 25.77 62.79" fill="#4d4d4f"/><polygon points="25.28 62.79 25.56 62.79 25.52 63.2 25.26 63.2 25.28 62.79" fill="#4d4d4f"/><rect x="21.58" y="63.89" width="3.52" height="9.56" fill="#725d3b"/><rect x="21.58" y="73.45" width="3.52" height="0.18" fill="#bbbdbf"/><rect x="21.58" y="73.63" width="3.52" height="0.18" fill="#6d6e70"/><path d="M24.07,69.91c-.13-1.19-1.34-1.19-1.46,0V72.2h1.46Z" fill="#58595b"/><path d="M24,70c-.11-1.08-1.12-1.08-1.23,0v2.1H24Z" fill="#f1f1f2"/><rect x="22.44" y="72.44" width="1.79" height="0.19" fill="#58595b"/><path d="M24.43,69a2.25,2.25,0,0,0-2.19,0v-.18a2.25,2.25,0,0,1,2.19,0Z" fill="#58595b"/><path d="M23.8,65.74c-.08-.75-.84-.75-.92,0v1.44h.92Z" fill="#58595b"/><path d="M23.72,65.78c-.06-.69-.7-.69-.77,0V67.1h.77Z" fill="#f1f1f2"/><rect x="22.77" y="67.33" width="1.13" height="0.12" fill="#58595b"/><path d="M24,65.17a1.41,1.41,0,0,0-1.38,0v-.12a1.41,1.41,0,0,1,1.38,0Z" fill="#58595b"/><rect x="19.93" y="63.89" width="1.64" height="9.56" fill="#634f2b"/><rect x="19.93" y="73.45" width="1.64" height="0.18" fill="#b1b3b5"/><rect x="19.93" y="73.63" width="1.64" height="0.18" fill="#626366"/><path d="M21,65.74c0-.75-.39-.75-.43,0v1.44H21Z" fill="#4d4d4f"/><path d="M20.94,65.78c0-.69-.33-.69-.37,0V67.1h.37Z" fill="#e6e7e8"/><rect x="20.49" y="67.33" width="0.53" height="0.12" fill="#4d4d4f"/><path d="M21.08,65.17a.38.38,0,0,0-.65,0v-.12a.38.38,0,0,1,.65,0Z" fill="#4d4d4f"/><rect x="25.1" y="63.89" width="1.64" height="9.56" fill="#634f2b"/><rect x="25.1" y="73.45" width="1.64" height="0.18" fill="#b1b3b5"/><rect x="25.1" y="73.63" width="1.64" height="0.18" fill="#626366"/><path d="M26.13,65.74c0-.75-.39-.75-.42,0v1.44h.42Z" fill="#4d4d4f"/><path d="M26.1,65.78c0-.69-.33-.69-.36,0V67.1h.36Z" fill="#e6e7e8"/><rect x="25.66" y="67.33" width="0.53" height="0.12" fill="#4d4d4f"/><path d="M26.24,65.17a.37.37,0,0,0-.64,0v-.12a.37.37,0,0,1,.64,0Z" fill="#4d4d4f"/><rect x="21.58" y="73.81" width="3.52" height="9.56" fill="#634f2b"/><rect x="21.58" y="83.37" width="3.52" height="0.18" fill="#bbbdbf"/><rect x="21.58" y="83.55" width="3.52" height="0.18" fill="#6d6e70"/><path d="M24.07,79.83c-.13-1.19-1.34-1.19-1.46,0v2.29h1.46Z" fill="#58595b"/><path d="M24,79.89c-.11-1.09-1.12-1.09-1.23,0V82H24Z" fill="#f1f1f2"/><rect x="22.44" y="82.36" width="1.79" height="0.19" fill="#58595b"/><path d="M24.43,78.92a2.25,2.25,0,0,0-2.19,0v-.18a2.25,2.25,0,0,1,2.19,0Z" fill="#58595b"/><path d="M23.8,75.66c-.08-.75-.84-.75-.92,0V77.1h.92Z" fill="#58595b"/><path d="M23.72,75.7c-.06-.69-.7-.69-.77,0V77h.77Z" fill="#f1f1f2"/><rect x="22.77" y="77.25" width="1.13" height="0.12" fill="#58595b"/><path d="M24,75.08a1.41,1.41,0,0,0-1.38,0V75A1.41,1.41,0,0,1,24,75Z" fill="#58595b"/><rect x="19.93" y="73.81" width="1.64" height="9.56" fill="#4c3b20"/><rect x="19.93" y="83.37" width="1.64" height="0.18" fill="#b1b3b5"/><rect x="19.93" y="83.55" width="1.64" height="0.18" fill="#626366"/><path d="M21,75.66c0-.75-.39-.75-.43,0V77.1H21Z" fill="#4d4d4f"/><path d="M20.94,75.7c0-.69-.33-.69-.37,0V77h.37Z" fill="#e6e7e8"/><rect x="20.49" y="77.25" width="0.53" height="0.12" fill="#4d4d4f"/><path d="M21.08,75.08a.38.38,0,0,0-.65,0V75a.38.38,0,0,1,.65,0Z" fill="#4d4d4f"/><rect x="25.1" y="73.81" width="1.64" height="9.56" fill="#4c3b20"/><rect x="25.1" y="83.37" width="1.64" height="0.18" fill="#b1b3b5"/><rect x="25.1" y="83.55" width="1.64" height="0.18" fill="#626366"/><path d="M26.13,75.66c0-.75-.39-.75-.42,0V77.1h.42Z" fill="#4d4d4f"/><path d="M26.1,75.7c0-.69-.33-.69-.36,0V77h.36Z" fill="#e6e7e8"/><rect x="25.66" y="77.25" width="0.53" height="0.12" fill="#4d4d4f"/><path d="M26.24,75.08a.37.37,0,0,0-.64,0V75a.37.37,0,0,1,.64,0Z" fill="#4d4d4f"/><rect x="38.71" y="60.39" width="3.52" height="1.42" fill="#e6e7e8"/><rect x="41.32" y="57.98" width="0.92" height="0.63" fill="#e6e7e8"/><rect x="41.32" y="58.87" width="0.92" height="1.52" fill="#e6e7e8"/><rect x="41.4" y="58.6" width="0.75" height="0.26" fill="#58595b"/><rect x="38.71" y="57.98" width="0.92" height="0.63" fill="#e6e7e8"/><rect x="38.71" y="58.87" width="0.92" height="1.52" fill="#e6e7e8"/><rect x="38.8" y="58.6" width="0.75" height="0.26" fill="#58595b"/><rect x="40.17" y="58.78" width="0.61" height="0.42" fill="#e6e7e8"/><rect x="40.17" y="59.38" width="0.61" height="1.01" fill="#e6e7e8"/><rect x="40.22" y="59.2" width="0.5" height="0.17" fill="#58595b"/><rect x="41.23" y="60.86" width="0.25" height="0.94" fill="#58595b"/><rect x="40.79" y="60.86" width="0.25" height="0.94" fill="#58595b"/><rect x="40.35" y="60.86" width="0.25" height="0.94" fill="#58595b"/><rect x="39.91" y="60.86" width="0.25" height="0.94" fill="#58595b"/><rect x="39.46" y="60.86" width="0.25" height="0.94" fill="#58595b"/><rect x="36.19" y="60.39" width="2.52" height="1.42" fill="#d0d2d3"/><rect x="38.05" y="57.98" width="0.66" height="0.63" fill="#d0d2d3"/><rect x="38.05" y="58.87" width="0.66" height="1.52" fill="#d0d2d3"/><rect x="38.11" y="58.6" width="0.54" height="0.26" fill="#404041"/><rect x="36.19" y="57.98" width="0.66" height="0.63" fill="#d0d2d3"/><rect x="36.19" y="58.87" width="0.66" height="1.52" fill="#d0d2d3"/><rect x="36.25" y="58.6" width="0.54" height="0.26" fill="#404041"/><rect x="37.23" y="58.78" width="0.44" height="0.42" fill="#d0d2d3"/><rect x="37.23" y="59.38" width="0.44" height="1.01" fill="#d0d2d3"/><rect x="37.27" y="59.2" width="0.36" height="0.17" fill="#404041"/><rect x="37.99" y="60.86" width="0.18" height="0.94" fill="#404041"/><rect x="37.68" y="60.86" width="0.18" height="0.94" fill="#404041"/><rect x="37.36" y="60.86" width="0.18" height="0.94" fill="#404041"/><rect x="37.04" y="60.86" width="0.18" height="0.94" fill="#404041"/><rect x="36.73" y="60.86" width="0.18" height="0.94" fill="#404041"/><rect x="42.23" y="60.39" width="2.52" height="1.42" fill="#d0d2d3"/><rect x="44.1" y="57.98" width="0.66" height="0.63" fill="#d0d2d3"/><rect x="44.1" y="58.87" width="0.66" height="1.52" fill="#d0d2d3"/><rect x="44.16" y="58.6" width="0.54" height="0.26" fill="#404041"/><rect x="42.23" y="57.98" width="0.66" height="0.63" fill="#d0d2d3"/><rect x="42.23" y="58.87" width="0.66" height="1.52" fill="#d0d2d3"/><rect x="42.3" y="58.6" width="0.54" height="0.26" fill="#404041"/><rect x="43.28" y="58.78" width="0.44" height="0.42" fill="#d0d2d3"/><rect x="43.28" y="59.38" width="0.44" height="1.01" fill="#d0d2d3"/><rect x="43.32" y="59.2" width="0.36" height="0.17" fill="#404041"/><rect x="44.04" y="60.86" width="0.18" height="0.94" fill="#404041"/><rect x="43.73" y="60.86" width="0.18" height="0.94" fill="#404041"/><rect x="43.41" y="60.86" width="0.18" height="0.94" fill="#404041"/><rect x="43.09" y="60.86" width="0.18" height="0.94" fill="#404041"/><rect x="42.77" y="60.86" width="0.18" height="0.94" fill="#404041"/><rect x="38.71" y="61.81" width="3.52" height="0.44" fill="#bbbdbf"/><rect x="38.71" y="62.64" width="3.52" height="0.72" fill="#f1f1f2"/><rect x="38.71" y="63.56" width="3.52" height="0.33" fill="#808184"/><rect x="38.71" y="63.36" width="3.52" height="0.2" fill="#d0d2d3"/><rect x="38.71" y="62.43" width="3.52" height="0.2" fill="#58595b"/><rect x="38.71" y="62.25" width="3.52" height="0.19" fill="#f1f1f2"/><rect x="39.01" y="62.79" width="0.48" height="0.41" fill="#58595b"/><rect x="39.83" y="62.79" width="0.48" height="0.41" fill="#58595b"/><rect x="40.64" y="62.79" width="0.48" height="0.41" fill="#58595b"/><rect x="41.46" y="62.79" width="0.48" height="0.41" fill="#58595b"/><polygon points="38.71 62.25 36.37 62.25 36.19 61.81 38.71 61.81 38.71 62.25" fill="#b1b3b5"/><polygon points="38.71 63.36 36.84 63.36 36.54 62.64 38.71 62.64 38.71 63.36" fill="#e6e7e8"/><polygon points="38.71 63.89 37.07 63.89 36.93 63.56 38.71 63.56 38.71 63.89" fill="#77787b"/><polygon points="38.71 63.36 36.84 63.36 36.93 63.56 38.71 63.56 38.71 63.36" fill="#c5c7c9"/><polygon points="38.71 62.64 36.54 62.64 36.45 62.43 38.71 62.43 38.71 62.64" fill="#4d4d4f"/><polygon points="38.71 62.43 36.45 62.43 36.37 62.25 38.71 62.25 38.71 62.43" fill="#e6e7e8"/><polygon points="37.07 62.79 36.78 62.79 36.94 63.2 37.2 63.2 37.07 62.79" fill="#4d4d4f"/><polygon points="37.56 62.79 37.27 62.79 37.39 63.2 37.65 63.2 37.56 62.79" fill="#4d4d4f"/><polygon points="38.04 62.79 37.76 62.79 37.84 63.2 38.1 63.2 38.04 62.79" fill="#4d4d4f"/><polygon points="38.53 62.79 38.25 62.79 38.29 63.2 38.55 63.2 38.53 62.79" fill="#4d4d4f"/><polygon points="42.23 62.25 44.57 62.25 44.76 61.81 42.23 61.81 42.23 62.25" fill="#b1b3b5"/><polygon points="42.23 63.36 44.1 63.36 44.41 62.64 42.23 62.64 42.23 63.36" fill="#e6e7e8"/><polygon points="42.23 63.89 43.88 63.89 44.02 63.56 42.23 63.56 42.23 63.89" fill="#77787b"/><polygon points="42.23 63.36 44.1 63.36 44.02 63.56 42.23 63.56 42.23 63.36" fill="#c5c7c9"/><polygon points="42.23 62.64 44.41 62.64 44.49 62.43 42.23 62.43 42.23 62.64" fill="#4d4d4f"/><polygon points="42.23 62.43 44.49 62.43 44.57 62.25 42.23 62.25 42.23 62.43" fill="#e6e7e8"/><polygon points="43.88 62.79 44.16 62.79 44 63.2 43.74 63.2 43.88 62.79" fill="#4d4d4f"/><polygon points="43.39 62.79 43.68 62.79 43.56 63.2 43.29 63.2 43.39 62.79" fill="#4d4d4f"/><polygon points="42.9 62.79 43.19 62.79 43.11 63.2 42.85 63.2 42.9 62.79" fill="#4d4d4f"/><polygon points="42.41 62.79 42.7 62.79 42.66 63.2 42.4 63.2 42.41 62.79" fill="#4d4d4f"/><rect x="38.71" y="63.89" width="3.52" height="9.56" fill="#725d3b"/><rect x="38.71" y="73.45" width="3.52" height="0.18" fill="#bbbdbf"/><rect x="38.71" y="73.63" width="3.52" height="0.18" fill="#6d6e70"/><path d="M41.2,69.91c-.12-1.19-1.33-1.19-1.46,0V72.2H41.2Z" fill="#58595b"/><path d="M41.09,70C41,68.89,40,68.89,39.86,70v2.1h1.23Z" fill="#f1f1f2"/><rect x="39.58" y="72.44" width="1.79" height="0.19" fill="#58595b"/><path d="M41.57,69a2.25,2.25,0,0,0-2.19,0v-.18a2.25,2.25,0,0,1,2.19,0Z" fill="#58595b"/><path d="M40.93,65.74c-.08-.75-.84-.75-.92,0v1.44h.92Z" fill="#58595b"/><path d="M40.86,65.78c-.07-.69-.71-.69-.77,0V67.1h.77Z" fill="#f1f1f2"/><rect x="39.91" y="67.33" width="1.13" height="0.12" fill="#58595b"/><path d="M41.16,65.17a1.41,1.41,0,0,0-1.38,0v-.12a1.41,1.41,0,0,1,1.38,0Z" fill="#58595b"/><rect x="37.07" y="63.89" width="1.64" height="9.56" fill="#634f2b"/><rect x="37.07" y="73.45" width="1.64" height="0.18" fill="#b1b3b5"/><rect x="37.07" y="73.63" width="1.64" height="0.18" fill="#626366"/><path d="M38.11,65.74c0-.75-.4-.75-.43,0v1.44h.43Z" fill="#4d4d4f"/><path d="M38.07,65.78c0-.69-.33-.69-.36,0V67.1h.36Z" fill="#e6e7e8"/><rect x="37.63" y="67.33" width="0.53" height="0.12" fill="#4d4d4f"/><path d="M38.21,65.17a.37.37,0,0,0-.64,0v-.12a.37.37,0,0,1,.64,0Z" fill="#4d4d4f"/><rect x="42.23" y="63.89" width="1.64" height="9.56" fill="#634f2b"/><rect x="42.23" y="73.45" width="1.64" height="0.18" fill="#b1b3b5"/><rect x="42.23" y="73.63" width="1.64" height="0.18" fill="#626366"/><path d="M43.27,65.74c0-.75-.39-.75-.43,0v1.44h.43Z" fill="#4d4d4f"/><path d="M43.24,65.78c0-.69-.33-.69-.37,0V67.1h.37Z" fill="#e6e7e8"/><rect x="42.79" y="67.33" width="0.53" height="0.12" fill="#4d4d4f"/><path d="M43.38,65.17a.38.38,0,0,0-.65,0v-.12a.38.38,0,0,1,.65,0Z" fill="#4d4d4f"/><rect x="38.71" y="73.81" width="3.52" height="9.56" fill="#634f2b"/><rect x="38.71" y="83.37" width="3.52" height="0.18" fill="#bbbdbf"/><rect x="38.71" y="83.55" width="3.52" height="0.18" fill="#6d6e70"/><path d="M41.2,79.83c-.12-1.19-1.33-1.19-1.46,0v2.29H41.2Z" fill="#58595b"/><path d="M41.09,79.89c-.11-1.09-1.12-1.09-1.23,0V82h1.23Z" fill="#f1f1f2"/><rect x="39.58" y="82.36" width="1.79" height="0.19" fill="#58595b"/><path d="M41.57,78.92a2.25,2.25,0,0,0-2.19,0v-.18a2.25,2.25,0,0,1,2.19,0Z" fill="#58595b"/><path d="M40.93,75.66c-.08-.75-.84-.75-.92,0V77.1h.92Z" fill="#58595b"/><path d="M40.86,75.7c-.07-.69-.71-.69-.77,0V77h.77Z" fill="#f1f1f2"/><rect x="39.91" y="77.25" width="1.13" height="0.12" fill="#58595b"/><path d="M41.16,75.08a1.41,1.41,0,0,0-1.38,0V75a1.41,1.41,0,0,1,1.38,0Z" fill="#58595b"/><rect x="37.07" y="73.81" width="1.64" height="9.56" fill="#4c3b20"/><rect x="37.07" y="83.37" width="1.64" height="0.18" fill="#b1b3b5"/><rect x="37.07" y="83.55" width="1.64" height="0.18" fill="#626366"/><path d="M38.11,75.66c0-.75-.4-.75-.43,0V77.1h.43Z" fill="#4d4d4f"/><path d="M38.07,75.7c0-.69-.33-.69-.36,0V77h.36Z" fill="#e6e7e8"/><rect x="37.63" y="77.25" width="0.53" height="0.12" fill="#4d4d4f"/><path d="M38.21,75.08a.37.37,0,0,0-.64,0V75a.37.37,0,0,1,.64,0Z" fill="#4d4d4f"/><rect x="42.23" y="73.81" width="1.64" height="9.56" fill="#4c3b20"/><rect x="42.23" y="83.37" width="1.64" height="0.18" fill="#b1b3b5"/><rect x="42.23" y="83.55" width="1.64" height="0.18" fill="#626366"/><path d="M43.27,75.66c0-.75-.39-.75-.43,0V77.1h.43Z" fill="#4d4d4f"/><path d="M43.24,75.7c0-.69-.33-.69-.37,0V77h.37Z" fill="#e6e7e8"/><rect x="42.79" y="77.25" width="0.53" height="0.12" fill="#4d4d4f"/><path d="M43.38,75.08a.38.38,0,0,0-.65,0V75a.38.38,0,0,1,.65,0Z" fill="#4d4d4f"/><rect x="74.15" y="73.02" width="9.5" height="10.32" fill="#634f2b"/><rect x="74.15" y="65.3" width="9.5" height="7.33" fill="#725d3b"/><rect x="74.15" y="83.34" width="9.5" height="0.19" fill="#bbbdbf"/><rect x="74.15" y="83.53" width="9.5" height="0.19" fill="#6d6e70"/><rect x="74.15" y="72.63" width="9.5" height="0.19" fill="#bbbdbf"/><rect x="74.15" y="72.82" width="9.5" height="0.19" fill="#6d6e70"/><rect x="74.08" y="64.18" width="9.57" height="0.32" fill="#808184"/><rect x="73.75" y="64.5" width="9.9" height="0.32" fill="#e6e7e8"/><rect x="73.98" y="64.97" width="9.67" height="0.32" fill="#d0d2d3"/><rect x="73.89" y="64.83" width="9.76" height="0.15" fill="#58595b"/><rect x="74.08" y="63.84" width="9.57" height="0.14" fill="#d0d2d3"/><rect x="74.08" y="63.99" width="9.57" height="0.19" fill="#bbbdbf"/><rect x="77.34" y="61.9" width="1.11" height="0.68" fill="#e6e7e8"/><rect x="77.34" y="62.86" width="1.11" height="1.64" fill="#e6e7e8"/><rect x="77.45" y="62.58" width="0.9" height="0.28" fill="#58595b"/><rect x="74.08" y="61.9" width="1.11" height="0.68" fill="#e6e7e8"/><rect x="74.08" y="62.86" width="1.11" height="1.64" fill="#e6e7e8"/><rect x="74.18" y="62.58" width="0.9" height="0.28" fill="#58595b"/><rect x="75.9" y="62.77" width="0.74" height="0.45" fill="#e6e7e8"/><rect x="75.9" y="63.41" width="0.74" height="1.09" fill="#e6e7e8"/><rect x="75.96" y="63.22" width="0.6" height="0.19" fill="#58595b"/><rect x="80.61" y="61.9" width="1.11" height="0.68" fill="#e6e7e8"/><rect x="80.61" y="62.86" width="1.11" height="1.64" fill="#e6e7e8"/><rect x="80.71" y="62.58" width="0.9" height="0.28" fill="#58595b"/><rect x="79.16" y="62.77" width="0.74" height="0.45" fill="#e6e7e8"/><rect x="79.16" y="63.41" width="0.74" height="1.09" fill="#e6e7e8"/><rect x="79.23" y="63.22" width="0.6" height="0.19" fill="#58595b"/><rect x="82.43" y="62.77" width="0.74" height="0.45" fill="#e6e7e8"/><rect x="82.43" y="63.41" width="0.74" height="1.09" fill="#e6e7e8"/><rect x="82.5" y="63.22" width="0.6" height="0.19" fill="#58595b"/><rect x="76.61" y="68.05" width="4.64" height="3.49" fill="#e6e7e8"/><rect x="75.33" y="68.05" width="1.29" height="3.49" fill="#4c3b20"/><rect x="75.64" y="68.39" width="0.67" height="2.81" fill="#4c3b20"/><rect x="81.25" y="68.05" width="1.29" height="3.49" fill="#4c3b20"/><rect x="81.56" y="68.39" width="0.67" height="2.81" fill="#4c3b20"/><rect x="77.03" y="68.39" width="1.49" height="2.81" fill="#4c3b20"/><rect x="78.93" y="68.39" width="1.49" height="2.81" fill="#4c3b20"/><rect x="75.33" y="67.89" width="7.21" height="0.16" fill="#58595b"/><rect x="75.27" y="66.66" width="7.31" height="0.22" fill="#a6a8ab"/><rect x="75.1" y="66.46" width="7.67" height="0.2" fill="#58595b"/><rect x="74.98" y="66.32" width="7.91" height="0.14" fill="#f1f1f2"/><rect x="75.06" y="66.18" width="7.75" height="0.14" fill="#e6e7e8"/><rect x="75.31" y="66.04" width="7.23" height="0.14" fill="#d0d2d3"/><rect x="75.61" y="65.89" width="6.64" height="0.14" fill="#bbbdbf"/><rect x="75.33" y="71.54" width="7.21" height="0.16" fill="#58595b"/><rect x="76.61" y="66.89" width="4.64" height="1" fill="#e6e7e8"/><rect x="77.18" y="67.11" width="0.38" height="0.55" fill="#58595b"/><rect x="77.7" y="67.11" width="0.38" height="0.55" fill="#58595b"/><rect x="78.22" y="67.11" width="0.38" height="0.55" fill="#58595b"/><rect x="78.74" y="67.11" width="0.38" height="0.55" fill="#58595b"/><rect x="79.26" y="67.11" width="0.38" height="0.55" fill="#58595b"/><rect x="79.78" y="67.11" width="0.38" height="0.55" fill="#58595b"/><rect x="80.3" y="67.11" width="0.38" height="0.55" fill="#58595b"/><rect x="75.33" y="66.89" width="1.29" height="1" fill="#d0d2d3"/><rect x="75.52" y="67.11" width="0.38" height="0.55" fill="#58595b"/><rect x="76.04" y="67.11" width="0.38" height="0.55" fill="#58595b"/><rect x="81.24" y="66.89" width="1.29" height="1" fill="#d0d2d3"/><rect x="81.43" y="67.11" width="0.38" height="0.55" fill="#58595b"/><rect x="81.95" y="67.11" width="0.38" height="0.55" fill="#58595b"/><rect x="76.61" y="71.71" width="4.64" height="1" fill="#e6e7e8"/><rect x="77.18" y="71.93" width="0.38" height="0.55" fill="#58595b"/><rect x="77.7" y="71.93" width="0.38" height="0.55" fill="#58595b"/><rect x="78.22" y="71.93" width="0.38" height="0.55" fill="#58595b"/><rect x="78.74" y="71.93" width="0.38" height="0.55" fill="#58595b"/><rect x="79.26" y="71.93" width="0.38" height="0.55" fill="#58595b"/><rect x="79.78" y="71.93" width="0.38" height="0.55" fill="#58595b"/><rect x="80.3" y="71.93" width="0.38" height="0.55" fill="#58595b"/><rect x="75.33" y="71.71" width="1.29" height="1" fill="#d0d2d3"/><rect x="75.52" y="71.93" width="0.38" height="0.55" fill="#58595b"/><rect x="76.04" y="71.93" width="0.38" height="0.55" fill="#58595b"/><rect x="81.24" y="71.71" width="1.29" height="1" fill="#d0d2d3"/><rect x="81.43" y="71.93" width="0.38" height="0.55" fill="#58595b"/><rect x="81.95" y="71.93" width="0.38" height="0.55" fill="#58595b"/><rect x="76.61" y="75.73" width="4.64" height="5.57" fill="#e6e7e8"/><rect x="75.33" y="75.73" width="1.29" height="5.57" fill="#4c3b20"/><rect x="75.64" y="76.07" width="0.67" height="4.88" fill="#4c3b20"/><rect x="81.25" y="75.73" width="1.29" height="5.57" fill="#4c3b20"/><rect x="81.56" y="76.07" width="0.67" height="4.88" fill="#4c3b20"/><rect x="77.03" y="76.07" width="1.67" height="4.88" fill="#4c3b20"/><rect x="79.16" y="76.07" width="1.67" height="4.88" fill="#4c3b20"/><rect x="75.33" y="75.56" width="7.21" height="0.16" fill="#58595b"/><rect x="75.27" y="72.71" width="7.31" height="0.22" fill="#a6a8ab"/><rect x="75.33" y="81.29" width="7.21" height="0.16" fill="#58595b"/><rect x="76.61" y="72.93" width="4.64" height="2.63" fill="#e6e7e8"/><rect x="77.08" y="73.52" width="1.57" height="1.46" fill="#4c3b20"/><rect x="79.2" y="73.52" width="1.57" height="1.46" fill="#4c3b20"/><rect x="75.33" y="72.93" width="1.29" height="2.63" fill="#d0d2d3"/><rect x="75.52" y="73.52" width="0.38" height="1.46" fill="#58595b"/><rect x="76.04" y="73.52" width="0.38" height="1.46" fill="#58595b"/><rect x="81.24" y="72.93" width="1.29" height="2.63" fill="#d0d2d3"/><rect x="81.43" y="73.52" width="0.38" height="1.46" fill="#58595b"/><rect x="81.95" y="73.52" width="0.38" height="1.46" fill="#58595b"/><rect x="76.61" y="81.46" width="4.64" height="1" fill="#e6e7e8"/><rect x="77.18" y="81.68" width="0.38" height="0.55" fill="#58595b"/><rect x="77.7" y="81.68" width="0.38" height="0.55" fill="#58595b"/><rect x="78.22" y="81.68" width="0.38" height="0.55" fill="#58595b"/><rect x="78.74" y="81.68" width="0.38" height="0.55" fill="#58595b"/><rect x="79.26" y="81.68" width="0.38" height="0.55" fill="#58595b"/><rect x="79.78" y="81.68" width="0.38" height="0.55" fill="#58595b"/><rect x="80.3" y="81.68" width="0.38" height="0.55" fill="#58595b"/><rect x="75.33" y="81.46" width="1.29" height="1" fill="#d0d2d3"/><rect x="75.52" y="81.68" width="0.38" height="0.55" fill="#58595b"/><rect x="76.04" y="81.68" width="0.38" height="0.55" fill="#58595b"/><rect x="81.24" y="81.46" width="1.29" height="1" fill="#d0d2d3"/><rect x="81.43" y="81.68" width="0.38" height="0.55" fill="#58595b"/><rect x="81.95" y="81.68" width="0.38" height="0.55" fill="#58595b"/><rect x="66.33" y="74.99" width="7.82" height="8.35" fill="#4c3b20"/><rect x="66.33" y="68.69" width="7.82" height="5.98" fill="#725d3b"/><rect x="66.33" y="83.34" width="7.82" height="0.19" fill="#bbbdbf"/><rect x="66.33" y="83.53" width="7.82" height="0.19" fill="#6d6e70"/><rect x="66.33" y="74.67" width="7.82" height="0.16" fill="#bbbdbf"/><rect x="66.33" y="74.83" width="7.82" height="0.16" fill="#6d6e70"/><rect x="66.27" y="67.78" width="7.88" height="0.26" fill="#808184"/><rect x="66" y="68.04" width="8.15" height="0.26" fill="#e6e7e8"/><rect x="66.19" y="68.42" width="7.96" height="0.26" fill="#d0d2d3"/><rect x="66.12" y="68.31" width="8.03" height="0.12" fill="#58595b"/><rect x="66.27" y="67.5" width="7.88" height="0.12" fill="#d0d2d3"/><rect x="66.27" y="67.62" width="7.88" height="0.16" fill="#bbbdbf"/><rect x="68.62" y="65.92" width="0.82" height="0.55" fill="#e6e7e8"/><rect x="68.62" y="66.7" width="0.82" height="1.34" fill="#e6e7e8"/><rect x="68.7" y="66.47" width="0.67" height="0.23" fill="#58595b"/><rect x="66.27" y="65.92" width="0.82" height="0.55" fill="#e6e7e8"/><rect x="66.27" y="66.7" width="0.82" height="1.34" fill="#e6e7e8"/><rect x="66.35" y="66.47" width="0.67" height="0.23" fill="#58595b"/><rect x="67.58" y="66.63" width="0.55" height="0.37" fill="#e6e7e8"/><rect x="67.58" y="67.15" width="0.55" height="0.89" fill="#e6e7e8"/><rect x="67.64" y="67" width="0.45" height="0.15" fill="#58595b"/><rect x="70.97" y="65.92" width="0.82" height="0.55" fill="#e6e7e8"/><rect x="70.97" y="66.7" width="0.82" height="1.34" fill="#e6e7e8"/><rect x="71.05" y="66.47" width="0.67" height="0.23" fill="#58595b"/><rect x="73.33" y="65.92" width="0.82" height="0.55" fill="#e6e7e8"/><rect x="73.33" y="66.7" width="0.82" height="1.34" fill="#e6e7e8"/><rect x="73.4" y="66.47" width="0.67" height="0.23" fill="#58595b"/><rect x="69.94" y="66.63" width="0.55" height="0.37" fill="#e6e7e8"/><rect x="69.94" y="67.15" width="0.55" height="0.89" fill="#e6e7e8"/><rect x="69.99" y="67" width="0.45" height="0.15" fill="#58595b"/><rect x="72.29" y="66.63" width="0.55" height="0.37" fill="#e6e7e8"/><rect x="72.29" y="67.15" width="0.55" height="0.89" fill="#e6e7e8"/><rect x="72.34" y="67" width="0.45" height="0.15" fill="#58595b"/><path d="M72.7,70.9c-.14-1.29-1.44-1.29-1.58,0v2.47H72.7Z" fill="#58595b"/><path d="M72.57,71c-.12-1.17-1.21-1.17-1.33,0v2.26h1.33Z" fill="#f1f1f2"/><rect x="70.94" y="73.63" width="1.93" height="0.21" fill="#58595b"/><path d="M73.09,69.91a2.42,2.42,0,0,0-2.36,0v-.19a2.42,2.42,0,0,1,2.36,0Z" fill="#58595b"/><path d="M69.39,70.9c-.14-1.29-1.44-1.29-1.58,0v2.47h1.58Z" fill="#58595b"/><path d="M69.26,71c-.11-1.17-1.21-1.17-1.33,0v2.26h1.33Z" fill="#f1f1f2"/><rect x="67.63" y="73.63" width="1.93" height="0.21" fill="#58595b"/><path d="M69.78,69.91a2.42,2.42,0,0,0-2.36,0v-.19a2.42,2.42,0,0,1,2.36,0Z" fill="#58595b"/><path d="M72.7,78.44c-.14-1.29-1.44-1.29-1.58,0v2.47H72.7Z" fill="#808184"/><path d="M72.57,78.5c-.12-1.17-1.21-1.17-1.33,0v2.26h1.33Z" fill="#f1f1f2"/><rect x="70.94" y="81.17" width="1.93" height="0.21" fill="#808184"/><path d="M73.09,77.45a2.42,2.42,0,0,0-2.36,0v-.19a2.42,2.42,0,0,1,2.36,0Z" fill="#808184"/><path d="M69.39,78.44c-.14-1.29-1.44-1.29-1.58,0v2.47h1.58Z" fill="#808184"/><path d="M69.26,78.5c-.11-1.17-1.21-1.17-1.33,0v2.26h1.33Z" fill="#f1f1f2"/><rect x="67.63" y="81.17" width="1.93" height="0.21" fill="#808184"/><path d="M69.78,77.45a2.42,2.42,0,0,0-2.36,0v-.19a2.42,2.42,0,0,1,2.36,0Z" fill="#808184"/><rect x="43.8" y="83.53" width="22.53" height="0.19" fill="#6d6e70"/><rect x="43.8" y="83.34" width="22.53" height="0.19" fill="#bbbdbf"/><rect x="44.07" y="83.15" width="22.03" height="0.19" fill="#e6e7e8"/><rect x="44.26" y="82.96" width="21.64" height="0.19" fill="#f1f1f2"/><rect x="53.29" y="79" width="3.58" height="3.95" fill="#e6e7e8"/><path d="M56.88,78.78a1.8,1.8,0,0,0-3.59,0Z" fill="#e6e7e8"/><path d="M56.55,78.78a1.47,1.47,0,0,0-2.93,0Z" fill="#58595b"/><rect x="53.64" y="79" width="2.88" height="3.95" fill="#58595b"/><rect x="53.17" y="78.78" width="3.83" height="0.22" fill="#f1f1f2"/><rect x="48.8" y="79" width="3.58" height="3.95" fill="#e6e7e8"/><path d="M52.39,78.78a1.8,1.8,0,0,0-3.59,0Z" fill="#e6e7e8"/><path d="M52.06,78.78a1.47,1.47,0,0,0-2.93,0Z" fill="#58595b"/><rect x="49.15" y="79" width="2.88" height="3.95" fill="#58595b"/><rect x="48.68" y="78.78" width="3.83" height="0.22" fill="#f1f1f2"/><rect x="62.27" y="79" width="3.58" height="3.95" fill="#e6e7e8"/><path d="M65.85,78.78a1.79,1.79,0,0,0-3.58,0Z" fill="#e6e7e8"/><path d="M65.53,78.78a1.47,1.47,0,0,0-2.94,0Z" fill="#58595b"/><rect x="62.62" y="79" width="2.88" height="3.95" fill="#58595b"/><rect x="62.15" y="78.78" width="3.83" height="0.22" fill="#f1f1f2"/><rect x="57.78" y="79" width="3.58" height="3.95" fill="#e6e7e8"/><path d="M61.36,78.78a1.79,1.79,0,0,0-3.58,0Z" fill="#e6e7e8"/><path d="M61,78.78a1.47,1.47,0,0,0-2.93,0Z" fill="#58595b"/><rect x="58.13" y="79" width="2.88" height="3.95" fill="#58595b"/><rect x="57.66" y="78.78" width="3.83" height="0.22" fill="#f1f1f2"/><rect x="44.31" y="79" width="3.58" height="3.95" fill="#e6e7e8"/><path d="M47.9,78.78a1.8,1.8,0,0,0-3.59,0Z" fill="#e6e7e8"/><path d="M47.57,78.78a1.47,1.47,0,0,0-2.93,0Z" fill="#58595b"/><rect x="44.66" y="79" width="2.88" height="3.95" fill="#58595b"/><rect x="44.19" y="78.78" width="3.83" height="0.22" fill="#f1f1f2"/><rect x="61.49" y="78.78" width="0.66" height="0.22" fill="#d0d2d3"/><rect x="57" y="78.78" width="0.66" height="0.22" fill="#d0d2d3"/><rect x="52.51" y="78.78" width="0.66" height="0.22" fill="#d0d2d3"/><rect x="48.02" y="78.78" width="0.66" height="0.22" fill="#d0d2d3"/><path d="M57.75,77.2a.42.42,0,0,1-.84,0,.42.42,0,0,1,.84,0Z" fill="#f1f1f2"/><path d="M62.24,77.2a.42.42,0,0,1-.84,0,.42.42,0,0,1,.84,0Z" fill="#f1f1f2"/><circle cx="52.84" cy="77.2" r="0.42" fill="#f1f1f2"/><circle cx="48.35" cy="77.2" r="0.42" fill="#f1f1f2"/><rect x="43.53" y="72.92" width="23.07" height="1.01" fill="#808184"/><rect x="43.38" y="72.76" width="23.37" height="0.17" fill="#f1f1f2"/><rect x="43.98" y="73.15" width="0.3" height="0.31" fill="#e6e7e8"/><rect x="44.59" y="73.15" width="0.3" height="0.31" fill="#e6e7e8"/><rect x="45.2" y="73.15" width="0.3" height="0.31" fill="#e6e7e8"/><rect x="45.8" y="73.15" width="0.3" height="0.31" fill="#e6e7e8"/><rect x="46.41" y="73.15" width="0.3" height="0.31" fill="#e6e7e8"/><rect x="47.02" y="73.15" width="0.3" height="0.31" fill="#e6e7e8"/><rect x="47.63" y="73.15" width="0.3" height="0.31" fill="#e6e7e8"/><rect x="48.24" y="73.15" width="0.3" height="0.31" fill="#e6e7e8"/><rect x="48.85" y="73.15" width="0.3" height="0.31" fill="#e6e7e8"/><rect x="49.46" y="73.15" width="0.3" height="0.31" fill="#e6e7e8"/><rect x="50.06" y="73.15" width="0.3" height="0.31" fill="#e6e7e8"/><rect x="50.67" y="73.15" width="0.3" height="0.31" fill="#e6e7e8"/><rect x="51.28" y="73.15" width="0.3" height="0.31" fill="#e6e7e8"/><rect x="51.89" y="73.15" width="0.3" height="0.31" fill="#e6e7e8"/><rect x="52.5" y="73.15" width="0.3" height="0.31" fill="#e6e7e8"/><rect x="53.11" y="73.15" width="0.3" height="0.31" fill="#e6e7e8"/><rect x="53.71" y="73.15" width="0.3" height="0.31" fill="#e6e7e8"/><rect x="54.32" y="73.15" width="0.3" height="0.31" fill="#e6e7e8"/><rect x="54.93" y="73.15" width="0.3" height="0.31" fill="#e6e7e8"/><rect x="55.54" y="73.15" width="0.3" height="0.31" fill="#e6e7e8"/><rect x="56.15" y="73.15" width="0.3" height="0.31" fill="#e6e7e8"/><rect x="56.76" y="73.15" width="0.3" height="0.31" fill="#e6e7e8"/><rect x="57.37" y="73.15" width="0.3" height="0.31" fill="#e6e7e8"/><rect x="57.97" y="73.15" width="0.3" height="0.31" fill="#e6e7e8"/><rect x="58.58" y="73.15" width="0.3" height="0.31" fill="#e6e7e8"/><rect x="59.19" y="73.15" width="0.3" height="0.31" fill="#e6e7e8"/><rect x="59.8" y="73.15" width="0.3" height="0.31" fill="#e6e7e8"/><rect x="60.41" y="73.15" width="0.3" height="0.31" fill="#e6e7e8"/><rect x="61.02" y="73.15" width="0.3" height="0.31" fill="#e6e7e8"/><rect x="61.62" y="73.15" width="0.3" height="0.31" fill="#e6e7e8"/><rect x="62.23" y="73.15" width="0.3" height="0.31" fill="#e6e7e8"/><rect x="62.84" y="73.15" width="0.3" height="0.31" fill="#e6e7e8"/><rect x="63.45" y="73.15" width="0.3" height="0.31" fill="#e6e7e8"/><rect x="64.06" y="73.15" width="0.3" height="0.31" fill="#e6e7e8"/><rect x="64.67" y="73.15" width="0.3" height="0.31" fill="#e6e7e8"/><rect x="65.27" y="73.15" width="0.3" height="0.31" fill="#e6e7e8"/><rect x="65.88" y="73.15" width="0.3" height="0.31" fill="#e6e7e8"/><rect x="49.25" y="63.87" width="11.67" height="1.32" fill="#a6a8ab"/><rect x="49.32" y="65.19" width="11.52" height="2.83" fill="#4c3b20"/><rect x="49.21" y="63.61" width="11.75" height="0.26" fill="#e6e7e8"/><rect x="46.22" y="68.96" width="17.73" height="3.79" fill="#4c3b20"/><rect x="45.72" y="68.73" width="18.72" height="0.24" fill="#f1f1f2"/><rect x="45.91" y="68.49" width="18.34" height="0.24" fill="#e6e7e8"/><rect x="46.53" y="68.26" width="17.12" height="0.24" fill="#d0d2d3"/><rect x="47.23" y="68.02" width="15.71" height="0.24" fill="#bbbdbf"/><polygon points="55.48 68.96 54.69 68.96 55.01 69.62 55.16 69.62 55.48 68.96" fill="#f1f1f2"/><rect x="55.01" y="68.96" width="0.15" height="3.61" fill="#f1f1f2"/><rect x="54.91" y="72.58" width="0.35" height="0.18" fill="#929497"/><rect x="53.38" y="71.47" width="1.62" height="0.14" fill="#f1f1f2"/><rect x="53.49" y="72.58" width="1.42" height="0.18" fill="#808184"/><rect x="53.38" y="71.61" width="1.62" height="0.96" fill="#a6a8ab"/><rect x="53.55" y="71.8" width="1.3" height="0.6" fill="#58595b"/><polygon points="53.7 68.96 52.91 68.96 53.24 69.62 53.38 69.62 53.7 68.96" fill="#f1f1f2"/><rect x="53.24" y="68.96" width="0.15" height="3.61" fill="#f1f1f2"/><rect x="53.13" y="72.58" width="0.35" height="0.18" fill="#929497"/><rect x="51.61" y="71.47" width="1.62" height="0.14" fill="#f1f1f2"/><rect x="51.71" y="72.58" width="1.42" height="0.18" fill="#808184"/><rect x="51.61" y="71.61" width="1.62" height="0.96" fill="#a6a8ab"/><rect x="51.78" y="71.8" width="1.3" height="0.6" fill="#58595b"/><polygon points="51.93 68.96 51.14 68.96 51.46 69.62 51.61 69.62 51.93 68.96" fill="#f1f1f2"/><rect x="51.46" y="68.96" width="0.15" height="3.61" fill="#f1f1f2"/><rect x="51.36" y="72.58" width="0.35" height="0.18" fill="#929497"/><rect x="49.84" y="71.47" width="1.62" height="0.14" fill="#f1f1f2"/><rect x="49.94" y="72.58" width="1.42" height="0.18" fill="#808184"/><rect x="49.84" y="71.61" width="1.62" height="0.96" fill="#a6a8ab"/><rect x="50" y="71.8" width="1.3" height="0.6" fill="#58595b"/><polygon points="50.16 68.96 49.37 68.96 49.69 69.62 49.84 69.62 50.16 68.96" fill="#f1f1f2"/><rect x="49.69" y="68.96" width="0.15" height="3.61" fill="#f1f1f2"/><rect x="49.59" y="72.58" width="0.35" height="0.18" fill="#929497"/><rect x="48.06" y="71.47" width="1.62" height="0.14" fill="#f1f1f2"/><rect x="48.17" y="72.58" width="1.42" height="0.18" fill="#808184"/><rect x="48.06" y="71.61" width="1.62" height="0.96" fill="#a6a8ab"/><rect x="48.23" y="71.8" width="1.3" height="0.6" fill="#58595b"/><polygon points="48.39 68.96 47.6 68.96 47.92 69.62 48.07 69.62 48.39 68.96" fill="#f1f1f2"/><rect x="47.92" y="68.96" width="0.15" height="3.61" fill="#f1f1f2"/><rect x="47.81" y="72.58" width="0.35" height="0.18" fill="#929497"/><rect x="46.29" y="71.47" width="1.62" height="0.14" fill="#f1f1f2"/><rect x="46.4" y="72.58" width="1.42" height="0.18" fill="#808184"/><rect x="46.29" y="71.61" width="1.62" height="0.96" fill="#a6a8ab"/><rect x="46.46" y="71.8" width="1.3" height="0.6" fill="#58595b"/><polygon points="64.34 68.96 63.55 68.96 63.87 69.62 64.02 69.62 64.34 68.96" fill="#f1f1f2"/><rect x="63.87" y="68.96" width="0.15" height="3.61" fill="#f1f1f2"/><rect x="63.77" y="72.58" width="0.35" height="0.18" fill="#929497"/><rect x="62.25" y="71.47" width="1.62" height="0.14" fill="#f1f1f2"/><rect x="62.35" y="72.58" width="1.42" height="0.18" fill="#808184"/><rect x="62.25" y="71.61" width="1.62" height="0.96" fill="#a6a8ab"/><rect x="62.41" y="71.8" width="1.3" height="0.6" fill="#58595b"/><polygon points="62.57 68.96 61.78 68.96 62.1 69.62 62.25 69.62 62.57 68.96" fill="#f1f1f2"/><rect x="62.1" y="68.96" width="0.15" height="3.61" fill="#f1f1f2"/><rect x="62" y="72.58" width="0.35" height="0.18" fill="#929497"/><rect x="60.48" y="71.47" width="1.62" height="0.14" fill="#f1f1f2"/><rect x="60.58" y="72.58" width="1.42" height="0.18" fill="#808184"/><rect x="60.48" y="71.61" width="1.62" height="0.96" fill="#a6a8ab"/><rect x="60.64" y="71.8" width="1.3" height="0.6" fill="#58595b"/><polygon points="60.8 68.96 60.01 68.96 60.33 69.62 60.48 69.62 60.8 68.96" fill="#f1f1f2"/><rect x="60.33" y="68.96" width="0.15" height="3.61" fill="#f1f1f2"/><rect x="60.22" y="72.58" width="0.35" height="0.18" fill="#929497"/><rect x="58.7" y="71.47" width="1.62" height="0.14" fill="#f1f1f2"/><rect x="58.81" y="72.58" width="1.42" height="0.18" fill="#808184"/><rect x="58.7" y="71.61" width="1.62" height="0.96" fill="#a6a8ab"/><rect x="58.87" y="71.8" width="1.3" height="0.6" fill="#58595b"/><polygon points="59.02 68.96 58.23 68.96 58.55 69.62 58.7 69.62 59.02 68.96" fill="#f1f1f2"/><rect x="58.55" y="68.96" width="0.15" height="3.61" fill="#f1f1f2"/><rect x="58.45" y="72.58" width="0.35" height="0.18" fill="#929497"/><rect x="56.93" y="71.47" width="1.62" height="0.14" fill="#f1f1f2"/><rect x="57.03" y="72.58" width="1.42" height="0.18" fill="#808184"/><rect x="56.93" y="71.61" width="1.62" height="0.96" fill="#a6a8ab"/><rect x="57.09" y="71.8" width="1.3" height="0.6" fill="#58595b"/><polygon points="57.25 68.96 56.46 68.96 56.78 69.62 56.93 69.62 57.25 68.96" fill="#f1f1f2"/><rect x="56.78" y="68.96" width="0.15" height="3.61" fill="#f1f1f2"/><rect x="56.68" y="72.58" width="0.35" height="0.18" fill="#929497"/><rect x="55.16" y="71.47" width="1.62" height="0.14" fill="#f1f1f2"/><rect x="55.26" y="72.58" width="1.42" height="0.18" fill="#808184"/><rect x="55.16" y="71.61" width="1.62" height="0.96" fill="#a6a8ab"/><rect x="55.32" y="71.8" width="1.3" height="0.6" fill="#58595b"/><polygon points="46.61 68.96 45.82 68.96 46.14 69.62 46.29 69.62 46.61 68.96" fill="#f1f1f2"/><rect x="46.14" y="68.96" width="0.15" height="3.61" fill="#f1f1f2"/><rect x="46.04" y="72.58" width="0.35" height="0.18" fill="#929497"/><rect x="54.94" y="59.9" width="0.28" height="2.49" fill="#725d3b"/><rect x="49.18" y="63.32" width="11.81" height="0.15" fill="#f1f1f2"/><rect x="48.95" y="63.47" width="12.28" height="0.15" fill="#6d6e70"/><rect x="49.3" y="63.17" width="11.57" height="0.15" fill="#e6e7e8"/><rect x="49.68" y="63.03" width="10.8" height="0.15" fill="#d0d2d3"/><polygon points="60.04 62.88 55.08 62.11 50.13 62.88 50.13 63.02 60.04 63.02 60.04 62.88" fill="#4c3b20"/><path d="M55.66,66.34a.59.59,0,0,0-1.15,0v1.22h1.15Z" fill="#58595b"/><path d="M55.57,66.37a.49.49,0,0,0-1,0v1.12h1Z" fill="#f1f1f2"/><rect x="54.38" y="67.69" width="1.41" height="0.1" fill="#58595b"/><path d="M55.94,65.85a2.54,2.54,0,0,0-1.72,0v-.09a2.54,2.54,0,0,1,1.72,0Z" fill="#58595b"/><path d="M51.67,66.34a.59.59,0,0,0-1.15,0v1.22h1.15Z" fill="#58595b"/><path d="M51.58,66.37a.49.49,0,0,0-1,0v1.12h1Z" fill="#f1f1f2"/><rect x="50.39" y="67.69" width="1.41" height="0.1" fill="#58595b"/><path d="M52,65.85a2.54,2.54,0,0,0-1.72,0v-.09a2.54,2.54,0,0,1,1.72,0Z" fill="#58595b"/><path d="M59.65,66.34a.59.59,0,0,0-1.15,0v1.22h1.15Z" fill="#58595b"/><path d="M59.56,66.37a.49.49,0,0,0-1,0v1.12h1Z" fill="#f1f1f2"/><rect x="58.37" y="67.69" width="1.41" height="0.1" fill="#58595b"/><path d="M59.93,65.85a2.51,2.51,0,0,0-1.71,0v-.09a2.51,2.51,0,0,1,1.71,0Z" fill="#58595b"/><path d="M55.9,64.33c0-.41-.43-.41-.43,0v.86h.43Z" fill="#58595b"/><path d="M56.5,64.33c0-.41-.43-.41-.43,0v.86h.43Z" fill="#58595b"/><path d="M57.1,64.33c0-.41-.42-.41-.42,0v.86h.42Z" fill="#58595b"/><path d="M57.7,64.33c0-.41-.42-.41-.42,0v.86h.42Z" fill="#58595b"/><path d="M58.31,64.33c0-.41-.43-.41-.43,0v.86h.43Z" fill="#58595b"/><path d="M58.91,64.33c0-.41-.43-.41-.43,0v.86h.43Z" fill="#58595b"/><path d="M59.51,64.33c0-.41-.43-.41-.43,0v.86h.43Z" fill="#58595b"/><path d="M60.11,64.33c0-.41-.42-.41-.42,0v.86h.42Z" fill="#58595b"/><path d="M60.71,64.33c0-.41-.42-.41-.42,0v.86h.42Z" fill="#58595b"/><path d="M49.88,64.33c0-.41-.43-.41-.43,0v.86h.43Z" fill="#58595b"/><path d="M50.48,64.33c0-.41-.43-.41-.43,0v.86h.43Z" fill="#58595b"/><path d="M51.08,64.33c0-.41-.42-.41-.42,0v.86h.42Z" fill="#58595b"/><path d="M51.68,64.33c0-.41-.42-.41-.42,0v.86h.42Z" fill="#58595b"/><path d="M52.29,64.33c0-.41-.43-.41-.43,0v.86h.43Z" fill="#58595b"/><path d="M52.89,64.33c0-.41-.43-.41-.43,0v.86h.43Z" fill="#58595b"/><path d="M53.49,64.33c0-.41-.43-.41-.43,0v.86h.43Z" fill="#58595b"/><path d="M54.09,64.33c0-.41-.42-.41-.42,0v.86h.42Z" fill="#58595b"/><path d="M54.69,64.33c0-.41-.42-.41-.42,0v.86h.42Z" fill="#58595b"/><path d="M55.3,64.33c0-.41-.43-.41-.43,0v.86h.43Z" fill="#58595b"/><rect x="26.74" y="67.44" width="10.33" height="0.2" fill="#e6e7e8"/><rect x="26.74" y="67.73" width="10.33" height="0.2" fill="#d0d2d3"/><rect x="26.74" y="67.64" width="10.33" height="0.09" fill="#58595b"/><rect x="26.74" y="67.24" width="10.33" height="0.2" fill="#808184"/><rect x="26.74" y="67.03" width="10.33" height="0.09" fill="#d0d2d3"/><rect x="26.74" y="67.12" width="10.33" height="0.12" fill="#bbbdbf"/><rect x="32.53" y="65.84" width="0.67" height="0.42" fill="#e6e7e8"/><rect x="32.53" y="66.43" width="0.67" height="1.01" fill="#e6e7e8"/><rect x="32.6" y="66.26" width="0.55" height="0.17" fill="#58595b"/><rect x="30.6" y="65.84" width="0.67" height="0.42" fill="#e6e7e8"/><rect x="30.6" y="66.43" width="0.67" height="1.01" fill="#e6e7e8"/><rect x="30.66" y="66.26" width="0.55" height="0.17" fill="#58595b"/><rect x="31.68" y="66.38" width="0.45" height="0.28" fill="#e6e7e8"/><rect x="31.68" y="66.77" width="0.45" height="0.67" fill="#e6e7e8"/><rect x="31.72" y="66.65" width="0.37" height="0.12" fill="#58595b"/><rect x="34.46" y="65.84" width="0.67" height="0.42" fill="#e6e7e8"/><rect x="34.46" y="66.43" width="0.67" height="1.01" fill="#e6e7e8"/><rect x="34.53" y="66.26" width="0.55" height="0.17" fill="#58595b"/><rect x="36.39" y="65.84" width="0.67" height="0.42" fill="#e6e7e8"/><rect x="36.39" y="66.43" width="0.67" height="1.01" fill="#e6e7e8"/><rect x="36.46" y="66.26" width="0.55" height="0.17" fill="#58595b"/><rect x="33.61" y="66.38" width="0.45" height="0.28" fill="#e6e7e8"/><rect x="33.61" y="66.77" width="0.45" height="0.67" fill="#e6e7e8"/><rect x="33.65" y="66.65" width="0.37" height="0.12" fill="#58595b"/><rect x="35.54" y="66.38" width="0.45" height="0.28" fill="#e6e7e8"/><rect x="35.54" y="66.77" width="0.45" height="0.67" fill="#e6e7e8"/><rect x="35.58" y="66.65" width="0.37" height="0.12" fill="#58595b"/><rect x="26.74" y="65.84" width="0.67" height="0.42" fill="#e6e7e8"/><rect x="26.74" y="66.43" width="0.67" height="1.01" fill="#e6e7e8"/><rect x="26.8" y="66.26" width="0.55" height="0.17" fill="#58595b"/><rect x="28.67" y="65.84" width="0.67" height="0.42" fill="#e6e7e8"/><rect x="28.67" y="66.43" width="0.67" height="1.01" fill="#e6e7e8"/><rect x="28.73" y="66.26" width="0.55" height="0.17" fill="#58595b"/><rect x="27.82" y="66.38" width="0.45" height="0.28" fill="#e6e7e8"/><rect x="27.82" y="66.77" width="0.45" height="0.67" fill="#e6e7e8"/><rect x="27.86" y="66.65" width="0.37" height="0.12" fill="#58595b"/><rect x="29.75" y="66.38" width="0.45" height="0.28" fill="#e6e7e8"/><rect x="29.75" y="66.77" width="0.45" height="0.67" fill="#e6e7e8"/><rect x="29.79" y="66.65" width="0.37" height="0.12" fill="#58595b"/><rect x="27.67" y="67.92" width="8.46" height="4.52" fill="#4c3b20"/><polygon points="36.61 67.92 35.66 67.92 36.05 68.7 36.22 68.7 36.61 67.92" fill="#f1f1f2"/><rect x="36.05" y="67.92" width="0.18" height="4.3" fill="#f1f1f2"/><rect x="35.92" y="72.23" width="0.42" height="0.21" fill="#929497"/><rect x="34.11" y="70.91" width="1.94" height="0.17" fill="#f1f1f2"/><rect x="34.23" y="72.23" width="1.69" height="0.21" fill="#808184"/><rect x="34.11" y="71.08" width="1.94" height="1.15" fill="#a6a8ab"/><rect x="34.3" y="71.3" width="1.55" height="0.71" fill="#58595b"/><polygon points="34.49 67.92 33.55 67.92 33.93 68.7 34.11 68.7 34.49 67.92" fill="#f1f1f2"/><rect x="33.93" y="67.92" width="0.18" height="4.3" fill="#f1f1f2"/><rect x="33.81" y="72.23" width="0.42" height="0.21" fill="#929497"/><rect x="31.99" y="70.91" width="1.94" height="0.17" fill="#f1f1f2"/><rect x="32.11" y="72.23" width="1.69" height="0.21" fill="#808184"/><rect x="31.99" y="71.08" width="1.94" height="1.15" fill="#a6a8ab"/><rect x="32.19" y="71.3" width="1.55" height="0.71" fill="#58595b"/><polygon points="32.37 67.92 31.43 67.92 31.81 68.7 31.99 68.7 32.37 67.92" fill="#f1f1f2"/><rect x="31.81" y="67.92" width="0.18" height="4.3" fill="#f1f1f2"/><rect x="31.69" y="72.23" width="0.42" height="0.21" fill="#929497"/><rect x="29.88" y="70.91" width="1.94" height="0.17" fill="#f1f1f2"/><rect x="30" y="72.23" width="1.69" height="0.21" fill="#808184"/><rect x="29.88" y="71.08" width="1.94" height="1.15" fill="#a6a8ab"/><rect x="30.07" y="71.3" width="1.55" height="0.71" fill="#58595b"/><polygon points="30.26 67.92 29.32 67.92 29.7 68.7 29.88 68.7 30.26 67.92" fill="#f1f1f2"/><rect x="29.7" y="67.92" width="0.18" height="4.3" fill="#f1f1f2"/><rect x="29.58" y="72.23" width="0.42" height="0.21" fill="#929497"/><rect x="27.76" y="70.91" width="1.94" height="0.17" fill="#f1f1f2"/><rect x="27.89" y="72.23" width="1.69" height="0.21" fill="#808184"/><rect x="27.76" y="71.08" width="1.94" height="1.15" fill="#a6a8ab"/><rect x="27.96" y="71.3" width="1.55" height="0.71" fill="#58595b"/><polygon points="28.15 67.92 27.2 67.92 27.59 68.7 27.76 68.7 28.15 67.92" fill="#f1f1f2"/><rect x="27.59" y="67.92" width="0.18" height="4.3" fill="#f1f1f2"/><rect x="27.46" y="72.23" width="0.42" height="0.21" fill="#929497"/><rect x="26.74" y="83.55" width="10.33" height="0.18" fill="#6d6e70"/><rect x="26.74" y="83.37" width="10.33" height="0.18" fill="#bbbdbf"/><rect x="26.74" y="73.63" width="10.33" height="0.18" fill="#58595b"/><rect x="26.74" y="73.45" width="10.33" height="0.18" fill="#bbbdbf"/><path d="M35.46,82.72v-.15h-.07v-.15h.07v-.15h-.07V78.51h.07v-.14h-.07v-.15h.07v-.15h-.23v-.24h.15v-.15h-.3V77.5h.19v-.56l0,0,0,0-.11-.09a6,6,0,0,0-1-.64L33.83,76,33.7,76l-.13,0L33,75.69l-.58-.17a2.69,2.69,0,0,0-.5-.08,2.66,2.66,0,0,0-.51.08l-.58.17-.58.21-.13,0L30,76l-.26.13a6.44,6.44,0,0,0-1,.64l-.1.09-.05,0,0,0h0v.56h.19v.18h-.3v.15h.15v.24h-.23v.15h.07v.15h-.07v.14h.07v3.76h-.07v.15h.07v.15h-.07v.15h.07v.65h7v-.65Z" fill="#4c3b20"/><path d="M26.74,73.81v9.56h.91v-.65h.07v-.15h-.07v-.15h.07v-.15h-.07V78.51h.07v-.14h-.07v-.15h.07v-.15h-.23v-.24h.15v-.15h-.3V77.5h.19v-.72a.8.8,0,0,1,.28-.54l.05,0,0,0L28,76.1,28.1,76a7.82,7.82,0,0,1,1.15-.75l.31-.15.16-.07.16-.07.62-.22a6.36,6.36,0,0,1,.66-.19,2.58,2.58,0,0,1,1.49,0,6.36,6.36,0,0,1,.66.19l.62.22.16.07.16.07.31.15a7.82,7.82,0,0,1,1.15.75l.14.11.07.07,0,0,0,0a.8.8,0,0,1,.28.54v.72h.19v.18h-.3v.15h.15v.24h-.23v.15h.07v.15h-.07v.14h.07v3.76h-.07v.15h.07v.15h-.07v.15h.07v.65h.91V73.81Z" fill="#634f2b"/><polygon points="28.35 82.72 27.72 82.72 27.65 82.72 27.65 83.37 28.42 83.37 28.42 82.72 28.35 82.72" fill="#f2f2f2"/><polygon points="28.42 82.57 28.42 82.42 28.35 82.42 27.72 82.42 27.65 82.42 27.65 82.57 27.72 82.57 28.35 82.57 28.42 82.57" fill="#f2f2f2"/><polygon points="28.42 82.27 28.42 78.52 28.35 78.52 27.72 78.52 27.65 78.52 27.65 82.27 27.72 82.27 28.35 82.27 28.42 82.27" fill="#f2f2f2"/><polygon points="28.58 78.07 28.58 77.83 28.43 77.83 27.64 77.83 27.49 77.83 27.49 78.07 27.72 78.07 28.35 78.07 28.58 78.07" fill="#f2f2f2"/><polygon points="28.73 77.69 28.73 77.5 28.54 77.5 28.37 77.5 28.29 77.5 28.13 77.5 28.04 77.5 27.75 77.5 27.67 77.5 27.53 77.5 27.34 77.5 27.34 77.69 27.64 77.69 28.43 77.69 28.73 77.69" fill="#f2f2f2"/><rect x="27.72" y="82.57" width="0.63" height="0.15" fill="#4d4d4d"/><rect x="27.72" y="82.27" width="0.63" height="0.15" fill="#4d4d4d"/><polygon points="28.42 78.37 28.42 78.22 28.35 78.22 27.72 78.22 27.65 78.22 27.65 78.37 27.72 78.37 28.35 78.37 28.42 78.37" fill="#f2f2f2"/><rect x="27.72" y="78.37" width="0.63" height="0.15" fill="#4d4d4d"/><rect x="27.72" y="78.07" width="0.63" height="0.15" fill="#4d4d4d"/><rect x="27.64" y="77.68" width="0.8" height="0.15" fill="#4d4d4d"/><path d="M27.67,76.81a.69.69,0,0,1,.25-.47l.07-.07.07-.06.13-.11a7.51,7.51,0,0,1,1.13-.73,5.83,5.83,0,0,1,.62-.28l.61-.22c.21-.07.42-.14.64-.19a3.13,3.13,0,0,1,.72-.1v-.15a3.13,3.13,0,0,0-.75.11,6.36,6.36,0,0,0-.66.19l-.62.22-.16.07-.16.07-.31.15A7.82,7.82,0,0,0,28.1,76L28,76.1l-.07.07,0,0-.05,0a.8.8,0,0,0-.28.54v.72h.14Z" fill="#f2f2f2"/><path d="M27.77,76.7a.37.37,0,0,1,.05-.11A1.39,1.39,0,0,1,28,76.4l.14-.13.13-.1a7.33,7.33,0,0,1,1.11-.73c.2-.1.41-.2.61-.28l.62-.22c.2-.06.41-.13.63-.18a3,3,0,0,1,.7-.1v-.08a3.13,3.13,0,0,0-.72.1c-.22,0-.43.12-.64.19l-.61.22a5.83,5.83,0,0,0-.62.28,7.51,7.51,0,0,0-1.13.73l-.13.11-.07.06-.07.07a.69.69,0,0,0-.25.47v.69h.09v-.68A.49.49,0,0,1,27.77,76.7Z" fill="gray"/><path d="M28,76.79a.16.16,0,0,1,0-.07,1.27,1.27,0,0,1,.1-.12l.24-.21a7,7,0,0,1,1.07-.69,7.12,7.12,0,0,1,1.18-.48,6.13,6.13,0,0,1,.61-.18,2.59,2.59,0,0,1,.63-.09v-.29a3,3,0,0,0-.7.1c-.22,0-.43.12-.63.18l-.62.22c-.2.08-.41.18-.61.28a7.33,7.33,0,0,0-1.11.73l-.13.1L28,76.4a1.39,1.39,0,0,0-.15.19.37.37,0,0,0-.05.11.49.49,0,0,0,0,.12v.68H28v-.71Z" fill="#f2f2f2"/><path d="M28.13,76.81a.14.14,0,0,1,0-.06l.09-.09.23-.21a7.35,7.35,0,0,1,1.06-.68,3.68,3.68,0,0,1,.57-.26,5.89,5.89,0,0,1,.59-.21,6.13,6.13,0,0,1,.61-.18,2.57,2.57,0,0,1,.61-.09V75a2.59,2.59,0,0,0-.63.09,6.13,6.13,0,0,0-.61.18,7.12,7.12,0,0,0-1.18.48,7,7,0,0,0-1.07.69l-.24.21a1.27,1.27,0,0,0-.1.12.16.16,0,0,0,0,.07v.71h.09v-.62S28.12,76.83,28.13,76.81Z" fill="gray"/><path d="M28.36,76.77l.1-.09.12-.1a6.36,6.36,0,0,1,1-.66,4,4,0,0,1,.56-.25l.59-.22.59-.17a2.33,2.33,0,0,1,.57-.09V75a2.57,2.57,0,0,0-.61.09,6.13,6.13,0,0,0-.61.18,5.89,5.89,0,0,0-.59.21,3.68,3.68,0,0,0-.57.26,7.35,7.35,0,0,0-1.06.68l-.23.21-.09.09a.14.14,0,0,0,0,.06s0,0,0,.07v.62h.16v-.6C28.28,76.85,28.33,76.81,28.36,76.77Z" fill="#f2f2f2"/><path d="M31.36,75.36l-.59.17-.59.21a3.76,3.76,0,0,0-.54.25,6.74,6.74,0,0,0-1,.66l-.11.09-.06.05,0,0s-.06,0-.05.09v.58h.17v-.56h0l0,0,.05,0,.1-.09a6.44,6.44,0,0,1,1-.64L30,76l.13-.06.13,0,.58-.21.58-.17a2.66,2.66,0,0,1,.51-.08v-.17A2.86,2.86,0,0,0,31.36,75.36Z" fill="#f2f2f2"/><path d="M28.42,76.83l0,0,.06-.05.11-.09a6.74,6.74,0,0,1,1-.66,3.76,3.76,0,0,1,.54-.25l.59-.21.59-.17a2.86,2.86,0,0,1,.55-.09v-.08a2.33,2.33,0,0,0-.57.09l-.59.17-.59.22a4,4,0,0,0-.56.25,6.36,6.36,0,0,0-1,.66l-.12.1-.1.09s-.08.08-.07.13v.6h.08v-.58S28.4,76.85,28.42,76.83Z" fill="gray"/><polygon points="36.09 82.72 35.46 82.72 35.39 82.72 35.39 83.37 36.16 83.37 36.16 82.72 36.09 82.72" fill="#f2f2f2"/><polygon points="35.39 82.42 35.39 82.57 35.46 82.57 36.09 82.57 36.16 82.57 36.16 82.42 36.09 82.42 35.46 82.42 35.39 82.42" fill="#f2f2f2"/><polygon points="35.39 78.52 35.39 82.27 35.46 82.27 36.09 82.27 36.16 82.27 36.16 78.52 36.09 78.52 35.46 78.52 35.39 78.52" fill="#f2f2f2"/><polygon points="35.23 77.83 35.23 78.07 35.46 78.07 36.09 78.07 36.32 78.07 36.32 77.83 36.17 77.83 35.38 77.83 35.23 77.83" fill="#f2f2f2"/><polygon points="36.05 77.5 35.77 77.5 35.69 77.5 35.52 77.5 35.44 77.5 35.27 77.5 35.08 77.5 35.08 77.69 35.38 77.69 36.17 77.69 36.47 77.69 36.47 77.5 36.28 77.5 36.14 77.5 36.05 77.5" fill="#f2f2f2"/><rect x="35.46" y="82.57" width="0.63" height="0.15" fill="#4d4d4d"/><rect x="35.46" y="82.27" width="0.63" height="0.15" fill="#4d4d4d"/><polygon points="35.39 78.22 35.39 78.37 35.46 78.37 36.09 78.37 36.16 78.37 36.16 78.22 36.09 78.22 35.46 78.22 35.39 78.22" fill="#f2f2f2"/><rect x="35.46" y="78.37" width="0.63" height="0.15" fill="#4d4d4d"/><rect x="35.46" y="78.07" width="0.63" height="0.15" fill="#4d4d4d"/><rect x="35.38" y="77.68" width="0.8" height="0.15" fill="#4d4d4d"/><path d="M32.62,74.68c.22,0,.43.12.64.19l.62.22c.2.08.42.18.62.28a8,8,0,0,1,1.12.73l.13.11.07.06.07.07a.69.69,0,0,1,.25.47v.69h.14v-.72a.8.8,0,0,0-.28-.54l0,0,0,0-.07-.07L35.71,76a7.82,7.82,0,0,0-1.15-.75l-.31-.15L34.09,75,33.93,75l-.62-.22a6.36,6.36,0,0,0-.66-.19,3.12,3.12,0,0,0-.74-.11v.15A3.12,3.12,0,0,1,32.62,74.68Z" fill="#f2f2f2"/><path d="M32.6,74.76c.22,0,.43.12.63.18l.62.22c.2.08.41.18.61.28a7.33,7.33,0,0,1,1.11.73l.13.1.14.13a1.39,1.39,0,0,1,.15.19.37.37,0,0,1,0,.11.49.49,0,0,1,0,.12v.68h.08v-.69a.69.69,0,0,0-.25-.47l-.07-.07-.07-.06-.13-.11a8,8,0,0,0-1.12-.73c-.2-.1-.42-.2-.62-.28l-.62-.22c-.21-.07-.42-.14-.64-.19a3.12,3.12,0,0,0-.71-.1v.08A3,3,0,0,1,32.6,74.76Z" fill="gray"/><path d="M36,76.7a.37.37,0,0,0,0-.11,1.39,1.39,0,0,0-.15-.19l-.14-.13-.13-.1a7.33,7.33,0,0,0-1.11-.73c-.2-.1-.41-.2-.61-.28l-.62-.22c-.2-.06-.41-.13-.63-.18a3,3,0,0,0-.69-.1V75a2.58,2.58,0,0,1,.62.09,6.13,6.13,0,0,1,.61.18,7.12,7.12,0,0,1,1.18.48,7,7,0,0,1,1.07.69l.24.21a1.27,1.27,0,0,1,.1.12.16.16,0,0,1,0,.07v.71h.29v-.68A.49.49,0,0,0,36,76.7Z" fill="#f2f2f2"/><path d="M35.77,76.79a.16.16,0,0,0,0-.07,1.27,1.27,0,0,0-.1-.12l-.24-.21a7,7,0,0,0-1.07-.69,7.12,7.12,0,0,0-1.18-.48,6.13,6.13,0,0,0-.61-.18,2.58,2.58,0,0,0-.62-.09V75a2.57,2.57,0,0,1,.6.09,6.13,6.13,0,0,1,.61.18,5.89,5.89,0,0,1,.59.21,3.68,3.68,0,0,1,.57.26,7.35,7.35,0,0,1,1.06.68l.23.21.09.09a.14.14,0,0,1,0,.06.17.17,0,0,1,0,.07v.62h.08v-.71Z" fill="gray"/><path d="M35.68,76.81a.14.14,0,0,0,0-.06l-.09-.09-.23-.21a7.35,7.35,0,0,0-1.06-.68,3.68,3.68,0,0,0-.57-.26,5.89,5.89,0,0,0-.59-.21,6.13,6.13,0,0,0-.61-.18,2.57,2.57,0,0,0-.6-.09v.16a2.33,2.33,0,0,1,.56.09l.6.17.58.22a3.53,3.53,0,0,1,.56.25,6.36,6.36,0,0,1,1,.66l.12.1.1.09s.08.08.07.13v.6h.17v-.62A.17.17,0,0,0,35.68,76.81Z" fill="#f2f2f2"/><path d="M35.44,76.92s0-.07,0-.09l0,0-.06-.05-.11-.09a6.74,6.74,0,0,0-1-.66,3.76,3.76,0,0,0-.54-.25L33,75.53l-.59-.17a2.89,2.89,0,0,0-.54-.09v.17a2.69,2.69,0,0,1,.5.08l.58.17.58.21.13,0,.13.06.26.13a6,6,0,0,1,1,.64l.11.09,0,0,0,0v.56h.17Z" fill="#f2f2f2"/><path d="M35.45,76.77l-.1-.09-.12-.1a6.36,6.36,0,0,0-1-.66,3.53,3.53,0,0,0-.56-.25l-.58-.22-.6-.17a2.33,2.33,0,0,0-.56-.09v.08a2.89,2.89,0,0,1,.54.09l.59.17.59.21a3.76,3.76,0,0,1,.54.25,6.74,6.74,0,0,1,1,.66l.11.09.06.05,0,0s.06,0,0,.09v.58h.08v-.6C35.53,76.85,35.48,76.81,35.45,76.77Z" fill="gray"/></g></g></svg>