<svg xmlns="http://www.w3.org/2000/svg" xmlns:xlink="http://www.w3.org/1999/xlink" viewBox="0 0 111 111"><defs><linearGradient id="linear-gradient" x1="55.5" y1="1081.75" x2="55.5" y2="970.75" gradientTransform="matrix(1, 0, 0, -1, 0, 1081.75)" gradientUnits="userSpaceOnUse"><stop offset="0" stop-color="#8aa3e7"/><stop offset="1" stop-color="#b9b0e2"/></linearGradient></defs><g id="Layer_2" data-name="Layer 2"><g id="Layer_1-2" data-name="Layer 1"><circle cx="55.5" cy="55.5" r="53.5" stroke="#fff" stroke-width="4" fill="url(#linear-gradient)"/><path d="M80.9,44.1H95.4c.7-2-1.6-2.5-2.8-2.5-2.5-4.3-7.1-3.1-8.3,0C81.6,41.1,80.9,43.1,80.9,44.1Z" fill="#dddbe0"/><path d="M21,24.1H40.5c1-2.5-2.2-3.2-3.7-3.2-3.3-5.6-9.6-4-11.2,0C21.9,20.2,21,22.7,21,24.1Z" fill="#dddbe0"/><path d="M13.6,45.6h7.3c.4-1.1-.8-1.4-1.4-1.4-1.2-2.5-3.6-1.8-4.2,0A1.3,1.3,0,0,0,13.6,45.6Z" fill="#dddbe0"/><circle cx="26.8" cy="56.4" r="0.9" fill="#c4c4c4"/><circle cx="75.8" cy="39.5" r="0.6" fill="#c4c4c4"/><circle cx="70.3" cy="19.7" r="0.6" fill="#c4c4c4"/><circle cx="43.2" cy="16" r="0.6" fill="#c4c4c4"/><circle cx="24" cy="31.4" r="0.6" fill="#c4c4c4"/><path d="M40.9,57.6H73.2A10.6,10.6,0,0,1,81,61.2a12.8,12.8,0,0,1,3.2,8.7V93.7H27V73.1a16.62,16.62,0,0,1,4.1-11A13.47,13.47,0,0,1,40.9,57.6Z" fill="#dff7ff"/><path d="M73,62.6H69.2a.81.81,0,0,0-.7.9v.7a.81.81,0,0,0,.7.9H73a.81.81,0,0,0,.7-.9v-.7A.81.81,0,0,0,73,62.6Z" fill="#bde9f4"/><path d="M38.6,67H34.7a.77.77,0,0,0-.7.8v.6a.77.77,0,0,0,.7.8h3.9a.77.77,0,0,0,.7-.8v-.6A.71.71,0,0,0,38.6,67Z" fill="#bde9f4"/><path d="M42.4,60.9h-3c-.3,0-.5.5-.5,1.1v.8c0,.6.2,1.1.5,1.1h3c.3,0,.5-.5.5-1.1V62C43,61.4,42.7,60.9,42.4,60.9Z" fill="#bde9f4"/><path d="M80.6,60.5H76.8c-.4,0-.7.5-.7,1.1v.8c0,.6.3,1.1.7,1.1h3.8c.4,0,.7-.5.7-1.1v-.8C81.3,61,81,60.5,80.6,60.5Z" fill="#bde9f4"/><path d="M46.4,66H40.8a.77.77,0,0,0-.7.8v1.5a.77.77,0,0,0,.7.8h5.6a.77.77,0,0,0,.7-.8V66.8A.77.77,0,0,0,46.4,66Z" fill="#bde9f4"/><path d="M76.8,74.2H71.2a.77.77,0,0,0-.7.8v1.5a.77.77,0,0,0,.7.8h5.6a.77.77,0,0,0,.7-.8V75A.77.77,0,0,0,76.8,74.2Z" fill="#bde9f4"/><path d="M82,74.2H78.8c-.2,0-.4.3-.4.7v1.4c0,.4.2.7.4.7H82c.2,0,.4-.3.4-.7V74.9C82.4,74.6,82.3,74.2,82,74.2Z" fill="#bde9f4"/><path d="M58.1,54.8H54.2a.77.77,0,0,0-.7.8v.6a.77.77,0,0,0,.7.8h3.9a.77.77,0,0,0,.7-.8v-.6A.77.77,0,0,0,58.1,54.8Z" fill="#dff7ff"/><path d="M62.8,51.4H58.9a.77.77,0,0,0-.7.8v.6a.77.77,0,0,0,.7.8h3.9a.77.77,0,0,0,.7-.8v-.6A.77.77,0,0,0,62.8,51.4Z" fill="#dff7ff"/><path d="M36.4,99.1a1,1,0,0,1,1.1-.9H74.1a.92.92,0,1,1,0,1.8H37.5A1,1,0,0,1,36.4,99.1Z" fill="#b3b3b3" fill-rule="evenodd"/><path d="M32.3,98.3a1,1,0,0,1,1.1-.9H78.1a.92.92,0,1,1,0,1.8H33.4C32.7,99.2,32.3,98.8,32.3,98.3Z" fill="#ccc" fill-rule="evenodd"/><path d="M27,97.6a.77.77,0,0,1,.8-.7H83.5a.71.71,0,0,1,.8.7.77.77,0,0,1-.8.7H27.8C27.4,98.2,27,97.9,27,97.6Z" fill="#364066" fill-rule="evenodd"/><path d="M82.8,74.5H28v3.1H82.8Z" fill="none" stroke="#000" stroke-miterlimit="10" stroke-width="0.31"/><path d="M80.9,77.6H29.8V96.9H80.9Z" fill="#b5622a" stroke="#000" stroke-miterlimit="10" stroke-width="0.31"/><path d="M77.5,74.5H32.7L45.8,39.6H65.1Z" fill="#b5622a" stroke="#000" stroke-miterlimit="10" stroke-width="0.31"/><path d="M46.2,24V39.6h3.7V27.1Z" fill="#ffe35a" stroke="#000" stroke-miterlimit="10" stroke-width="0.29"/><path d="M64.8,24V39.6H61.1V27.1Z" fill="#ffe35a" stroke="#000" stroke-miterlimit="10" stroke-width="0.29"/><path d="M49.9,31.8h1.8s3.1-5.9,6.9,0h2.5v7.8H49.9Z" fill="#b5622a" stroke="#000" stroke-miterlimit="10" stroke-width="0.31"/><path d="M49.3,41.4H45.9v5h3.4Z" fill="#ffe35a" stroke="#000" stroke-miterlimit="10" stroke-width="0.29"/><path d="M49.3,46.4H45.9v5h3.4Z" fill="#72d1ed" stroke="#000" stroke-miterlimit="10" stroke-width="0.28"/><path d="M52.8,41.4H49.4v5h3.4Z" fill="#07748e" stroke="#000" stroke-miterlimit="10" stroke-width="0.28"/><path d="M64.9,55.1H61.5v5h3.4Z" fill="#ffe35a" stroke="#000" stroke-miterlimit="10" stroke-width="0.29"/><path d="M64.9,60.1H61.5v5h3.4Z" fill="#72d1ed" stroke="#000" stroke-miterlimit="10" stroke-width="0.28"/><path d="M68.3,55.1H64.9v5h3.4Z" fill="#07748e" stroke="#000" stroke-miterlimit="10" stroke-width="0.28"/><path d="M44.3,62.3H40.9v5h3.4Z" fill="#ffe35a" stroke="#000" stroke-miterlimit="10" stroke-width="0.29"/><path d="M44.3,67.3H40.9v5h3.4Z" fill="#72d1ed" stroke="#000" stroke-miterlimit="10" stroke-width="0.28"/><path d="M47.8,62.3H44.4v5h3.4Z" fill="#07748e" stroke="#000" stroke-miterlimit="10" stroke-width="0.28"/><path d="M34.6,69.4H75.7" fill="none" stroke="#000" stroke-miterlimit="10" stroke-width="0.28"/><path d="M37.2,62.3c0-.3,35.9,0,35.9,0" fill="none" stroke="#000" stroke-miterlimit="10" stroke-width="0.28"/><path d="M39.9,55.1H70.6" fill="none" stroke="#000" stroke-miterlimit="10" stroke-width="0.28"/><path d="M43.2,46.4h24" fill="none" stroke="#000" stroke-miterlimit="10" stroke-width="0.28"/><path d="M56,39.9H54.8V64.8H56Z" fill="#ff3600" stroke="#000" stroke-miterlimit="10" stroke-width="0.31"/><path d="M57.6,65.6H53.2v3.7h4.4Z" fill="#0d4049" stroke="#000" stroke-miterlimit="10" stroke-width="0.28"/><path d="M61.6,72H49.1v2.5H61.6Z" fill="#fff" stroke="#000" stroke-miterlimit="10" stroke-width="0.3"/><path d="M29.9,88.3H81" fill="none" stroke="#000" stroke-miterlimit="10" stroke-width="0.3"/><path d="M80.9,90.1H29.8" fill="none" stroke="#000" stroke-miterlimit="10" stroke-width="0.3"/><path d="M29.9,92.4H81" fill="none" stroke="#000" stroke-miterlimit="10" stroke-width="0.3"/><path d="M32.4,79.4v6.9h9.3V80.7h4.4v5.6" fill="none" stroke="#000" stroke-miterlimit="10" stroke-width="0.3"/><path d="M78.5,79.4v6.9H69.2V80.7H64.8v5.6" fill="none" stroke="#000" stroke-miterlimit="10" stroke-width="0.3"/><path d="M49.2,82.6h3.1V80.1h6.2v2.5h3.1V96.9H49.1V82.6Z" fill="#0d4049" stroke="#000" stroke-miterlimit="10" stroke-width="0.28"/><path d="M53.2,40.2h4.4s2.5-1.7-1.9-9C55.7,31.2,50.1,38.5,53.2,40.2Z" fill="#ff3600" stroke="#000" stroke-miterlimit="10" stroke-width="0.31"/><path d="M55.4,83.2a2.87,2.87,0,0,1,1.8.7,2.41,2.41,0,0,1,.7,1.8V96.9h-5V85.7a2.87,2.87,0,0,1,.7-1.8A2.57,2.57,0,0,1,55.4,83.2Z" fill="#3d8899" stroke="#000" stroke-miterlimit="10" stroke-width="0.28"/></g></g></svg>