<svg xmlns="http://www.w3.org/2000/svg" xmlns:xlink="http://www.w3.org/1999/xlink" viewBox="0 0 111 111"><defs><linearGradient id="linear-gradient" x1="55.5" y1="1081.75" x2="55.5" y2="970.75" gradientTransform="matrix(1, 0, 0, -1, 0, 1081.75)" gradientUnits="userSpaceOnUse"><stop offset="0" stop-color="#86bce6"/><stop offset="1" stop-color="#3e3eef"/></linearGradient></defs><g id="Layer_2" data-name="Layer 2"><g id="Layer_1-2" data-name="Layer 1"><circle cx="55.5" cy="55.5" r="53.5" stroke="#fff" stroke-width="4" fill="url(#linear-gradient)"/><path d="M82.9,36.38H97.4c.7-2-1.6-2.5-2.8-2.5-2.5-4.3-7.1-3.1-8.3,0C83.6,33.38,82.9,35.38,82.9,36.38Z" fill="#dddbe0"/><path d="M21,24.1H40.5c1-2.5-2.2-3.2-3.7-3.2-3.3-5.6-9.6-4-11.2,0C21.9,20.2,21,22.7,21,24.1Z" fill="#dddbe0"/><circle cx="75.8" cy="39.5" r="0.6" fill="#c4c4c4"/><circle cx="100.5" cy="62.9" r="0.6" fill="#c4c4c4"/><circle cx="70.3" cy="19.7" r="0.6" fill="#c4c4c4"/><circle cx="43.2" cy="16" r="0.6" fill="#c4c4c4"/><circle cx="24.1" cy="31.4" r="0.6" fill="#c4c4c4"/><path d="M76.6,41.2h-42C24.3,41.2,16,50.9,16,62.8v1.6C16,76.3,24.3,86,34.6,86h42c10.3,0,18.6-9.7,18.6-21.6V62.8C95.3,50.9,86.9,41.2,76.6,41.2Z" fill="#e2f8fe"/><path d="M28.2,64.2H20.7A1.8,1.8,0,0,0,19,66.1,1.87,1.87,0,0,0,20.7,68h7.5a1.91,1.91,0,0,0,0-3.8Z" fill="#c3eaf4"/><path d="M66.6,42.7H63.8A1.82,1.82,0,0,0,62,44.6a1.88,1.88,0,0,0,1.8,1.9h2.8a1.82,1.82,0,0,0,1.8-1.9A1.88,1.88,0,0,0,66.6,42.7Z" fill="#bfedfa"/><path d="M87.6,54H84.8A1.82,1.82,0,0,0,83,55.9a1.88,1.88,0,0,0,1.8,1.9h2.8a1.9,1.9,0,0,0,0-3.8Z" fill="#c3eaf4"/><path d="M88.85,72.37h.7A.45.45,0,0,0,90,71.9a.47.47,0,0,0-.45-.47h-.7a.47.47,0,0,0,0,.94Z" fill="#c3eaf4"/><path d="M23.56,61.77h1.28a.84.84,0,0,0,.82-.87.86.86,0,0,0-.82-.87H23.56a.87.87,0,0,0,0,1.74Z" fill="#c3eaf4"/><path d="M59.56,68.77h1.28a.84.84,0,0,0,.82-.87.86.86,0,0,0-.82-.87H59.56a.87.87,0,0,0,0,1.74Z" fill="#c3eaf4"/><path d="M59,36H54.3a2,2,0,0,0-1.8,2.2,2.14,2.14,0,0,0,1.8,2.3H59a2.07,2.07,0,0,0,1.8-2.3A2,2,0,0,0,59,36Z" fill="#bfedfa"/><path d="M65.4,36H63.8A2,2,0,0,0,62,38.2a2.14,2.14,0,0,0,1.8,2.3h1.6a2.07,2.07,0,0,0,1.8-2.3A2,2,0,0,0,65.4,36Z" fill="#c3eaf4"/><path d="M30.8,88.6a1.35,1.35,0,0,1,1.4-1.3H79.6a1.3,1.3,0,1,1,0,2.6H32.2A1.42,1.42,0,0,1,30.8,88.6Z" fill="#b3b3b3" fill-rule="evenodd"/><path d="M25.5,87.5a1.35,1.35,0,0,1,1.4-1.3H84.8a1.3,1.3,0,1,1,0,2.6H26.9A1.35,1.35,0,0,1,25.5,87.5Z" fill="#ccc" fill-rule="evenodd"/><path d="M18.7,86.5a1,1,0,0,1,1.1-.9H92a.92.92,0,1,1,0,1.8H19.8A1,1,0,0,1,18.7,86.5Z" fill="#364066" fill-rule="evenodd"/><g id="_35" data-name="35"><rect x="48.91" y="24.96" width="15.77" height="4.08" fill="#f3ece6"/><rect x="48.91" y="26.08" width="15.77" height="2.97" fill="#dfcebd"/><polygon points="51.94 25.12 56.8 23.38 61.66 25.12 51.94 25.12" fill="#f3ece6"/><rect x="41.58" y="26.82" width="30.43" height="20.79" fill="#f3ece6"/><rect x="41.58" y="32.26" width="30.43" height="15.34" fill="#dfcebd"/><rect x="37.13" y="33.5" width="39.34" height="14.1" fill="#f3ece6"/><rect x="37.13" y="35.73" width="39.34" height="11.88" fill="#dfcebd"/><rect x="32.92" y="38.2" width="47.76" height="9.41" fill="#f3ece6"/><rect x="32.92" y="41.91" width="47.76" height="5.69" fill="#dfcebd"/><path d="M81.85,46.86v38.6H63.23c0-2.87,0-5.38,0-7.58,0-8.72,0-12.62,0-14.54,0-.08,0-.15,0-.22A8,8,0,0,0,63,61.39a0,0,0,0,1,0,0c0-.09-.05-.16-.07-.25a7.23,7.23,0,0,0-.33-1l0,0,0-.09h0l-.07-.14a1.51,1.51,0,0,0-.11-.22.67.67,0,0,0-.06-.12l-.24-.43h0A.25.25,0,0,1,62,59l-.12-.18-.15-.21-.16-.21-.08-.11a3.13,3.13,0,0,0-.5-.54h0l-.32-.3A5.68,5.68,0,0,0,60,57a2,2,0,0,0-.24-.16l-.1-.05-.23-.12-.17-.08L59,56.45l-.36-.13a2.47,2.47,0,0,0-.36-.11,2.74,2.74,0,0,0-.37-.08l-.23-.05a4.54,4.54,0,0,0-2.39.13l-.3.09a6.57,6.57,0,0,0-2.4,1.46l-.3.3-.06,0-.11.14-.16.21a4,4,0,0,0-.46.65h0a7.74,7.74,0,0,0-.37.7,1.87,1.87,0,0,0-.15.32,3,3,0,0,0-.12.29l-.13.34a1.86,1.86,0,0,0-.09.36h0v0a1.68,1.68,0,0,0-.07.24.85.85,0,0,0,0,.17l0,.17,0,.1s0,0,0,.08,0,.09,0,.13l0,.33a.41.41,0,0,0,0,.11,1.27,1.27,0,0,0,0,.2c0,.08,0,.17,0,.26v0c0,.83,0,2,0,3.9,0,1.46,0,3.33,0,5.76,0,3.19,0,7.36,0,12.82H31.75V46.86Z" fill="#dfcebd"/><path d="M51.51,59.11a7,7,0,0,0-.38.7l-.15.32a3,3,0,0,0-.12.29c0,.13-.1.24-.13.34a1.86,1.86,0,0,0-.1.36v0a1.68,1.68,0,0,0-.07.24s0,.11,0,.17l0,.17,0,.1s0,0,0,.08,0,.09,0,.13l0,.33a.37.37,0,0,0,0,.11,1.27,1.27,0,0,0,0,.2c0,.08,0,.17,0,.26v0c-.07,1.46-.06,4.09,0,9.66,0,3.19,0,7.36,0,12.82h-.74c0-26.17-.1-25.16.19-26.35Z" fill="#b18a60"/><path d="M64,65.7c0,2.84,0,7.06,0,13.39v6.37h-.74c0-2.87,0-5.38,0-7.58,0-8.37,0-12.38,0-14.54,0-.08,0-.15,0-.22A14.66,14.66,0,0,0,63,61.39a0,0,0,0,1,0,0,4.91,4.91,0,0,0-.4-1.21l0,0a.36.36,0,0,1,0-.09h0l-.07-.14a1.51,1.51,0,0,0-.11-.22.67.67,0,0,0-.06-.12c-.08-.15-.16-.28-.25-.43h1.7A7.87,7.87,0,0,1,64,61.42v.82c0,.37,0,.78,0,1.26v2.2Z" fill="#b18a60"/><path d="M63.78,59.11h-1.7A.25.25,0,0,1,62,59a1.4,1.4,0,0,0-.12-.18l-.15-.21a1.66,1.66,0,0,0-.16-.21l-.08-.11a6.52,6.52,0,0,0-.5-.54h0a3,3,0,0,0-.32-.3A5.68,5.68,0,0,0,60,57a2,2,0,0,0-.24-.16l-.1-.05-.23-.12-.17-.08L59,56.45l-.36-.13-.36-.11-.37-.08a5.8,5.8,0,0,0-2.62.08l-.3.09a6.15,6.15,0,0,0-2.4,1.46l-.3.3-.17.19-.16.21a5.06,5.06,0,0,0-.46.65h-1.7a7.17,7.17,0,0,1,7-5.57,7.1,7.1,0,0,1,5,2.08l0,0a7.34,7.34,0,0,1,1.43,2A7.65,7.65,0,0,1,63.78,59.11Z" fill="#a0703d"/><polygon points="68.55 50.32 68.55 85.46 67.06 85.46 67.06 51.8 46.53 51.8 46.53 85.46 45.05 85.46 45.05 50.32 68.55 50.32" fill="#d2bca4"/><polygon points="84.32 43.51 84.06 44.02 29.54 44.02 29.28 43.51 84.32 43.51" fill="#f3ece6"/><polygon points="84.06 44.02 83.41 45.25 30.19 45.25 29.54 44.02 84.06 44.02" fill="#dfcebd"/><polygon points="83.41 45.25 82.48 47.03 31.12 47.03 30.19 45.25 83.41 45.25" fill="#c6a98b"/><polygon points="49.59 63.5 49.59 64.59 30.5 64.59 30.14 63.5 49.59 63.5" fill="#f3ece6"/><polygon points="49.59 64.59 49.59 65.7 30.86 65.7 30.5 64.59 49.59 64.59" fill="#c6a98b"/><polygon points="49.59 79.09 49.59 80.17 30.5 80.17 30.14 79.09 49.59 79.09" fill="#f3ece6"/><polygon points="49.59 80.17 49.59 81.28 30.86 81.28 30.5 80.17 49.59 80.17" fill="#c6a98b"/><polygon points="49.59 83.29 49.59 84.38 29.75 84.38 29.74 84.34 29.74 83.29 49.59 83.29" fill="#f3ece6"/><rect x="29.74" y="84.38" width="19.86" height="1.08" fill="#c6a98b"/><polygon points="49.59 60.03 49.59 61.12 30.5 61.12 30.14 60.03 49.59 60.03" fill="#f3ece6"/><polygon points="49.59 61.12 49.59 62.24 30.86 62.24 30.5 61.12 49.59 61.12" fill="#c6a98b"/><polygon points="63.97 63.5 63.97 64.58 83.13 64.58 83.49 63.5 63.97 63.5" fill="#f3ece6"/><polygon points="63.97 64.58 63.97 65.7 82.77 65.7 83.13 64.58 63.97 64.58" fill="#c6a98b"/><polygon points="63.97 79.09 63.97 80.17 83.13 80.17 83.49 79.09 63.97 79.09" fill="#f3ece6"/><polygon points="63.93 80.17 63.97 81.29 82.77 81.29 83.09 80.17 63.93 80.17" fill="#c6a98b"/><rect x="63.97" y="83.29" width="19.9" height="1.09" fill="#f3ece6"/><rect x="63.97" y="84.38" width="19.9" height="1.08" fill="#c6a98b"/><polygon points="63.97 60.03 63.97 61.12 83.13 61.12 83.49 60.03 63.97 60.03" fill="#f3ece6"/><polygon points="63.97 61.12 63.97 62.24 82.77 62.24 83.13 61.12 63.97 61.12" fill="#c6a98b"/><path d="M42.14,53.39a2.72,2.72,0,1,1-2.72-2.73A2.72,2.72,0,0,1,42.14,53.39Z" fill="#c6a98b"/><path d="M41.5,53.39a2.08,2.08,0,1,1-2.08-2.09A2.08,2.08,0,0,1,41.5,53.39Z" fill="#f3ece6"/><path d="M78.14,53.39a2.72,2.72,0,1,1-2.72-2.73A2.72,2.72,0,0,1,78.14,53.39Z" fill="#c6a98b"/><path d="M77.5,53.39a2.08,2.08,0,1,1-2.08-2.09A2.08,2.08,0,0,1,77.5,53.39Z" fill="#f3ece6"/><rect x="34.59" y="46.49" width="2.85" height="1.34" fill="#c6a98b"/><rect x="34.59" y="45.52" width="2.85" height="0.97" fill="#f3ece6"/><rect x="40.53" y="46.49" width="2.85" height="1.34" fill="#c6a98b"/><rect x="40.53" y="45.52" width="2.85" height="0.97" fill="#f3ece6"/><rect x="46.47" y="46.49" width="2.85" height="1.34" fill="#c6a98b"/><rect x="46.47" y="45.52" width="2.85" height="0.97" fill="#f3ece6"/><rect x="52.41" y="46.49" width="2.85" height="1.34" fill="#c6a98b"/><rect x="52.41" y="45.52" width="2.85" height="0.97" fill="#f3ece6"/><rect x="58.34" y="46.49" width="2.85" height="1.34" fill="#c6a98b"/><rect x="58.34" y="45.52" width="2.85" height="0.97" fill="#f3ece6"/><rect x="64.28" y="46.49" width="2.85" height="1.34" fill="#c6a98b"/><rect x="64.28" y="45.52" width="2.85" height="0.97" fill="#f3ece6"/><rect x="70.22" y="46.49" width="2.85" height="1.34" fill="#c6a98b"/><rect x="70.22" y="45.52" width="2.85" height="0.97" fill="#f3ece6"/><rect x="76.16" y="46.49" width="2.85" height="1.34" fill="#c6a98b"/><rect x="76.16" y="45.52" width="2.85" height="0.97" fill="#f3ece6"/><path d="M50.35,30.13a2.23,2.23,0,1,1-2.23-2.23A2.23,2.23,0,0,1,50.35,30.13Z" fill="#dfcebd"/><path d="M49.83,30.13a1.71,1.71,0,1,1-1.71-1.7A1.71,1.71,0,0,1,49.83,30.13Z" fill="#f3ece6"/><path d="M67.7,30.13a2.23,2.23,0,1,1-2.23-2.23A2.23,2.23,0,0,1,67.7,30.13Z" fill="#dfcebd"/><path d="M67.17,30.13a1.7,1.7,0,1,1-1.7-1.7A1.7,1.7,0,0,1,67.17,30.13Z" fill="#f3ece6"/><rect x="51.01" y="28.14" width="11.57" height="3.48" fill="#c6a98b"/><rect x="51.48" y="28.4" width="10.64" height="2.72" fill="#dfcebd"/></g></g></g></svg>