<svg xmlns="http://www.w3.org/2000/svg" xmlns:xlink="http://www.w3.org/1999/xlink" viewBox="0 0 111 111"><defs><linearGradient id="linear-gradient" x1="55.5" y1="1081.75" x2="55.5" y2="970.75" gradientTransform="matrix(1, 0, 0, -1, 0, 1081.75)" gradientUnits="userSpaceOnUse"><stop offset="0" stop-color="#a0afc8"/><stop offset="1" stop-color="#a0aec8"/></linearGradient></defs><g id="Layer_2" data-name="Layer 2"><g id="Layer_1-2" data-name="Layer 1"><circle cx="55.5" cy="55.5" r="53.5" stroke="#fff" stroke-width="4" fill="url(#linear-gradient)"/><path d="M77.14,33.38h14.5c.7-2-1.6-2.5-2.8-2.5-2.5-4.3-7.1-3.1-8.3,0C77.74,30.38,77.14,32.38,77.14,33.38Z" fill="#fff"/><path d="M20.14,24.1h19.5c1-2.5-2.2-3.2-3.7-3.2-3.3-5.6-9.6-4-11.2,0C21,20.2,20.14,22.7,20.14,24.1Z" fill="#fff"/><path d="M51.74,32.38H59c.4-1.1-.8-1.4-1.4-1.4-1.2-2.5-3.6-1.8-4.2,0A1.3,1.3,0,0,0,51.74,32.38Z" fill="#fff"/><path d="M78.45,38.59H32.55c-11.2,0-20.4,10.6-20.4,23.7v1.8c0,13.1,9.1,23.6,20.4,23.6h45.9c11.2,0,20.4-10.6,20.4-23.6v-1.8C98.75,49.19,89.65,38.59,78.45,38.59Z" fill="#e2f8fe"/><path d="M61.55,42h-3.1a2,2,0,0,0-2,2,2.09,2.09,0,0,0,2,2.1h3.1a2,2,0,0,0,2-2.1A2,2,0,0,0,61.55,42Z" fill="#bfedfa"/><path d="M78.25,55.59h-5.2a2.17,2.17,0,0,0-1.9,2.4,2.29,2.29,0,0,0,1.9,2.5h5.2c1.1,0,1.9-1.1,1.9-2.5A2.25,2.25,0,0,0,78.25,55.59Z" fill="#bfedfa"/><path d="M30.25,60.59h-5.2a2.17,2.17,0,0,0-1.9,2.4,2.29,2.29,0,0,0,1.9,2.5h5.2c1.1,0,1.9-1.1,1.9-2.5A2.25,2.25,0,0,0,30.25,60.59Z" fill="#bfedfa"/><path d="M85.25,55.59h-1.7a2.17,2.17,0,0,0-1.9,2.4,2.29,2.29,0,0,0,1.9,2.5h1.7c1.1,0,1.9-1.1,1.9-2.5A2.25,2.25,0,0,0,85.25,55.59Z" fill="#c3eaf4"/><path d="M26.42,86.33c0-.6,1-1.1,2.2-1.1h55c1.2,0,2.2.5,2.2,1.1s-1,1.1-2.2,1.1h-55C27.42,87.53,26.42,86.93,26.42,86.33Z" fill="#b3b3b3" fill-rule="evenodd"/><path d="M20.22,85c0-.6,1-1.1,2.2-1.1h67.1c1.2,0,2.2.5,2.2,1.1s-1,1.2-2.2,1.2H22.42C21.22,86.23,20.22,85.63,20.22,85Z" fill="#ccc" fill-rule="evenodd"/><path d="M14.5,83.93c0-.3.48-.6,1.05-.6h79.9c.57,0,1,.3,1,.6s-.48.6-1,.6H15.55C15,84.53,14.5,84.23,14.5,83.93Z" fill="#534741" fill-rule="evenodd"/><path d="M83.12,71.13H26.92v12.3h56.2Z" fill="#e0a773" stroke="#000" stroke-miterlimit="10" stroke-width="0.33"/><path d="M26.92,71.13H16.32v12.3h10.6Z" fill="#e0a773" stroke="#000" stroke-miterlimit="10" stroke-width="0.33"/><path d="M93.72,71.13H83.12v12.3h10.6Z" fill="#e0a773" stroke="#000" stroke-miterlimit="10" stroke-width="0.33"/><path d="M24.52,57.83h-6.1v12.9h6.1Z" fill="#e0a773" stroke="#000" stroke-miterlimit="10" stroke-width="0.33"/><path d="M91.32,57.83h-6.1v12.9h6.1Z" fill="#e0a773" stroke="#000" stroke-miterlimit="10" stroke-width="0.33"/><path d="M91,47.93h-4.8v6.8H91Z" fill="#e0a773" stroke="#000" stroke-miterlimit="10" stroke-width="0.33"/><path d="M24.22,47.93h-4.8v6.8h4.8Z" fill="#e0a773" stroke="#000" stroke-miterlimit="10" stroke-width="0.33"/><path d="M83.12,63.23H72.92v7.2h10.2Z" fill="#e0a773" stroke="#000" stroke-miterlimit="10" stroke-width="0.33"/><path d="M36.82,63.43h-9.9v7.2h9.9Z" fill="#e0a773" stroke="#000" stroke-miterlimit="10" stroke-width="0.32"/><path d="M50.82,69s4.1-4.1,8.2,0" fill="none" stroke="#000" stroke-miterlimit="10" stroke-width="0.34"/><path d="M84.52,57.43s4.1-4.1,8.2,0Z" fill="#e0a773"/><path d="M84.52,57.43s4.1-4.1,8.2,0" fill="none" stroke="#000" stroke-miterlimit="10" stroke-width="0.33"/><path d="M17.72,57.43s4.1-4.1,8.2,0Z" fill="#e0a773"/><path d="M17.72,57.43s4.1-4.1,8.2,0" fill="none" stroke="#000" stroke-miterlimit="10" stroke-width="0.33"/><path d="M94.72,70.43h-79a.27.27,0,0,0-.3.3.32.32,0,0,0,.3.3h79a.3.3,0,1,0,0-.6Z"/><path d="M72.92,77.93H37.52a.3.3,0,1,0,0,.6h35.4a.27.27,0,0,0,.3-.3C73.32,78.13,73.12,77.93,72.92,77.93Z"/><path d="M73.92,79.33H36.42a.3.3,0,0,0,0,.6h37.5a.32.32,0,0,0,.3-.3C74.32,79.43,74.12,79.33,73.92,79.33Z"/><path d="M76,80.63H34.42a.27.27,0,0,0-.3.3.32.32,0,0,0,.3.3H76a.27.27,0,0,0,.3-.3A.32.32,0,0,0,76,80.63Z"/><path d="M77.72,82h-45a.32.32,0,0,0-.3.3.45.45,0,0,0,.3.3h45a.3.3,0,1,0,0-.6Z"/><path d="M27.62,57.43H15.32a.3.3,0,1,0,0,.6h12.3a.3.3,0,0,0,0-.6Z"/><path d="M94.72,57.43H82.42a.3.3,0,0,0,0,.6h12.3a.32.32,0,0,0,.3-.3C95.12,57.63,94.92,57.43,94.72,57.43Z"/><path d="M92,49.33h-6.8a.27.27,0,0,0-.3.3.32.32,0,0,0,.3.3H92a.3.3,0,1,0,0-.6Z"/><path d="M88.22,36.73v3.4a.32.32,0,0,0,.3.3.45.45,0,0,0,.3-.3v-3.4a.3.3,0,1,0-.6,0Z"/><path d="M21.52,36.73v3.4a.32.32,0,0,0,.3.3.45.45,0,0,0,.3-.3v-3.4a.3.3,0,1,0-.6,0Z"/><path d="M25.22,49.33h-6.8a.27.27,0,0,0-.3.3.32.32,0,0,0,.3.3h6.8a.27.27,0,0,0,.3-.3C25.62,49.43,25.42,49.33,25.22,49.33Z"/><path d="M33.72,73.13h-2v4.8h2Z" fill="#fff" stroke="#000" stroke-miterlimit="10" stroke-width="0.34"/><path d="M79,73.53H77v4.8h2Z" fill="#fff" stroke="#000" stroke-miterlimit="10" stroke-width="0.34"/><path d="M89.32,73.53h-2v4.8h2Z" fill="#fff" stroke="#000" stroke-miterlimit="10" stroke-width="0.34"/><path d="M79,64.63H77v4.8h2Z" fill="#fff" stroke="#000" stroke-miterlimit="10" stroke-width="0.34"/><path d="M89.32,64.63h-2v4.8h2Z" fill="#fff" stroke="#000" stroke-miterlimit="10" stroke-width="0.34"/><path d="M22.52,73.53h-2v4.8h2Z" fill="#fff" stroke="#000" stroke-miterlimit="10" stroke-width="0.34"/><path d="M44,63.63h-4.1V69H44Z" fill="#e0a773" stroke="#000" stroke-miterlimit="10" stroke-width="0.33"/><path d="M70.52,63.63h-4.1V69h4.1Z" fill="#e0a773" stroke="#000" stroke-miterlimit="10" stroke-width="0.33"/><path d="M22.52,64.63h-2v4.8h2Z" fill="#fff" stroke="#000" stroke-miterlimit="10" stroke-width="0.34"/><path d="M33.72,64.63h-2v4.8h2Z" fill="#fff" stroke="#000" stroke-miterlimit="10" stroke-width="0.34"/><path d="M83.32,58.13H83v12.3h.3Z"/><path d="M93.92,58.13h-.3v12.3h.3Z"/><path d="M16.52,58.13h-.3v12.3h.3Z"/><path d="M27.12,58.13h-.3v12.3h.3Z"/><path d="M17.92,53.53a.2.2,0,0,0-.4,0v4.1a.2.2,0,1,0,.4,0Z"/><path d="M26.12,53.53a.2.2,0,1,0-.4,0v4.4a.2.2,0,1,0,.4,0Z"/><path d="M84.72,53.53a.2.2,0,0,0-.4,0v4.4a.2.2,0,0,0,.4,0Z"/><path d="M92.82,53.53a.2.2,0,0,0-.4,0v4.4a.2.2,0,1,0,.4,0Z"/><path d="M25.92,54.43h-8.2v.7h8.2Z"/><path d="M92.72,54.43h-8.2v.7h8.2Z"/><path d="M21.82,61.23a1,1,0,0,0,0-2,.94.94,0,0,0-1,1A1.08,1.08,0,0,0,21.82,61.23Z" fill="#fff" stroke="#000" stroke-miterlimit="10" stroke-width="0.34"/><path d="M88.62,61.23a1,1,0,0,0,0-2,.94.94,0,0,0-1,1A1,1,0,0,0,88.62,61.23Z" fill="#fff" stroke="#000" stroke-miterlimit="10" stroke-width="0.34"/><path d="M19.42,47.93h4.8s2-2-1.4-4.1h-2S16.72,45.93,19.42,47.93Z" fill="#e0a773" stroke="#000" stroke-miterlimit="10" stroke-width="0.33"/><path d="M86,47.93h4.8s2-2-1.4-4.1h-2S83.32,45.93,86,47.93Z" fill="#e0a773" stroke="#000" stroke-miterlimit="10" stroke-width="0.33"/><path d="M21.82,41.13a.68.68,0,0,1,.7.7v2.1h-1.4v-2.1a.76.76,0,0,1,.2-.5C21.52,41.23,21.62,41.13,21.82,41.13Z" fill="#e0a773" stroke="#000" stroke-miterlimit="10" stroke-width="0.33"/><path d="M41.92,59.83a.68.68,0,0,1,.7.7v2.7h-1.4v-2.7a.76.76,0,0,1,.2-.5C41.62,59.93,41.72,59.83,41.92,59.83Z" fill="#e0a773" stroke="#000" stroke-miterlimit="10" stroke-width="0.33"/><path d="M68.52,59.83a.68.68,0,0,1,.7.7v2.7h-1.4v-2.7a.68.68,0,0,1,.7-.7Z" fill="#e0a773" stroke="#000" stroke-miterlimit="10" stroke-width="0.33"/><path d="M41.92,66a.68.68,0,0,1,.7.7v2.7h-1.4v-2.7a.76.76,0,0,1,.2-.5A.55.55,0,0,1,41.92,66Z" fill="#fff" stroke="#000" stroke-miterlimit="10" stroke-width="0.34"/><path d="M21.82,51a.68.68,0,0,1,.7.7v2.7h-1.4v-2.7a.76.76,0,0,1,.2-.5C21.52,51.13,21.62,51,21.82,51Z" fill="#fff" stroke="#000" stroke-miterlimit="10" stroke-width="0.34"/><path d="M88.62,51a.68.68,0,0,1,.7.7v2.7h-1.4v-2.7a.68.68,0,0,1,.7-.7Z" fill="#fff" stroke="#000" stroke-miterlimit="10" stroke-width="0.34"/><path d="M68.52,66a.68.68,0,0,1,.7.7v2.7h-1.4v-2.7a.76.76,0,0,1,.2-.5C68.12,66,68.32,66,68.52,66Z" fill="#fff" stroke="#000" stroke-miterlimit="10" stroke-width="0.34"/><path d="M55.12,54.73a.68.68,0,0,1,.7.7v2.7h-1.4v-2.7a.68.68,0,0,1,.7-.7Z" fill="none" stroke="#000" stroke-miterlimit="10" stroke-width="0.38"/><path d="M88.62,41.13a.68.68,0,0,1,.7.7v2.1h-1.4v-2.1a.68.68,0,0,1,.7-.7Z" fill="#e0a773" stroke="#000" stroke-miterlimit="10" stroke-width="0.33"/><path d="M55.22,42.53a9.22,9.22,0,0,1,9.2,9.2v17.4H46V51.73a9.33,9.33,0,0,1,2.7-6.5A8.91,8.91,0,0,1,55.22,42.53Z" fill="#e0a773" stroke="#000" stroke-miterlimit="10" stroke-width="0.33"/><path d="M53.32,40.43h3.5s1.6-4-1.8-5.5C54.92,35,52.12,36,53.32,40.43Z" fill="#e0a773" stroke="#000" stroke-miterlimit="10" stroke-width="0.33"/><path d="M56.92,40.43h-3.7v2h3.7Z" fill="#f9f9f9" stroke="#000" stroke-miterlimit="10" stroke-width="0.33"/><path d="M66.42,58.13h4.1s1.4-1.4-2-4.8C68.52,53.43,65.12,56.13,66.42,58.13Z" fill="#e0a773" stroke="#000" stroke-miterlimit="10" stroke-width="0.33"/><path d="M39.92,58.13H44s1.4-1.4-2-4.8C41.92,53.43,38.52,56.13,39.92,58.13Z" fill="#e0a773" stroke="#000" stroke-miterlimit="10" stroke-width="0.33"/><path d="M44,58.33h-4.1v5.1H44Z" fill="none" stroke="#000" stroke-miterlimit="10" stroke-width="0.33"/><path d="M70.52,58.33h-4.1v5.1h4.1Z" fill="none" stroke="#000" stroke-miterlimit="10" stroke-width="0.33"/><path d="M72.72,69H37v.7h35.8l-.1-.7Z"/><path d="M64.42,53.43H46v4.8h18.4Z" fill="#fff" stroke="#000" stroke-miterlimit="10" stroke-width="0.34"/><path d="M55.92,64.63h-1.4V66h1.4Z" fill="none" stroke="#000" stroke-miterlimit="10" stroke-width="0.34"/><path d="M55.92,60.23h-1.4v2h1.4Z" fill="none" stroke="#000" stroke-miterlimit="10" stroke-width="0.42"/><path d="M39,77h1.7c.1,0,.2,0,.2.1a.37.37,0,0,1,.1.3h-2.4a.37.37,0,0,1,.1-.3C38.82,77.13,38.92,77,39,77Z"/><path d="M42.42,77h1.7c.1,0,.2,0,.2.1a.37.37,0,0,1,.1.3H42a.37.37,0,0,1,.1-.3C42.22,77.13,42.32,77,42.42,77Z"/><path d="M45.82,77h1.7c.1,0,.2,0,.2.1a.37.37,0,0,1,.1.3h-2.4a.37.37,0,0,1,.1-.3C45.72,77.13,45.72,77,45.82,77Z"/><path d="M49.22,77h1.7c.1,0,.2,0,.2.1a.37.37,0,0,1,.1.3h-2.4a.37.37,0,0,1,.1-.3C49.12,77.13,49.12,77,49.22,77Z"/><path d="M52.62,77h1.7c.1,0,.2,0,.2.1a.37.37,0,0,1,.1.3h-2.4a.37.37,0,0,1,.1-.3A.44.44,0,0,0,52.62,77Z"/><path d="M56.12,77h1.7c.1,0,.2,0,.2.1a.37.37,0,0,1,.1.3h-2.4a.37.37,0,0,1,.1-.3C55.92,77.13,56,77,56.12,77Z"/><path d="M59.12,77h1.7c.1,0,.2,0,.2.1a.37.37,0,0,1,.1.3h-2.4a.37.37,0,0,1,.1-.3C58.92,77.13,59,77,59.12,77Z"/><path d="M62.52,77h1.7c.1,0,.2,0,.2.1a.37.37,0,0,1,.1.3h-2.4a.37.37,0,0,1,.1-.3C62.32,77.13,62.42,77,62.52,77Z"/><path d="M65.92,77h1.7c.1,0,.2,0,.2.1a.37.37,0,0,1,.1.3h-2.4a.37.37,0,0,1,.1-.3C65.82,77.13,65.82,77,65.92,77Z"/><path d="M69.32,77H71c.1,0,.2,0,.2.1a.37.37,0,0,1,.1.3H69a.37.37,0,0,1,.1-.3C69.22,77.13,69.22,77,69.32,77Z"/><path d="M39,71.63h1.7c.1,0,.2,0,.2.1a.31.31,0,0,1,.1.2h-2.4c0-.1,0-.2.1-.2A.37.37,0,0,1,39,71.63Z"/><path d="M42.42,71.63h1.7c.1,0,.2,0,.2.1a.31.31,0,0,1,.1.2H42c0-.1,0-.2.1-.2A.37.37,0,0,1,42.42,71.63Z"/><path d="M45.82,71.63h1.7c.1,0,.2,0,.2.1a.31.31,0,0,1,.1.2h-2.4c0-.1,0-.2.1-.2S45.72,71.63,45.82,71.63Z"/><path d="M49.22,71.63h1.7c.1,0,.2,0,.2.1a.31.31,0,0,1,.1.2h-2.4c0-.1,0-.2.1-.2S49.12,71.63,49.22,71.63Z"/><path d="M52.62,71.63h1.7c.1,0,.2,0,.2.1a.31.31,0,0,1,.1.2h-2.4c0-.1,0-.2.1-.2A.77.77,0,0,1,52.62,71.63Z"/><path d="M56.12,71.63h1.7c.1,0,.2,0,.2.1a.31.31,0,0,1,.1.2h-2.4c0-.1,0-.2.1-.2A.37.37,0,0,1,56.12,71.63Z"/><path d="M59.12,71.63h1.7c.1,0,.2,0,.2.1a.31.31,0,0,1,.1.2h-2.4c0-.1,0-.2.1-.2A.37.37,0,0,1,59.12,71.63Z"/><path d="M62.52,71.63h1.7c.1,0,.2,0,.2.1a.31.31,0,0,1,.1.2h-2.4c0-.1,0-.2.1-.2A.37.37,0,0,1,62.52,71.63Z"/><path d="M65.92,71.63h1.7c.1,0,.2,0,.2.1a.31.31,0,0,1,.1.2h-2.4c0-.1,0-.2.1-.2S65.82,71.63,65.92,71.63Z"/><path d="M69.32,71.63H71c.1,0,.2,0,.2.1a.31.31,0,0,1,.1.2H69c0-.1,0-.2.1-.2S69.22,71.63,69.32,71.63Z"/><path d="M40,72.43h-.3v4.1H40Z"/><path d="M43.42,72.43h-.3v4.1h.3Z"/><path d="M48,57.23h1.5c.1,0,.1,0,.2.1a.35.35,0,0,1,.1.2v.1h-2v-.1c0-.1,0-.1.1-.2A.1.1,0,0,1,48,57.23Z"/><path d="M50.92,57.23h1.5c.1,0,.1,0,.2.1a.35.35,0,0,1,.1.2v.1h-2v-.1c0-.1,0-.1.1-.2S50.82,57.23,50.92,57.23Z"/><path d="M48,54h1.5c.1,0,.1,0,.2.1s.1.1.1.2v.1h-2v-.1c0-.1,0-.1.1-.2A.1.1,0,0,1,48,54Z"/><path d="M50.82,54h1.5c.1,0,.1,0,.2.1s.1.1.1.2v.1h-2v-.1c0-.1,0-.1.1-.2A.1.1,0,0,1,50.82,54Z"/><path d="M48.92,54.73h-.3v2h.3Z"/><path d="M52,54.73h-.3v2H52Z"/><path d="M57.62,57.23h1.5c.1,0,.1,0,.2.1a.35.35,0,0,1,.1.2v.1h-2v-.1c0-.1,0-.1.1-.2C57.42,57.23,57.52,57.23,57.62,57.23Z"/><path d="M60.52,57.23H62c.1,0,.1,0,.2.1a.35.35,0,0,1,.1.2v.1h-2v-.1c0-.1,0-.1.1-.2C60.32,57.23,60.42,57.23,60.52,57.23Z"/><path d="M57.62,54h1.5c.1,0,.1,0,.2.1s.1.1.1.2v.1h-2v-.1c0-.1,0-.1.1-.2C57.42,54,57.52,54,57.62,54Z"/><path d="M60.42,54h1.5c.1,0,.1,0,.2.1s.1.1.1.2v.1h-2v-.1c0-.1,0-.1.1-.2C60.22,54,60.32,54,60.42,54Z"/><path d="M58.42,54.73h-.3v2h.3Z"/><path d="M61.52,54.73h-.3v2h.3Z"/><path d="M46.92,72.43h-.3v4.1h.3Z"/><path d="M50.32,72.43H50v4.1h.3Z"/><path d="M53.72,72.43h-.3v4.1h.3Z"/><path d="M56.72,72.43h-.3v4.1h.3Z"/><path d="M60.12,72.43h-.3v4.1h.3Z"/><path d="M63.52,72.43h-.3v4.1h.3Z"/><path d="M67,72.43h-.3v4.1H67Z"/><path d="M70.72,72.43h-.3v4.1h.3Z"/><path d="M65.42,52.73H45a.3.3,0,1,0,0,.6h20.4a.32.32,0,0,0,.3-.3C65.82,52.83,65.62,52.73,65.42,52.73Z"/><path d="M94.72,62.93h-79a.3.3,0,0,0,0,.6h79a.32.32,0,0,0,.3-.3C95.12,63.13,94.92,62.93,94.72,62.93Z"/><path d="M84.22,57.43h8.2" fill="none" stroke="#000" stroke-miterlimit="10" stroke-width="0.34"/></g></g></svg>