<svg xmlns="http://www.w3.org/2000/svg" xmlns:xlink="http://www.w3.org/1999/xlink" viewBox="0 0 111 111"><defs><linearGradient id="linear-gradient" x1="55.5" y1="1081.75" x2="55.5" y2="970.75" gradientTransform="matrix(1, 0, 0, -1, 0, 1081.75)" gradientUnits="userSpaceOnUse"><stop offset="0" stop-color="#86bce6"/><stop offset="1" stop-color="#3e3eef"/></linearGradient></defs><g id="Layer_2" data-name="Layer 2"><g id="Layer_1-2" data-name="Layer 1"><circle cx="55.5" cy="55.5" r="53.5" stroke="#fff" stroke-width="4" fill="url(#linear-gradient)"/><path d="M80.65,44.1h14.5c.7-2-1.6-2.5-2.8-2.5-2.5-4.3-7.1-3.1-8.3,0C81.25,41.1,80.65,43.1,80.65,44.1Z" fill="#dddbe0"/><circle cx="75.55" cy="39.5" r="0.6" fill="#c4c4c4"/><circle cx="100.15" cy="62.9" r="0.6" fill="#c4c4c4"/><circle cx="42.85" cy="16" r="0.6" fill="#c4c4c4"/><circle cx="67.85" cy="26" r="0.6" fill="#c4c4c4"/><circle cx="21.85" cy="42" r="0.6" fill="#c4c4c4"/><path d="M79.35,32.3H31.65c-11.7,0-21.2,11-21.2,24.6v1.8c0,13.6,9.5,24.6,21.2,24.6h47.7c11.7,0,21.2-11,21.2-24.6V56.9C100.55,43.3,91.05,32.3,79.35,32.3Z" fill="#e2f8fe"/><path d="M37.05,35.7h-8.5a2,2,0,0,0-1.9,2.1,2,2,0,0,0,1.9,2.1h8.5A2,2,0,0,0,39,37.8,2,2,0,0,0,37.05,35.7Z" fill="#c3eaf4"/><path d="M53.25,69.7h-8.5a2,2,0,0,0-1.9,2.1,2,2,0,0,0,1.9,2.1h8.5a2.11,2.11,0,0,0,0-4.2Z" fill="#c3eaf4"/><path d="M86.85,34.1h-3.2a2.09,2.09,0,0,0-2,2.1,2,2,0,0,0,2,2.1h3.2a2,2,0,0,0,2-2.1A2.09,2.09,0,0,0,86.85,34.1Z" fill="#c3eaf4"/><path d="M24.45,58.8h-5.4a2.28,2.28,0,0,0-2,2.5c0,1.4.9,2.6,2,2.6h5.4c1.1,0,2-1.1,2-2.6A2.28,2.28,0,0,0,24.45,58.8Z" fill="#bfedfa"/><path d="M27.78,86.4c0-.7.74-1.2,1.57-1.2h52.3c.83,0,1.57.5,1.57,1.2s-.74,1.2-1.57,1.2H29.35C28.52,87.6,27.78,87,27.78,86.4Z" fill="#b3b3b3" fill-rule="evenodd"/><path d="M22,85.3c0-.7.74-1.2,1.57-1.2H87.41c.83,0,1.57.5,1.57,1.2s-.74,1.2-1.57,1.2H23.59C22.76,86.5,22,86,22,85.3Z" fill="#ccc" fill-rule="evenodd"/><path d="M14.5,84.4c0-.5.55-.9,1.2-.9H95.3c.65,0,1.2.4,1.2.9s-.55.9-1.2.9H15.7C15,85.2,14.5,84.8,14.5,84.4Z" fill="#364066" fill-rule="evenodd"/><path d="M68.23,21.43H78.67c.5-1.44-1.15-1.8-2-1.8-1.8-3.09-5.11-2.23-6,0A1.83,1.83,0,0,0,68.23,21.43Z" fill="#fff"/><path d="M81.67,27.86h7.59c.36-1.05-.84-1.31-1.47-1.31-1.31-2.25-3.72-1.62-4.34,0C82,26.29,81.67,27.28,81.67,27.86Z" fill="#fff"/><path d="M24,24.76H45.92c1.12-2.81-2.48-3.6-4.17-3.6-3.71-6.3-10.8-4.5-12.6,0C25,20.37,24,23.19,24,24.76Z" fill="#fff"/><path d="M72.62,58.13H71.48V54.71H91.65v3.85H73.19C73.19,58.32,72.94,58.13,72.62,58.13Z" fill="#d48d2e" stroke="#353535" stroke-miterlimit="10" stroke-width="0.44"/><polygon points="65.77 58.13 65.77 53.73 45.23 53.73 45.23 58.13 46.37 58.13 64.63 58.13 65.77 58.13" fill="#d48d2e" stroke="#353535" stroke-miterlimit="10" stroke-width="0.44"/><polygon points="39.01 52.33 39 52.33 19.77 52.33 19.77 53.41 39.44 53.41 39.01 52.33" fill="#be7529" stroke="#353535" stroke-miterlimit="10" stroke-width="0.44"/><path d="M38.52,51.9h-19v.43H39A.45.45,0,0,1,38.52,51.9Z" fill="#f3ac35" stroke="#353535" stroke-miterlimit="10" stroke-width="0.44"/><polygon points="39.52 53.61 39.44 53.41 18.69 53.41 19.35 54.71 39.52 54.71 39.52 53.61" fill="#f3ac35" stroke="#353535" stroke-miterlimit="10" stroke-width="0.44"/><path d="M38.38,58.13h1.14V54.71H19.35v3.85H37.81C37.81,58.32,38.06,58.13,38.38,58.13Z" fill="#d48d2e" stroke="#353535" stroke-miterlimit="10" stroke-width="0.44"/><path d="M38.73,59h-.35c-.32,0-.57-.19-.57-.43H19a.39.39,0,0,0-.4.39.4.4,0,0,0,.4.4H38.82Z" fill="#f3ac35" stroke="#353535" stroke-miterlimit="10" stroke-width="0.44"/><polygon points="38.82 59.35 18.95 59.35 18.95 59.69 38.9 59.69 38.82 59.35" fill="#be7529" stroke="#353535" stroke-miterlimit="10" stroke-width="0.44"/><path d="M39.37,62.3h-.2c0-.38-.05-1.23-.08-1.66H17.25a.77.77,0,0,0,.65.79.61.61,0,0,0,.41.87s-.12,1,.65,1H39.37Z" fill="#be7529" stroke="#353535" stroke-miterlimit="10" stroke-width="0.44"/><path d="M71.63,62.3h.2c0-.38,0-1.23.08-1.66H93.75a.77.77,0,0,1-.65.79.61.61,0,0,1-.41.87s.12,1-.65,1H71.63Z" fill="#be7529" stroke="#353535" stroke-miterlimit="10" stroke-width="0.44"/><rect x="40.13" y="38.82" width="4.49" height="4.53" fill="#d48d2e" stroke="#353535" stroke-miterlimit="10" stroke-width="0.44"/><rect x="66.38" y="38.82" width="4.49" height="4.53" fill="#d48d2e" stroke="#353535" stroke-miterlimit="10" stroke-width="0.44"/><path d="M39,51.47h.71v-.68H20.09V51.9H38.52A.45.45,0,0,1,39,51.47Z" fill="#f4c76d" stroke="#353535" stroke-miterlimit="10" stroke-width="0.44"/><path d="M72,51.47h-.71v-.68H90.91V51.9H72.48A.45.45,0,0,0,72,51.47Z" fill="#f4c76d" stroke="#353535" stroke-miterlimit="10" stroke-width="0.44"/><polygon points="37.74 83.15 37.74 82.65 38.06 82.65 38.06 82.14 38.31 82.14 38.71 80.46 38.47 80.43 38.47 79.93 38.79 79.93 38.79 79.43 39.05 79.43 39.05 78.93 39.37 78.93 39.37 63.32 18.96 63.32 18.96 83.65 37.32 83.65 37.32 83.15 37.74 83.15" fill="#f3ac35" stroke="#353535" stroke-miterlimit="10" stroke-width="0.44"/><polygon points="73.26 83.15 73.26 82.65 72.94 82.65 72.94 82.14 72.69 82.14 72.29 80.46 72.53 80.43 72.53 79.93 72.21 79.93 72.21 79.43 71.95 79.43 71.95 78.93 71.63 78.93 71.63 63.32 92.04 63.32 92.04 83.65 73.68 83.65 73.68 83.15 73.26 83.15" fill="#f3ac35" stroke="#353535" stroke-miterlimit="10" stroke-width="0.44"/><polygon points="39.3 60.64 17.25 60.64 16.48 59.69 39.3 59.69 39.3 60.64" fill="#f3ac35" stroke="#353535" stroke-miterlimit="10" stroke-width="0.44"/><rect x="25.71" y="63.32" width="12.05" height="0.82" fill="#f6bc4f" stroke="#353535" stroke-miterlimit="10" stroke-width="0.44"/><rect x="26.06" y="64.14" width="11.36" height="0.63" fill="#f3ac35" stroke="#353535" stroke-miterlimit="10" stroke-width="0.44"/><rect x="26.51" y="64.77" width="10.46" height="18.89" fill="#d48d2e" stroke="#353535" stroke-miterlimit="10" stroke-width="0.44"/><rect x="26.1" y="55.42" width="11.31" height="2.23" fill="#f4c76d" stroke="#353535" stroke-miterlimit="10" stroke-width="0.44"/><rect x="39.05" y="78.93" width="6.66" height="0.5" fill="#d28b2e" stroke="#353535" stroke-miterlimit="10" stroke-width="0.44"/><rect x="38.79" y="79.43" width="7.16" height="0.5" fill="#d48d2e" stroke="#353535" stroke-miterlimit="10" stroke-width="0.44"/><path d="M45.37,60.38,45.68,59h-.42L45,60.38h-.31L44.92,59H44.5l-.2,1.39H44L44.16,59H43.3l-.08,1.39h-.31L43,59h-.42v1.39h-.31l0-1.39h-.42l.06,1.39h-.31L41.45,59h-.86l.16,1.39h-.3L40.25,59h-.42l.23,1.39h-.3L39.49,59h-.42l.31,1.39h-.31s.1,1.4.1,1.92h6.41c0-.7,0-1.37.09-1.92Z" fill="#d0802d" stroke="#353535" stroke-miterlimit="10" stroke-width="0.44"/><path d="M45.17,38.27a.55.55,0,0,1-.55.55H40.13a.55.55,0,0,1-.55-.55h0a.55.55,0,0,1,.55-.54h4.49a.55.55,0,0,1,.55.54Z" fill="#f3ac35" stroke="#353535" stroke-miterlimit="10" stroke-width="0.44"/><path d="M42.37,33.46s-2.24,2.74-2.24,3.9v.37h4.49v-.37C44.62,36.2,42.37,33.46,42.37,33.46Z" fill="#d48d2e" stroke="#353535" stroke-miterlimit="10" stroke-width="0.44"/><path d="M42.85,41.73v-2a.48.48,0,1,0-1,0v2Z" fill="#c27329" stroke="#353535" stroke-miterlimit="10" stroke-width="0.44"/><path d="M41.14,41.73v-2c0-.27-.14-.48-.3-.48s-.31.21-.31.48v2Z" fill="#c27329" stroke="#353535" stroke-miterlimit="10" stroke-width="0.44"/><path d="M44.21,41.73v-2c0-.27-.13-.48-.3-.48s-.3.21-.3.48v2Z" fill="#c27329" stroke="#353535" stroke-miterlimit="10" stroke-width="0.44"/><rect x="39.71" y="49.67" width="5.33" height="1.8" fill="#d48d2e" stroke="#353535" stroke-miterlimit="10" stroke-width="0.44"/><path d="M46.23,51.9a.46.46,0,0,1-.48.43H39a.45.45,0,0,1-.48-.43h0a.45.45,0,0,1,.48-.43h6.75a.46.46,0,0,1,.48.43Z" fill="#f3ac35" stroke="#353535" stroke-miterlimit="10" stroke-width="0.44"/><path d="M46.94,58.56c0,.24-.26.43-.57.43h-8c-.32,0-.57-.19-.57-.43h0c0-.24.25-.43.57-.43h8c.31,0,.57.19.57.43Z" fill="#f3ac35" stroke="#353535" stroke-miterlimit="10" stroke-width="0.44"/><polygon points="40.02 53.73 39.56 53.73 39.01 52.33 39.56 52.33 40.02 53.73" fill="#d48d2e" stroke="#353535" stroke-miterlimit="10" stroke-width="0.44"/><polygon points="41.06 53.73 40.59 53.73 40.25 52.33 40.8 52.33 41.06 53.73" fill="#d48d2e" stroke="#353535" stroke-miterlimit="10" stroke-width="0.44"/><polygon points="42.09 53.73 41.63 53.73 41.48 52.33 42.03 52.33 42.09 53.73" fill="#d48d2e" stroke="#353535" stroke-miterlimit="10" stroke-width="0.44"/><polygon points="43.12 53.73 42.66 53.73 42.72 52.33 43.27 52.33 43.12 53.73" fill="#d48d2e" stroke="#353535" stroke-miterlimit="10" stroke-width="0.44"/><polygon points="44.15 53.73 43.69 53.73 43.95 52.33 44.5 52.33 44.15 53.73" fill="#d48d2e" stroke="#353535" stroke-miterlimit="10" stroke-width="0.44"/><polygon points="45.18 53.73 44.72 53.73 45.18 52.33 45.73 52.33 45.18 53.73" fill="#d48d2e" stroke="#353535" stroke-miterlimit="10" stroke-width="0.44"/><polygon points="39.38 60.38 39.07 60.38 38.73 58.99 39.07 58.99 39.38 60.38" fill="#d48d2e" stroke="#353535" stroke-miterlimit="10" stroke-width="0.44"/><polygon points="40.06 60.38 39.76 60.38 39.49 58.99 39.83 58.99 40.06 60.38" fill="#d48d2e" stroke="#353535" stroke-miterlimit="10" stroke-width="0.44"/><polygon points="40.75 60.38 40.45 60.38 40.25 58.99 40.59 58.99 40.75 60.38" fill="#d48d2e" stroke="#353535" stroke-miterlimit="10" stroke-width="0.44"/><polygon points="41.84 60.38 41.53 60.38 41.45 58.99 41.78 58.99 41.84 60.38" fill="#d48d2e" stroke="#353535" stroke-miterlimit="10" stroke-width="0.44"/><polygon points="42.53 60.38 42.22 60.38 42.2 58.99 42.54 58.99 42.53 60.38" fill="#d48d2e" stroke="#353535" stroke-miterlimit="10" stroke-width="0.44"/><polygon points="43.22 60.38 42.91 60.38 42.96 58.99 43.3 58.99 43.22 60.38" fill="#d48d2e" stroke="#353535" stroke-miterlimit="10" stroke-width="0.44"/><polygon points="44.3 60.38 43.99 60.38 44.16 58.99 44.5 58.99 44.3 60.38" fill="#d48d2e" stroke="#353535" stroke-miterlimit="10" stroke-width="0.44"/><polygon points="44.99 60.38 44.68 60.38 44.92 58.99 45.26 58.99 44.99 60.38" fill="#d48d2e" stroke="#353535" stroke-miterlimit="10" stroke-width="0.44"/><polygon points="45.68 60.38 45.37 60.38 45.68 58.99 46.02 58.99 45.68 60.38" fill="#d48d2e" stroke="#353535" stroke-miterlimit="10" stroke-width="0.44"/><polygon points="45.18 53.73 44.72 53.73 45.18 52.33 44.5 52.33 44.15 53.73 43.69 53.73 43.95 52.33 43.27 52.33 43.12 53.73 42.66 53.73 42.72 52.33 42.03 52.33 42.09 53.73 41.63 53.73 41.48 52.33 40.8 52.33 41.06 53.73 40.59 53.73 40.25 52.33 39.56 52.33 40.02 53.73 39.56 53.73 39.52 53.61 39.52 58.13 45.23 58.13 45.23 53.61 45.18 53.73" fill="#d0802d" stroke="#353535" stroke-miterlimit="10" stroke-width="0.44"/><path d="M45,43.63a.28.28,0,0,1-.29.28H40a.27.27,0,0,1-.28-.28h0a.28.28,0,0,1,.28-.29h4.76a.29.29,0,0,1,.29.29Z" fill="#f3ac35" stroke="#353535" stroke-miterlimit="10" stroke-width="0.44"/><polygon points="44.62 45.88 40.13 45.88 39.3 44.7 45.45 44.7 44.62 45.88" fill="#d48d2e" stroke="#353535" stroke-miterlimit="10" stroke-width="0.44"/><rect x="39.37" y="62.3" width="6" height="16.63" fill="#f4c76d" stroke="#353535" stroke-miterlimit="10" stroke-width="0.44"/><rect x="38.47" y="79.93" width="7.81" height="0.53" fill="#f3ac35" stroke="#353535" stroke-miterlimit="10" stroke-width="0.44"/><polygon points="46.44 82.14 38.31 82.14 38.71 80.46 46.04 80.46 46.44 82.14" fill="#d28b2e" stroke="#353535" stroke-miterlimit="10" stroke-width="0.44"/><rect x="38.06" y="82.14" width="8.62" height="0.5" fill="#d48d2e" stroke="#353535" stroke-miterlimit="10" stroke-width="0.44"/><rect x="37.74" y="82.65" width="9.27" height="0.5" fill="#d28b2e" stroke="#353535" stroke-miterlimit="10" stroke-width="0.44"/><rect x="37.32" y="83.15" width="10.11" height="0.5" fill="#f3ac35" stroke="#353535" stroke-miterlimit="10" stroke-width="0.44"/><rect x="40.13" y="43.91" width="4.49" height="0.78" fill="#d0802d" stroke="#353535" stroke-miterlimit="10" stroke-width="0.44"/><rect x="40.13" y="45.88" width="4.49" height="3.79" fill="#d0802d" stroke="#353535" stroke-miterlimit="10" stroke-width="0.44"/><polygon points="71.7 60.64 93.75 60.64 94.52 59.69 71.7 59.69 71.7 60.64" fill="#f3ac35" stroke="#353535" stroke-miterlimit="10" stroke-width="0.44"/><rect x="73.24" y="63.32" width="12.05" height="0.82" fill="#f6bc4f" stroke="#353535" stroke-miterlimit="10" stroke-width="0.44"/><rect x="73.59" y="64.14" width="11.36" height="0.63" fill="#f3ac35" stroke="#353535" stroke-miterlimit="10" stroke-width="0.44"/><rect x="74.04" y="64.77" width="10.46" height="18.89" fill="#d48d2e" stroke="#353535" stroke-miterlimit="10" stroke-width="0.44"/><polygon points="71.99 52.33 72 52.33 91.23 52.33 91.23 53.41 71.56 53.41 71.99 52.33" fill="#be7529" stroke="#353535" stroke-miterlimit="10" stroke-width="0.44"/><rect x="73.59" y="55.42" width="11.31" height="2.23" fill="#f4c76d" stroke="#353535" stroke-miterlimit="10" stroke-width="0.44"/><rect x="65.3" y="78.93" width="6.66" height="0.5" fill="#d28b2e" stroke="#353535" stroke-miterlimit="10" stroke-width="0.44"/><rect x="65.05" y="79.43" width="7.16" height="0.5" fill="#d48d2e" stroke="#353535" stroke-miterlimit="10" stroke-width="0.44"/><path d="M65.63,60.38,65.32,59h.42L66,60.38h.31L66.08,59h.42l.2,1.39H67L66.84,59h.86l.08,1.39h.31L68,59h.42v1.39h.31V59h.43l-.06,1.39h.31L69.55,59h.86l-.16,1.39h.3l.2-1.39h.42l-.24,1.39h.31L71.51,59h.42l-.31,1.39h.31s-.1,1.4-.1,1.92H65.42c0-.7,0-1.37-.09-1.92Z" fill="#d0802d" stroke="#353535" stroke-miterlimit="10" stroke-width="0.44"/><path d="M65.83,38.27a.55.55,0,0,0,.55.55h4.49a.55.55,0,0,0,.55-.55h0a.55.55,0,0,0-.55-.54H66.38a.55.55,0,0,0-.55.54Z" fill="#f3ac35" stroke="#353535" stroke-miterlimit="10" stroke-width="0.44"/><path d="M68.63,33.46s2.24,2.74,2.24,3.9v.37H66.38v-.37C66.38,36.2,68.63,33.46,68.63,33.46Z" fill="#d48d2e" stroke="#353535" stroke-miterlimit="10" stroke-width="0.44"/><path d="M68.15,41.73v-2a.48.48,0,1,1,.95,0v2Z" fill="#c27329" stroke="#353535" stroke-miterlimit="10" stroke-width="0.44"/><path d="M69.86,41.73v-2c0-.27.13-.48.3-.48s.3.21.3.48v2Z" fill="#c27329" stroke="#353535" stroke-miterlimit="10" stroke-width="0.44"/><path d="M66.79,41.73v-2c0-.27.13-.48.3-.48s.3.21.3.48v2Z" fill="#c27329" stroke="#353535" stroke-miterlimit="10" stroke-width="0.44"/><rect x="65.96" y="49.67" width="5.33" height="1.8" fill="#d48d2e" stroke="#353535" stroke-miterlimit="10" stroke-width="0.44"/><path d="M64.77,51.9a.46.46,0,0,0,.48.43H72a.45.45,0,0,0,.48-.43h0a.45.45,0,0,0-.48-.43H65.25a.46.46,0,0,0-.48.43Z" fill="#f3ac35" stroke="#353535" stroke-miterlimit="10" stroke-width="0.44"/><path d="M64.06,58.56c0,.24.26.43.57.43h8c.32,0,.57-.19.57-.43h0c0-.24-.25-.43-.57-.43h-8c-.31,0-.57.19-.57.43Z" fill="#f3ac35" stroke="#353535" stroke-miterlimit="10" stroke-width="0.44"/><polygon points="70.97 53.73 71.44 53.73 71.99 52.33 71.44 52.33 70.97 53.73" fill="#d48d2e" stroke="#353535" stroke-miterlimit="10" stroke-width="0.44"/><polygon points="69.94 53.73 70.4 53.73 70.75 52.33 70.2 52.33 69.94 53.73" fill="#d48d2e" stroke="#353535" stroke-miterlimit="10" stroke-width="0.44"/><polygon points="68.91 53.73 69.37 53.73 69.52 52.33 68.97 52.33 68.91 53.73" fill="#d48d2e" stroke="#353535" stroke-miterlimit="10" stroke-width="0.44"/><polygon points="67.88 53.73 68.34 53.73 68.28 52.33 67.73 52.33 67.88 53.73" fill="#d48d2e" stroke="#353535" stroke-miterlimit="10" stroke-width="0.44"/><polygon points="66.85 53.73 67.31 53.73 67.05 52.33 66.5 52.33 66.85 53.73" fill="#d48d2e" stroke="#353535" stroke-miterlimit="10" stroke-width="0.44"/><polygon points="65.82 53.73 66.28 53.73 65.82 52.33 65.27 52.33 65.82 53.73" fill="#d48d2e" stroke="#353535" stroke-miterlimit="10" stroke-width="0.44"/><polygon points="71.62 60.38 71.93 60.38 72.27 58.99 71.93 58.99 71.62 60.38" fill="#d48d2e" stroke="#353535" stroke-miterlimit="10" stroke-width="0.44"/><polygon points="70.94 60.38 71.24 60.38 71.51 58.99 71.17 58.99 70.94 60.38" fill="#d48d2e" stroke="#353535" stroke-miterlimit="10" stroke-width="0.44"/><polygon points="70.25 60.38 70.55 60.38 70.75 58.99 70.41 58.99 70.25 60.38" fill="#d48d2e" stroke="#353535" stroke-miterlimit="10" stroke-width="0.44"/><polygon points="69.16 60.38 69.47 60.38 69.55 58.99 69.22 58.99 69.16 60.38" fill="#d48d2e" stroke="#353535" stroke-miterlimit="10" stroke-width="0.44"/><polygon points="68.47 60.38 68.78 60.38 68.8 58.99 68.46 58.99 68.47 60.38" fill="#d48d2e" stroke="#353535" stroke-miterlimit="10" stroke-width="0.44"/><polygon points="67.78 60.38 68.09 60.38 68.04 58.99 67.7 58.99 67.78 60.38" fill="#d48d2e" stroke="#353535" stroke-miterlimit="10" stroke-width="0.44"/><polygon points="66.7 60.38 67 60.38 66.84 58.99 66.5 58.99 66.7 60.38" fill="#d48d2e" stroke="#353535" stroke-miterlimit="10" stroke-width="0.44"/><polygon points="66.01 60.38 66.32 60.38 66.08 58.99 65.74 58.99 66.01 60.38" fill="#d48d2e" stroke="#353535" stroke-miterlimit="10" stroke-width="0.44"/><polygon points="65.32 60.38 65.63 60.38 65.32 58.99 64.98 58.99 65.32 60.38" fill="#d48d2e" stroke="#353535" stroke-miterlimit="10" stroke-width="0.44"/><polygon points="65.82 53.73 66.28 53.73 65.82 52.33 66.5 52.33 66.85 53.73 67.31 53.73 67.05 52.33 67.73 52.33 67.88 53.73 68.34 53.73 68.28 52.33 68.97 52.33 68.91 53.73 69.37 53.73 69.52 52.33 70.2 52.33 69.94 53.73 70.4 53.73 70.75 52.33 71.44 52.33 70.97 53.73 71.44 53.73 71.48 53.61 71.48 58.13 65.77 58.13 65.77 53.61 65.82 53.73" fill="#d0802d" stroke="#353535" stroke-miterlimit="10" stroke-width="0.44"/><path d="M66,43.63a.28.28,0,0,0,.28.28H71a.27.27,0,0,0,.28-.28h0a.28.28,0,0,0-.28-.29H66.24a.29.29,0,0,0-.28.29Z" fill="#f3ac35" stroke="#353535" stroke-miterlimit="10" stroke-width="0.44"/><polygon points="66.38 45.88 70.87 45.88 71.7 44.7 65.55 44.7 66.38 45.88" fill="#d48d2e" stroke="#353535" stroke-miterlimit="10" stroke-width="0.44"/><rect x="64.72" y="79.93" width="7.81" height="0.53" fill="#f3ac35" stroke="#353535" stroke-miterlimit="10" stroke-width="0.44"/><polygon points="64.56 82.14 72.69 82.14 72.29 80.46 64.96 80.46 64.56 82.14" fill="#d28b2e" stroke="#353535" stroke-miterlimit="10" stroke-width="0.44"/><rect x="64.32" y="82.14" width="8.62" height="0.5" fill="#d48d2e" stroke="#353535" stroke-miterlimit="10" stroke-width="0.44"/><rect x="63.99" y="82.65" width="9.27" height="0.5" fill="#d28b2e" stroke="#353535" stroke-miterlimit="10" stroke-width="0.44"/><rect x="63.57" y="83.15" width="10.11" height="0.5" fill="#f3ac35" stroke="#353535" stroke-miterlimit="10" stroke-width="0.44"/><rect x="66.38" y="43.91" width="4.49" height="0.78" fill="#d0802d" stroke="#353535" stroke-miterlimit="10" stroke-width="0.44"/><rect x="66.38" y="45.88" width="4.49" height="3.79" fill="#d0802d" stroke="#353535" stroke-miterlimit="10" stroke-width="0.44"/><rect x="65.62" y="62.3" width="6" height="16.63" fill="#f4c76d" stroke="#353535" stroke-miterlimit="10" stroke-width="0.44"/><path d="M72.48,51.9h19v.43H72A.45.45,0,0,0,72.48,51.9Z" fill="#f3ac35" stroke="#353535" stroke-miterlimit="10" stroke-width="0.44"/><polygon points="71.48 53.61 71.56 53.41 92.31 53.41 91.65 54.71 71.48 54.71 71.48 53.61" fill="#f3ac35" stroke="#353535" stroke-miterlimit="10" stroke-width="0.44"/><path d="M72.27,59h.35c.32,0,.57-.19.57-.43H92.05a.39.39,0,0,1,.4.39.4.4,0,0,1-.4.4H72.18Z" fill="#f3ac35" stroke="#353535" stroke-miterlimit="10" stroke-width="0.44"/><polygon points="72.18 59.35 92.05 59.35 92.05 59.69 72.1 59.69 72.18 59.35" fill="#be7529" stroke="#353535" stroke-miterlimit="10" stroke-width="0.44"/><path d="M65.42,62.3c0-.7,0-1.37-.09-1.92h0l-.21-.86H45.89l-.21.86h0c-.05.55-.09,1.22-.09,1.92h-.2V78.93h.32v.5H46v.5h.33v.53H46l.4,1.68h.24v.51H47v.5h.42v.5h.91c0-1-.56-1-.56-1V73c.54,0,.56-.41.56-.88H46.83v-1h.67c.38-8.75,8-10,8-10s7.62,1.24,8,10h.67v1H62.66c0,.47,0,.88.56.88v9.62s-.56,0-.56,1h.91v-.5H64v-.5h.33v-.51h.24l.4-1.68h-.24v-.53h.33v-.5h.25v-.5h.32V62.3Z" fill="#f3ac35" stroke="#353535" stroke-miterlimit="10" stroke-width="0.44"/><rect x="46.85" y="53.72" width="0.73" height="4.4" fill="#f3ac35" stroke="#353535" stroke-miterlimit="10" stroke-width="0.44"/><rect x="49.22" y="53.72" width="0.73" height="4.4" fill="#f3ac35" stroke="#353535" stroke-miterlimit="10" stroke-width="0.44"/><rect x="51.58" y="53.72" width="0.73" height="4.4" fill="#f3ac35" stroke="#353535" stroke-miterlimit="10" stroke-width="0.44"/><rect x="53.95" y="53.72" width="0.73" height="4.4" fill="#f3ac35" stroke="#353535" stroke-miterlimit="10" stroke-width="0.44"/><rect x="56.32" y="53.72" width="0.73" height="4.4" fill="#f3ac35" stroke="#353535" stroke-miterlimit="10" stroke-width="0.44"/><rect x="58.69" y="53.72" width="0.73" height="4.4" fill="#f3ac35" stroke="#353535" stroke-miterlimit="10" stroke-width="0.44"/><rect x="61.06" y="53.72" width="0.73" height="4.4" fill="#f3ac35" stroke="#353535" stroke-miterlimit="10" stroke-width="0.44"/><rect x="63.42" y="53.72" width="0.73" height="4.4" fill="#f3ac35" stroke="#353535" stroke-miterlimit="10" stroke-width="0.44"/><path d="M63.5,71.19c-.38-8.75-8-10-8-10s-7.62,1.24-8,10h.86c.39-7.79,7.14-8.89,7.14-8.89s6.75,1.1,7.14,8.89Z" fill="#ca6e2b" stroke="#353535" stroke-miterlimit="10" stroke-width="0.44"/><path d="M66.38,43.91h-.14a.28.28,0,0,1-.28-.28.29.29,0,0,1,.28-.29h.14V42.11H44.62v1.23h.13a.29.29,0,0,1,.29.29.28.28,0,0,1-.29.28h-.13v.4H66.38Z" fill="#f6bc4f" stroke="#353535" stroke-miterlimit="10" stroke-width="0.44"/><polygon points="65.97 45.29 65.57 44.7 66.38 44.7 66.38 44.31 44.62 44.31 44.62 44.7 45.45 44.7 45.03 45.29 65.97 45.29" fill="#f3ac35" stroke="#353535" stroke-miterlimit="10" stroke-width="0.44"/><path d="M45.75,52.33h19.5a.43.43,0,1,1,0-.86H66v-1.8h.42V45.88L66,45.29H45l-.41.59v3.79H45v1.8h.71a.43.43,0,1,1,0,.86Z" fill="#c27329" stroke="#353535" stroke-miterlimit="10" stroke-width="0.44"/><polygon points="65.77 53.73 65.77 53.61 65.82 53.73 65.27 52.33 65.25 52.33 45.75 52.33 45.73 52.33 45.18 53.73 45.23 53.61 45.23 53.73 65.77 53.73" fill="#d0802d" stroke="#353535" stroke-miterlimit="10" stroke-width="0.44"/><path d="M65,59h-.35c-.31,0-.57-.19-.57-.43s.26-.43.57-.43H46.37c.31,0,.57.19.57.43s-.26.43-.57.43H46l0,.07H65Z" fill="#d48d2e" stroke="#353535" stroke-miterlimit="10" stroke-width="0.44"/><polygon points="65 59.05 46 59.05 45.89 59.52 65.11 59.52 65 59.05" fill="#d0802d" stroke="#353535" stroke-miterlimit="10" stroke-width="0.44"/><path d="M46.83,60.16v11h.67c.38-8.75,8-10,8-10s7.62,1.24,8,10h.67v-11Z" fill="#f3ac35" stroke="#353535" stroke-miterlimit="10" stroke-width="0.44"/><rect x="47.22" y="46.67" width="16.56" height="4.11" fill="#f3ac35" stroke="#353535" stroke-miterlimit="10" stroke-width="0.44"/><path d="M49.76,61.89A.86.86,0,1,1,48.9,61,.86.86,0,0,1,49.76,61.89Z" fill="#ca6e2b" stroke="#353535" stroke-miterlimit="10" stroke-width="0.44"/><path d="M49.32,61.89a.42.42,0,0,1-.42.42.42.42,0,0,1,0-.84A.42.42,0,0,1,49.32,61.89Z" fill="#d48d2e" stroke="#353535" stroke-miterlimit="10" stroke-width="0.44"/><path d="M63,61.89A.86.86,0,1,1,62.1,61,.87.87,0,0,1,63,61.89Z" fill="#ca6e2b" stroke="#353535" stroke-miterlimit="10" stroke-width="0.44"/><path d="M62.51,61.89a.41.41,0,0,1-.41.42.42.42,0,0,1,0-.84A.41.41,0,0,1,62.51,61.89Z" fill="#d48d2e" stroke="#353535" stroke-miterlimit="10" stroke-width="0.44"/></g></g></svg>