<svg xmlns="http://www.w3.org/2000/svg" viewBox="0 0 111 111"><g id="Layer_2" data-name="Layer 2"><g id="Layer_1-2" data-name="Layer 1"><circle cx="55.5" cy="55.5" r="53.5" fill="#b2d1dd" stroke="#fff" stroke-width="4"/><path d="M69.14,24.3h14.5c.7-2-1.6-2.5-2.8-2.5-2.5-4.3-7.1-3.1-8.3,0C69.84,21.3,69.14,23.2,69.14,24.3Z" fill="#fff"/><path d="M20.14,24.1h19.5c1-2.5-2.2-3.2-3.7-3.2-3.3-5.6-9.6-4-11.2,0C21,20.2,20.14,22.7,20.14,24.1Z" fill="#fff"/><path d="M87.14,29.1h7.3c.4-1.2-.8-1.4-1.4-1.4-1.2-2.5-3.6-1.8-4.2,0A1.3,1.3,0,0,0,87.14,29.1Z" fill="#fff"/><path d="M77.84,36.4H32.24c-11.2,0-20.3,10.5-20.3,23.5v1.8c0,13,9.1,23.5,20.3,23.5h45.6c11.2,0,20.3-10.5,20.3-23.5V59.9C98.14,47,89,36.4,77.84,36.4Z" fill="#e2f8fe"/><path d="M37.24,39.7h-8.1a2,2,0,0,0,0,4h8.1a2,2,0,0,0,0-4Z" fill="#c3eaf4"/><path d="M72,46.38H69a2,2,0,0,0,0,4h3a2,2,0,0,0,2-2A2.15,2.15,0,0,0,72,46.38Z" fill="#bfedfa"/><path d="M79.34,52.38h-3a2,2,0,0,0,0,4h3a2,2,0,0,0,0-4Z" fill="#c3eaf4"/><path d="M27.64,62h-5.2a2.47,2.47,0,0,0,0,4.8h5.2a2.17,2.17,0,0,0,1.9-2.4A2.11,2.11,0,0,0,27.64,62Z" fill="#bfedfa"/><path d="M89.64,64h-1.7a2.47,2.47,0,0,0,0,4.8h1.7a2.47,2.47,0,0,0,0-4.8Z" fill="#c3eaf4"/><path d="M31.88,90.09a1.26,1.26,0,0,1,1.31-1.2h44a1.26,1.26,0,0,1,1.32,1.2,1.33,1.33,0,0,1-1.32,1.2h-44A1.33,1.33,0,0,1,31.88,90.09Z" fill="#b3b3b3" fill-rule="evenodd"/><path d="M26.91,89a1.26,1.26,0,0,1,1.32-1.2H81.94A1.26,1.26,0,0,1,83.26,89a1.33,1.33,0,0,1-1.32,1.2H28.23A1.26,1.26,0,0,1,26.91,89Z" fill="#ccc" fill-rule="evenodd"/><path d="M20.62,88.09a1,1,0,0,1,1-.9h67a.91.91,0,1,1,0,1.8h-67C21,88.89,20.62,88.49,20.62,88.09Z" fill="#364066" fill-rule="evenodd"/><path d="M58.89,19.52a10,10,0,0,0-3-1.94v-6.4h-.88v6.4a10,10,0,0,0-3,1.94c-1.25,1.26-2.14,2.29-1.37,3.92h9.52C61,21.81,60.14,20.78,58.89,19.52Z" fill="#e4e1e0"/><rect x="50.73" y="23.44" width="9.55" height="0.39" fill="#cbc6c4"/><rect x="51.6" y="25.49" width="7.8" height="0.39" fill="#cbc6c4"/><rect x="51.76" y="23.83" width="7.47" height="1.66" fill="#9c918e"/><rect x="50.73" y="25.88" width="9.55" height="1.66" fill="#b0a8a5"/><rect x="50.22" y="27.54" width="10.56" height="0.5" fill="#e4e1e0"/><rect x="50.03" y="30.3" width="10.94" height="0.79" fill="#301a13"/><rect x="50.22" y="35.72" width="10.56" height="0.79" fill="#301a13"/><rect x="50.22" y="31.1" width="10.56" height="4.62" fill="#4d3a34"/><rect x="54.03" y="31.32" width="2.93" height="4.18" fill="#eceaea"/><rect x="50.61" y="31.32" width="2.93" height="4.18" fill="#eceaea"/><rect x="57.46" y="31.32" width="2.93" height="4.18" fill="#eceaea"/><rect x="50.03" y="28.04" width="10.94" height="2.27" fill="#cbc6c4"/><rect x="42.28" y="42.03" width="26.44" height="18.73" fill="#432f28"/><rect x="45.44" y="36.51" width="20.11" height="5.51" fill="#432f28"/><rect x="43.16" y="41.22" width="4.57" height="5.59" fill="#4d3a34"/><rect x="43.4" y="41.41" width="4.09" height="5.21" fill="#eceaea"/><path d="M47,42.93c0-1.38-3-1.38-3,0v3.21h3Z" fill="#4d3a34"/><path d="M46.72,43c0-1.26-2.55-1.26-2.55,0v2.91h2.55Z" fill="#eceaea"/><path d="M46.94,33.7a4.32,4.32,0,0,0-1.3-.86V30h-.39v2.83a4.32,4.32,0,0,0-1.3.86c-.56.56-1,1-.61,1.74h4.21C47.89,34.71,47.5,34.26,46.94,33.7Z" fill="#e4e1e0"/><rect x="43.33" y="35.44" width="4.23" height="0.17" fill="#cbc6c4"/><rect x="43.72" y="36.34" width="3.45" height="0.17" fill="#cbc6c4"/><rect x="43.79" y="35.61" width="3.31" height="0.73" fill="#9c918e"/><rect x="43.33" y="36.51" width="4.23" height="0.73" fill="#b0a8a5"/><rect x="43.11" y="37.25" width="4.67" height="0.22" fill="#e4e1e0"/><rect x="43.03" y="38.47" width="4.84" height="0.35" fill="#301a13"/><rect x="43.11" y="40.87" width="4.67" height="0.35" fill="#301a13"/><rect x="43.11" y="38.82" width="4.67" height="2.05" fill="#4d3a34"/><rect x="44.8" y="38.92" width="1.3" height="1.85" fill="#eceaea"/><rect x="43.28" y="38.92" width="1.3" height="1.85" fill="#eceaea"/><rect x="46.31" y="38.92" width="1.3" height="1.85" fill="#eceaea"/><rect x="43.03" y="37.47" width="4.84" height="1" fill="#cbc6c4"/><rect x="48.19" y="41.22" width="4.57" height="5.59" fill="#4d3a34"/><rect x="48.43" y="41.41" width="4.09" height="5.21" fill="#eceaea"/><path d="M52,42.93c0-1.38-3-1.38-3,0v3.21h3Z" fill="#4d3a34"/><path d="M51.75,43c0-1.26-2.56-1.26-2.56,0v2.91h2.56Z" fill="#eceaea"/><path d="M52,33.7a4.32,4.32,0,0,0-1.3-.86V30h-.39v2.83A4.43,4.43,0,0,0,49,33.7c-.55.56-.94,1-.6,1.74h4.21C52.92,34.71,52.53,34.26,52,33.7Z" fill="#e4e1e0"/><rect x="48.36" y="35.44" width="4.23" height="0.17" fill="#cbc6c4"/><rect x="48.75" y="36.34" width="3.45" height="0.17" fill="#cbc6c4"/><rect x="48.82" y="35.61" width="3.31" height="0.73" fill="#9c918e"/><rect x="48.36" y="36.51" width="4.23" height="0.73" fill="#b0a8a5"/><rect x="48.14" y="37.25" width="4.67" height="0.22" fill="#e4e1e0"/><rect x="48.05" y="38.47" width="4.84" height="0.35" fill="#301a13"/><rect x="48.14" y="40.87" width="4.67" height="0.35" fill="#301a13"/><rect x="48.14" y="38.82" width="4.67" height="2.05" fill="#4d3a34"/><rect x="49.82" y="38.92" width="1.3" height="1.85" fill="#eceaea"/><rect x="48.31" y="38.92" width="1.3" height="1.85" fill="#eceaea"/><rect x="51.34" y="38.92" width="1.3" height="1.85" fill="#eceaea"/><rect x="48.05" y="37.47" width="4.84" height="1" fill="#cbc6c4"/><rect x="53.21" y="41.22" width="4.57" height="5.59" fill="#4d3a34"/><rect x="53.46" y="41.41" width="4.09" height="5.21" fill="#eceaea"/><path d="M57,42.93c0-1.38-3-1.38-3,0v3.21h3Z" fill="#4d3a34"/><path d="M56.78,43c0-1.26-2.56-1.26-2.56,0v2.91h2.56Z" fill="#eceaea"/><path d="M57,33.7a4.43,4.43,0,0,0-1.31-.86V30h-.38v2.83A4.43,4.43,0,0,0,54,33.7c-.55.56-1,1-.61,1.74h4.22C58,34.71,57.55,34.26,57,33.7Z" fill="#e4e1e0"/><rect x="53.39" y="35.44" width="4.23" height="0.17" fill="#cbc6c4"/><rect x="53.77" y="36.34" width="3.45" height="0.17" fill="#cbc6c4"/><rect x="53.85" y="35.61" width="3.31" height="0.73" fill="#9c918e"/><rect x="53.39" y="36.51" width="4.23" height="0.73" fill="#b0a8a5"/><rect x="53.16" y="37.25" width="4.67" height="0.22" fill="#e4e1e0"/><rect x="53.08" y="38.47" width="4.84" height="0.35" fill="#301a13"/><rect x="53.16" y="40.87" width="4.67" height="0.35" fill="#301a13"/><rect x="53.16" y="38.82" width="4.67" height="2.05" fill="#4d3a34"/><rect x="54.85" y="38.92" width="1.3" height="1.85" fill="#eceaea"/><rect x="53.34" y="38.92" width="1.3" height="1.85" fill="#eceaea"/><rect x="56.37" y="38.92" width="1.3" height="1.85" fill="#eceaea"/><rect x="53.08" y="37.47" width="4.84" height="1" fill="#cbc6c4"/><rect x="58.24" y="41.22" width="4.57" height="5.59" fill="#4d3a34"/><rect x="58.48" y="41.41" width="4.09" height="5.21" fill="#eceaea"/><path d="M62,42.93c0-1.38-3-1.38-3,0v3.21h3Z" fill="#4d3a34"/><path d="M61.81,43c0-1.26-2.56-1.26-2.56,0v2.91h2.56Z" fill="#eceaea"/><path d="M62,33.7a4.43,4.43,0,0,0-1.31-.86V30h-.39v2.83a4.32,4.32,0,0,0-1.3.86c-.56.56-1,1-.61,1.74h4.21C63,34.71,62.58,34.26,62,33.7Z" fill="#e4e1e0"/><rect x="58.41" y="35.44" width="4.23" height="0.17" fill="#cbc6c4"/><rect x="58.8" y="36.34" width="3.45" height="0.17" fill="#cbc6c4"/><rect x="58.87" y="35.61" width="3.31" height="0.73" fill="#9c918e"/><rect x="58.41" y="36.51" width="4.23" height="0.73" fill="#b0a8a5"/><rect x="58.19" y="37.25" width="4.67" height="0.22" fill="#e4e1e0"/><rect x="58.11" y="38.47" width="4.84" height="0.35" fill="#301a13"/><rect x="58.19" y="40.87" width="4.67" height="0.35" fill="#301a13"/><rect x="58.19" y="38.82" width="4.67" height="2.05" fill="#4d3a34"/><rect x="59.88" y="38.92" width="1.3" height="1.85" fill="#eceaea"/><rect x="58.36" y="38.92" width="1.3" height="1.85" fill="#eceaea"/><rect x="61.39" y="38.92" width="1.3" height="1.85" fill="#eceaea"/><rect x="58.11" y="37.47" width="4.84" height="1" fill="#cbc6c4"/><rect x="63.27" y="41.22" width="4.57" height="5.59" fill="#4d3a34"/><rect x="63.51" y="41.41" width="4.09" height="5.21" fill="#eceaea"/><path d="M67.07,42.93c0-1.38-3-1.38-3,0v3.21h3Z" fill="#4d3a34"/><path d="M66.83,43c0-1.26-2.55-1.26-2.55,0v2.91h2.55Z" fill="#eceaea"/><path d="M67.05,33.7a4.32,4.32,0,0,0-1.3-.86V30h-.39v2.83a4.32,4.32,0,0,0-1.3.86c-.56.56-1,1-.61,1.74h4.21C68,34.71,67.61,34.26,67.05,33.7Z" fill="#e4e1e0"/><rect x="63.44" y="35.44" width="4.23" height="0.17" fill="#cbc6c4"/><rect x="63.83" y="36.34" width="3.45" height="0.17" fill="#cbc6c4"/><rect x="63.9" y="35.61" width="3.31" height="0.73" fill="#9c918e"/><rect x="63.44" y="36.51" width="4.23" height="0.73" fill="#b0a8a5"/><rect x="63.22" y="37.25" width="4.67" height="0.22" fill="#e4e1e0"/><rect x="63.14" y="38.47" width="4.84" height="0.35" fill="#301a13"/><rect x="63.22" y="40.87" width="4.67" height="0.35" fill="#301a13"/><rect x="63.22" y="38.82" width="4.67" height="2.05" fill="#4d3a34"/><rect x="64.91" y="38.92" width="1.3" height="1.85" fill="#eceaea"/><rect x="63.39" y="38.92" width="1.3" height="1.85" fill="#eceaea"/><rect x="66.42" y="38.92" width="1.3" height="1.85" fill="#eceaea"/><rect x="63.14" y="37.47" width="4.84" height="1" fill="#cbc6c4"/><rect x="36.72" y="63.96" width="37.56" height="9.78" fill="#e4e1e0"/><rect x="36.48" y="65.4" width="38.05" height="0.4" fill="#4d3a34"/><rect x="36.07" y="62.9" width="38.86" height="0.67" fill="#eceaea"/><rect x="36.07" y="61.16" width="38.86" height="0.67" fill="#eceaea"/><rect x="35.66" y="63.56" width="39.67" height="0.4" fill="#4d3a34"/><rect x="35.66" y="60.76" width="39.67" height="0.4" fill="#4d3a34"/><rect x="35.86" y="61.83" width="39.29" height="1.07" fill="#4d3a34"/><rect x="32.9" y="80.82" width="45.21" height="6.36" fill="#4d3a34"/><rect x="33.15" y="80.02" width="44.7" height="0.8" fill="#eceaea"/><rect x="32.9" y="76.95" width="45.21" height="2.67" fill="#eceaea"/><rect x="33.61" y="75.88" width="43.78" height="0.67" fill="#eceaea"/><rect x="33.61" y="74.15" width="43.78" height="0.67" fill="#eceaea"/><rect x="33.15" y="79.62" width="44.7" height="0.4" fill="#4d3a34"/><rect x="33.15" y="76.55" width="44.7" height="0.4" fill="#4d3a34"/><rect x="33.15" y="73.75" width="44.7" height="0.4" fill="#4d3a34"/><rect x="33.37" y="74.81" width="44.26" height="1.07" fill="#4d3a34"/><rect x="33.91" y="81.65" width="3.86" height="5.52" fill="#eceaea"/><rect x="38.83" y="81.65" width="3.86" height="5.52" fill="#eceaea"/><rect x="43.74" y="81.65" width="3.86" height="5.52" fill="#eceaea"/><rect x="48.65" y="81.65" width="3.86" height="5.52" fill="#eceaea"/><rect x="53.57" y="81.65" width="3.86" height="5.52" fill="#eceaea"/><rect x="58.48" y="81.65" width="3.86" height="5.52" fill="#eceaea"/><rect x="63.4" y="81.65" width="3.86" height="5.52" fill="#eceaea"/><rect x="68.31" y="81.65" width="3.86" height="5.52" fill="#eceaea"/><rect x="73.22" y="81.65" width="3.86" height="5.52" fill="#eceaea"/><rect x="68.14" y="66.32" width="5.45" height="6.66" fill="#4d3a34"/><rect x="68.43" y="66.55" width="4.87" height="6.2" fill="#eceaea"/><path d="M72.66,68.36c0-1.65-3.6-1.65-3.6,0v3.82h3.6Z" fill="#4d3a34"/><path d="M72.38,68.48c0-1.5-3-1.5-3,0V72h3Z" fill="#eceaea"/><rect x="60.46" y="66.32" width="5.45" height="6.66" fill="#4d3a34"/><rect x="60.74" y="66.55" width="4.87" height="6.2" fill="#eceaea"/><path d="M65,68.36c0-1.65-3.6-1.65-3.6,0v3.82H65Z" fill="#4d3a34"/><path d="M64.7,68.48c0-1.5-3-1.5-3,0V72h3Z" fill="#eceaea"/><rect x="52.77" y="66.32" width="5.45" height="6.66" fill="#4d3a34"/><rect x="53.06" y="66.55" width="4.87" height="6.2" fill="#eceaea"/><path d="M57.3,68.36c0-1.65-3.6-1.65-3.6,0v3.82h3.6Z" fill="#4d3a34"/><path d="M57,68.48c0-1.5-3-1.5-3,0V72h3Z" fill="#eceaea"/><rect x="37.41" y="66.32" width="5.45" height="6.66" fill="#4d3a34"/><rect x="37.7" y="66.55" width="4.87" height="6.2" fill="#eceaea"/><path d="M41.94,68.36c0-1.65-3.6-1.65-3.6,0v3.82h3.6Z" fill="#4d3a34"/><path d="M41.66,68.48c0-1.5-3-1.5-3,0V72h3Z" fill="#eceaea"/><rect x="45.09" y="66.32" width="5.45" height="6.66" fill="#4d3a34"/><rect x="45.38" y="66.55" width="4.87" height="6.2" fill="#eceaea"/><path d="M49.62,68.36c0-1.65-3.6-1.65-3.6,0v3.82h3.6Z" fill="#4d3a34"/><path d="M49.34,68.48c0-1.5-3-1.5-3,0V72h3Z" fill="#eceaea"/><rect x="43.33" y="63.96" width="1.52" height="1.44" fill="#cbc6c4"/><rect x="43.33" y="66.75" width="1.52" height="1.44" fill="#cbc6c4"/><rect x="43.6" y="65.4" width="0.97" height="1.35" fill="#432f28"/><rect x="43.33" y="69.53" width="1.52" height="1.44" fill="#cbc6c4"/><rect x="43.6" y="68.18" width="0.97" height="1.35" fill="#432f28"/><rect x="43.33" y="72.31" width="1.52" height="1.44" fill="#cbc6c4"/><rect x="43.6" y="70.96" width="0.97" height="1.35" fill="#432f28"/><rect x="35.72" y="63.96" width="1.52" height="1.44" fill="#cbc6c4"/><rect x="35.72" y="66.75" width="1.52" height="1.44" fill="#cbc6c4"/><rect x="35.99" y="65.4" width="0.97" height="1.35" fill="#432f28"/><rect x="35.72" y="69.53" width="1.52" height="1.44" fill="#cbc6c4"/><rect x="35.99" y="68.18" width="0.97" height="1.35" fill="#432f28"/><rect x="35.72" y="72.31" width="1.52" height="1.44" fill="#cbc6c4"/><rect x="35.99" y="70.96" width="0.97" height="1.35" fill="#432f28"/><rect x="50.93" y="63.96" width="1.52" height="1.44" fill="#cbc6c4"/><rect x="50.93" y="66.75" width="1.52" height="1.44" fill="#cbc6c4"/><rect x="51.21" y="65.4" width="0.97" height="1.35" fill="#432f28"/><rect x="50.93" y="69.53" width="1.52" height="1.44" fill="#cbc6c4"/><rect x="51.21" y="68.18" width="0.97" height="1.35" fill="#432f28"/><rect x="50.93" y="72.31" width="1.52" height="1.44" fill="#cbc6c4"/><rect x="51.21" y="70.96" width="0.97" height="1.35" fill="#432f28"/><rect x="66.15" y="63.96" width="1.52" height="1.44" fill="#cbc6c4"/><rect x="66.15" y="66.75" width="1.52" height="1.44" fill="#cbc6c4"/><rect x="66.43" y="65.4" width="0.97" height="1.35" fill="#432f28"/><rect x="66.15" y="69.53" width="1.52" height="1.44" fill="#cbc6c4"/><rect x="66.43" y="68.18" width="0.97" height="1.35" fill="#432f28"/><rect x="66.15" y="72.31" width="1.52" height="1.44" fill="#cbc6c4"/><rect x="66.43" y="70.96" width="0.97" height="1.35" fill="#432f28"/><rect x="58.54" y="63.96" width="1.52" height="1.44" fill="#cbc6c4"/><rect x="58.54" y="66.75" width="1.52" height="1.44" fill="#cbc6c4"/><rect x="58.82" y="65.4" width="0.97" height="1.35" fill="#432f28"/><rect x="58.54" y="69.53" width="1.52" height="1.44" fill="#cbc6c4"/><rect x="58.82" y="68.18" width="0.97" height="1.35" fill="#432f28"/><rect x="58.54" y="72.31" width="1.52" height="1.44" fill="#cbc6c4"/><rect x="58.82" y="70.96" width="0.97" height="1.35" fill="#432f28"/><rect x="73.76" y="63.96" width="1.52" height="1.44" fill="#cbc6c4"/><rect x="73.76" y="66.75" width="1.52" height="1.44" fill="#cbc6c4"/><rect x="74.04" y="65.4" width="0.97" height="1.35" fill="#432f28"/><rect x="73.76" y="69.53" width="1.52" height="1.44" fill="#cbc6c4"/><rect x="74.04" y="68.18" width="0.97" height="1.35" fill="#432f28"/><rect x="73.76" y="72.31" width="1.52" height="1.44" fill="#cbc6c4"/><rect x="74.04" y="70.96" width="0.97" height="1.35" fill="#432f28"/><rect x="44.07" y="58.2" width="22.86" height="0.43" fill="#eceaea"/><rect x="44.07" y="58.63" width="22.86" height="0.43" fill="#4d3a34"/><rect x="44.07" y="59.06" width="22.86" height="1.7" fill="#eceaea"/><path d="M42.05,40.21A6.36,6.36,0,0,0,40.13,39V34.77h-.57V39a6.47,6.47,0,0,0-1.93,1.26c-.81.83-1.39,1.49-.89,2.56H43C43.45,41.7,42.87,41,42.05,40.21Z" fill="#e4e1e0"/><rect x="36.73" y="42.77" width="6.23" height="0.25" fill="#cbc6c4"/><rect x="37.3" y="44.11" width="5.09" height="0.25" fill="#cbc6c4"/><rect x="37.4" y="43.03" width="4.88" height="1.08" fill="#9c918e"/><rect x="36.73" y="44.36" width="6.23" height="1.08" fill="#b0a8a5"/><rect x="36.4" y="45.45" width="6.89" height="0.33" fill="#e4e1e0"/><rect x="36.27" y="47.25" width="7.14" height="0.52" fill="#301a13"/><rect x="36.4" y="50.79" width="6.89" height="0.52" fill="#301a13"/><rect x="36.4" y="47.77" width="6.89" height="3.02" fill="#4d3a34"/><rect x="38.89" y="47.91" width="1.91" height="2.73" fill="#eceaea"/><rect x="36.65" y="47.91" width="1.91" height="2.73" fill="#eceaea"/><rect x="41.12" y="47.91" width="1.91" height="2.73" fill="#eceaea"/><rect x="36.27" y="45.77" width="7.14" height="1.48" fill="#cbc6c4"/><rect x="37.1" y="53.06" width="5.48" height="5.95" fill="#4d3a34"/><rect x="37.37" y="53.26" width="1.43" height="5.55" fill="#eceaea"/><rect x="39.13" y="53.26" width="1.43" height="5.55" fill="#eceaea"/><rect x="40.88" y="53.26" width="1.43" height="5.55" fill="#eceaea"/><rect x="37.1" y="52.62" width="5.48" height="0.44" fill="#eceaea"/><rect x="36.71" y="52.18" width="6.26" height="0.44" fill="#4d3a34"/><rect x="36.72" y="51.75" width="6.25" height="0.43" fill="#eceaea"/><rect x="36.27" y="51.3" width="7.14" height="0.44" fill="#4d3a34"/><rect x="37.1" y="59.01" width="5.48" height="0.44" fill="#eceaea"/><rect x="36.71" y="59.44" width="6.26" height="0.44" fill="#4d3a34"/><rect x="36.72" y="59.89" width="6.25" height="0.43" fill="#eceaea"/><rect x="36.27" y="60.32" width="7.14" height="0.44" fill="#4d3a34"/><path d="M73.37,40.21A6.47,6.47,0,0,0,71.44,39V34.77h-.57V39A6.36,6.36,0,0,0,69,40.21c-.82.83-1.4,1.49-.9,2.56h6.21C74.76,41.7,74.18,41,73.37,40.21Z" fill="#e4e1e0"/><rect x="68.04" y="42.77" width="6.23" height="0.25" fill="#cbc6c4"/><rect x="68.61" y="44.11" width="5.09" height="0.25" fill="#cbc6c4"/><rect x="68.72" y="43.03" width="4.88" height="1.08" fill="#9c918e"/><rect x="68.04" y="44.36" width="6.23" height="1.08" fill="#b0a8a5"/><rect x="67.71" y="45.45" width="6.89" height="0.33" fill="#e4e1e0"/><rect x="67.59" y="47.25" width="7.14" height="0.52" fill="#301a13"/><rect x="67.71" y="50.79" width="6.89" height="0.52" fill="#301a13"/><rect x="67.71" y="47.77" width="6.89" height="3.02" fill="#4d3a34"/><rect x="70.2" y="47.91" width="1.91" height="2.73" fill="#eceaea"/><rect x="67.97" y="47.91" width="1.91" height="2.73" fill="#eceaea"/><rect x="72.43" y="47.91" width="1.91" height="2.73" fill="#eceaea"/><rect x="67.59" y="45.77" width="7.14" height="1.48" fill="#cbc6c4"/><rect x="68.41" y="53.06" width="5.48" height="5.95" fill="#4d3a34"/><rect x="68.68" y="53.26" width="1.43" height="5.55" fill="#eceaea"/><rect x="70.44" y="53.26" width="1.43" height="5.55" fill="#eceaea"/><rect x="72.2" y="53.26" width="1.43" height="5.55" fill="#eceaea"/><rect x="68.41" y="52.62" width="5.48" height="0.44" fill="#eceaea"/><rect x="68.02" y="52.18" width="6.26" height="0.44" fill="#4d3a34"/><rect x="68.03" y="51.75" width="6.25" height="0.43" fill="#eceaea"/><rect x="67.59" y="51.3" width="7.14" height="0.44" fill="#4d3a34"/><rect x="68.41" y="59.01" width="5.48" height="0.44" fill="#eceaea"/><rect x="68.02" y="59.44" width="6.26" height="0.44" fill="#4d3a34"/><rect x="68.03" y="59.89" width="6.25" height="0.43" fill="#eceaea"/><rect x="67.59" y="60.32" width="7.14" height="0.44" fill="#4d3a34"/><rect x="60.46" y="51.54" width="5.45" height="6.66" fill="#4d3a34"/><rect x="60.74" y="51.76" width="4.87" height="6.2" fill="#eceaea"/><path d="M65,53.57c0-1.64-3.6-1.64-3.6,0v3.82H65Z" fill="#4d3a34"/><path d="M64.7,53.69c0-1.49-3-1.49-3,0v3.47h3Z" fill="#eceaea"/><rect x="52.77" y="51.54" width="5.45" height="6.66" fill="#4d3a34"/><rect x="53.06" y="51.76" width="4.87" height="6.2" fill="#eceaea"/><path d="M57.3,53.57c0-1.64-3.6-1.64-3.6,0v3.82h3.6Z" fill="#4d3a34"/><path d="M57,53.69c0-1.49-3-1.49-3,0v3.47h3Z" fill="#eceaea"/><rect x="45.09" y="51.54" width="5.45" height="6.66" fill="#4d3a34"/><rect x="45.38" y="51.76" width="4.87" height="6.2" fill="#eceaea"/><path d="M49.62,53.57c0-1.64-3.6-1.64-3.6,0v3.82h3.6Z" fill="#4d3a34"/><path d="M49.34,53.69c0-1.49-3-1.49-3,0v3.47h3Z" fill="#eceaea"/><path d="M57.31,42.58a5.2,5.2,0,0,0-1.56-1V38.18h-.46v3.37a5.21,5.21,0,0,0-1.55,1c-.66.66-1.13,1.2-.73,2.06h5C58.44,43.78,58,43.24,57.31,42.58Z" fill="#e4e1e0"/><rect x="53.01" y="44.64" width="5.03" height="0.2" fill="#cbc6c4"/><rect x="53.46" y="45.72" width="4.12" height="0.2" fill="#cbc6c4"/><rect x="53.55" y="44.85" width="3.94" height="0.88" fill="#9c918e"/><rect x="53.01" y="45.93" width="5.03" height="0.88" fill="#b0a8a5"/><rect x="52.74" y="46.8" width="5.57" height="0.26" fill="#e4e1e0"/><rect x="52.64" y="48.26" width="5.77" height="0.42" fill="#301a13"/><rect x="52.74" y="51.12" width="5.57" height="0.42" fill="#301a13"/><rect x="52.74" y="48.68" width="5.57" height="2.44" fill="#4d3a34"/><rect x="54.75" y="48.8" width="1.55" height="2.2" fill="#eceaea"/><rect x="52.94" y="48.8" width="1.55" height="2.2" fill="#eceaea"/><rect x="56.55" y="48.8" width="1.55" height="2.2" fill="#eceaea"/><rect x="52.64" y="47.07" width="5.77" height="1.19" fill="#cbc6c4"/><path d="M65,42.58a5.2,5.2,0,0,0-1.56-1V38.18H63v3.37a5.33,5.33,0,0,0-1.56,1c-.66.66-1.12,1.2-.72,2.06h5C66.1,43.78,65.63,43.24,65,42.58Z" fill="#e4e1e0"/><rect x="60.66" y="44.64" width="5.03" height="0.2" fill="#cbc6c4"/><rect x="61.12" y="45.72" width="4.12" height="0.2" fill="#cbc6c4"/><rect x="61.21" y="44.85" width="3.94" height="0.88" fill="#9c918e"/><rect x="60.66" y="45.93" width="5.03" height="0.88" fill="#b0a8a5"/><rect x="60.4" y="46.8" width="5.57" height="0.26" fill="#e4e1e0"/><rect x="60.3" y="48.26" width="5.77" height="0.42" fill="#301a13"/><rect x="60.4" y="51.12" width="5.57" height="0.42" fill="#301a13"/><rect x="60.4" y="48.68" width="5.57" height="2.44" fill="#4d3a34"/><rect x="62.41" y="48.8" width="1.55" height="2.2" fill="#eceaea"/><rect x="60.6" y="48.8" width="1.55" height="2.2" fill="#eceaea"/><rect x="64.21" y="48.8" width="1.55" height="2.2" fill="#eceaea"/><rect x="60.3" y="47.07" width="5.77" height="1.19" fill="#cbc6c4"/><path d="M49.61,42.58a5.2,5.2,0,0,0-1.56-1V38.18h-.46v3.37a5.2,5.2,0,0,0-1.56,1c-.66.66-1.12,1.2-.72,2.06h5C50.73,43.78,50.27,43.24,49.61,42.58Z" fill="#e4e1e0"/><rect x="45.3" y="44.64" width="5.03" height="0.2" fill="#cbc6c4"/><rect x="45.76" y="45.72" width="4.12" height="0.2" fill="#cbc6c4"/><rect x="45.85" y="44.85" width="3.94" height="0.88" fill="#9c918e"/><rect x="45.3" y="45.93" width="5.03" height="0.88" fill="#b0a8a5"/><rect x="45.03" y="46.8" width="5.57" height="0.26" fill="#e4e1e0"/><rect x="44.94" y="48.26" width="5.77" height="0.42" fill="#301a13"/><rect x="45.03" y="51.12" width="5.57" height="0.42" fill="#301a13"/><rect x="45.03" y="48.68" width="5.57" height="2.44" fill="#4d3a34"/><rect x="47.05" y="48.8" width="1.55" height="2.2" fill="#eceaea"/><rect x="45.24" y="48.8" width="1.55" height="2.2" fill="#eceaea"/><rect x="48.85" y="48.8" width="1.55" height="2.2" fill="#eceaea"/><rect x="44.94" y="47.07" width="5.77" height="1.19" fill="#cbc6c4"/></g></g></svg>